<svg width="473" height="474" viewBox="0 0 473 474" fill="none" xmlns="http://www.w3.org/2000/svg">
<path d="M243.273 406.735C359.687 406.735 454.058 356.32 454.058 294.13C454.058 231.941 359.687 181.526 243.273 181.526C126.86 181.526 32.4883 231.941 32.4883 294.13C32.4883 356.32 126.86 406.735 243.273 406.735Z" fill="#F5F5F5"/>
<path d="M158.442 356.813L91.2423 317.736L204.917 252.04L158.442 356.813Z" fill="#E0E0E0"/>
<path d="M61.4371 315.368L88.7853 331.158C89.8004 331.743 91.4453 331.743 92.4595 331.158L130.244 309.118C131.259 308.533 131.259 307.583 130.244 306.997L102.896 291.208C101.881 290.622 100.236 290.622 99.2215 291.208L61.4371 313.247C60.4229 313.833 60.4229 314.783 61.4371 315.368Z" fill="#E0E0E0"/>
<path d="M64.4031 312.887C62.5041 309.845 56.6902 306.503 49.0406 304.851C41.3909 303.199 33.7092 301.144 35.4675 296.707C37.3645 291.92 44.4731 291.686 51.4286 294.535C59.0292 297.649 64.6486 305.362 64.7572 310.21L64.4031 312.887Z" fill="#006EFF"/>
<g opacity="0.1">
<path d="M64.4031 312.887C62.5041 309.845 56.6902 306.503 49.0406 304.851C41.3909 303.199 33.7092 301.144 35.4675 296.707C37.3645 291.92 44.4731 291.686 51.4286 294.535C59.0292 297.649 64.6486 305.362 64.7572 310.21L64.4031 312.887Z" fill="black"/>
</g>
<path d="M65.0017 311.501C64.7892 311.501 64.5853 311.383 64.4871 311.179C58.4135 298.613 44.338 296.588 39.898 297.272C39.5902 297.322 39.2946 297.107 39.2465 296.795C39.1983 296.484 39.4117 296.192 39.7243 296.144C44.3834 295.421 59.1613 297.535 65.5163 310.683C65.6533 310.967 65.5343 311.309 65.251 311.446C65.1698 311.483 65.0848 311.501 65.0017 311.501Z" fill="white"/>
<path d="M64.4031 312.888C64.4031 312.888 60.7468 298.407 51.4891 290.623C48.7384 288.311 45.8055 285.419 43.7545 283.42C39.3542 279.13 41.1898 274.465 47.2871 274.551C56.3455 274.678 62.9763 282.307 65.8459 292.29C68.7156 302.274 64.4031 312.888 64.4031 312.888Z" fill="#006EFF"/>
<path d="M65.8468 307.267C65.5551 307.267 65.3067 307.045 65.2784 306.749C63.5721 288.336 49.525 279.079 45.7025 278.1C45.3966 278.022 45.2124 277.711 45.2908 277.405C45.3692 277.099 45.6808 276.913 45.9858 276.994C50.6279 278.181 64.6684 287.789 66.4162 306.643C66.4455 306.956 66.2142 307.235 65.8997 307.264C65.8818 307.266 65.8638 307.267 65.8468 307.267Z" fill="white"/>
<path d="M89.7523 328.806L63.947 313.907L63.946 258.568L89.7523 273.466V328.806Z" fill="#263238"/>
<path d="M89.7523 273.467L126.618 252.183L126.619 307.522L89.7523 328.806V273.467Z" fill="#37474F"/>
<path d="M126.618 252.183L89.7523 273.467L63.946 258.568L100.812 237.283L126.618 252.183Z" fill="#455A64"/>
<path d="M105.678 272.786L110.693 269.89C111.343 269.514 111.871 269.686 111.871 270.273C111.871 270.86 111.343 271.642 110.693 272.018L105.677 274.914C105.025 275.29 104.498 275.118 104.498 274.531C104.499 273.943 105.027 273.161 105.678 272.786Z" fill="#263238"/>
<path d="M92.7608 301.532L122.253 284.504L122.931 284.896L122.253 305.002L122.931 305.394L93.4378 322.421L92.7598 322.029L92.7608 301.532Z" fill="#263238"/>
<path d="M93.4387 301.924L122.931 284.896L122.931 305.394L93.4378 322.421L93.4387 301.924Z" fill="#455A64"/>
<path d="M105 298.723L110.015 295.827C110.665 295.451 111.193 295.623 111.193 296.211C111.193 296.799 110.665 297.58 110.014 297.956L104.998 300.852C104.347 301.228 103.819 301.056 103.819 300.468C103.82 299.88 104.348 299.099 105 298.723Z" fill="#263238"/>
<path d="M92.7608 276.036L122.253 259.008L122.931 259.401L122.253 279.506L122.931 279.898L93.4378 296.925L92.7598 296.533L92.7608 276.036Z" fill="#263238"/>
<path d="M93.4387 276.428L122.931 259.401L122.931 279.898L93.4378 296.925L93.4387 276.428Z" fill="#455A64"/>
<path d="M105 273.227L110.015 270.331C110.665 269.955 111.193 270.127 111.193 270.714C111.193 271.301 110.665 272.083 110.014 272.459L104.998 275.354C104.347 275.73 103.819 275.558 103.819 274.971C103.82 274.385 104.348 273.603 105 273.227Z" fill="#263238"/>
<path d="M89.7523 271.114L63.947 256.215L63.946 200.874L89.7523 215.774V271.114Z" fill="#263238"/>
<path d="M89.7523 215.774L126.618 194.49L126.619 249.83L89.7523 271.114V215.774Z" fill="#37474F"/>
<path d="M126.618 194.49L89.7523 215.774L63.946 200.874L100.812 179.59L126.618 194.49Z" fill="#455A64"/>
<path d="M93.4397 217.902L122.932 200.874L123.61 201.266L123.609 221.765L94.1167 238.792L93.4387 238.399L93.4397 217.902Z" fill="#263238"/>
<path d="M105.678 215.093L110.693 212.197C111.343 211.821 111.871 211.993 111.871 212.581C111.871 213.168 111.343 213.95 110.693 214.326L105.677 217.222C105.025 217.598 104.498 217.426 104.498 216.838C104.499 216.251 105.027 215.469 105.678 215.093Z" fill="#263238"/>
<path d="M92.7608 243.839L122.253 226.812L122.253 247.309L122.931 247.701L93.4378 264.728L92.7598 264.336L92.7608 243.839Z" fill="#263238"/>
<path d="M93.4387 244.231L122.931 227.203L122.931 247.701L93.4378 264.728L93.4387 244.231Z" fill="#455A64"/>
<path d="M105 241.031L110.015 238.134C110.665 237.759 111.193 237.93 111.193 238.518C111.193 239.106 110.665 239.887 110.014 240.263L104.998 243.158C104.347 243.534 103.819 243.362 103.819 242.775C103.82 242.187 104.348 241.406 105 241.031Z" fill="#263238"/>
<path d="M93.4387 217.902L122.931 200.874L122.931 221.372L93.4378 238.399L93.4387 217.902Z" fill="#263238"/>
<path d="M137.678 211.001L121.535 201.683L121.534 219.741L137.677 229.059L137.678 211.001Z" fill="#263238"/>
<path d="M104.499 241.315V215.773L110.828 212.107L111.872 213.645L130.304 203.003L130.305 226.415L104.499 241.315Z" fill="#006EFF"/>
<g opacity="0.2">
<path d="M104.499 241.315V215.773L110.828 212.107L111.872 213.645L130.304 203.003L130.305 226.415L104.499 241.315Z" fill="black"/>
</g>
<path d="M104.499 241.315L106.341 218.966L132.148 204.067L130.305 226.415L104.499 241.315Z" fill="#006EFF"/>
<path d="M108.186 228.029L94.1158 219.905L94.1149 237.964L108.185 246.086L108.186 228.029Z" fill="#37474F"/>
<path d="M108.186 226.415L137.678 209.388L137.677 229.885L108.185 246.913L108.186 226.415Z" fill="#455A64"/>
<path d="M119.745 223.215L124.761 220.319C125.411 219.943 125.939 220.115 125.939 220.702C125.939 221.29 125.411 222.071 124.76 222.447L119.744 225.342C119.092 225.718 118.565 225.546 118.565 224.959C118.566 224.372 119.095 223.591 119.745 223.215Z" fill="#263238"/>
<path d="M108.186 226.415L107.203 225.849V246.345L108.186 246.913V226.415Z" fill="#263238"/>
<path d="M107.203 225.849L136.695 208.82L137.678 209.388L108.186 226.415L107.203 225.849Z" fill="#37474F"/>
<path d="M354.507 78.6088L350.673 76.3784L155.052 189.32V352.89C155.052 354.191 155.508 355.105 156.245 355.534L156.249 355.537L160.082 357.766C160.823 358.194 161.845 358.133 162.975 357.48L350.419 249.259C352.677 247.955 354.508 244.784 354.508 242.177L354.507 78.6088Z" fill="#E6E6E6"/>
<path d="M161.149 357.568C160.027 357.568 159.359 356.653 159.359 355.121V191.823L354.035 79.4265L354.035 242.178C354.035 244.631 352.307 247.624 350.183 248.851L162.738 357.072C162.178 357.397 161.628 357.568 161.149 357.568Z" fill="#FAFAFA"/>
<path d="M353.562 80.2444L353.563 242.178C353.563 244.441 351.907 247.31 349.947 248.442L162.503 356.663C162.014 356.946 161.546 357.095 161.149 357.095C159.959 357.095 159.831 355.714 159.831 355.121V192.095L353.562 80.2444ZM354.507 78.6089L158.886 191.55V355.121C158.886 356.97 159.807 358.039 161.148 358.039C161.698 358.039 162.318 357.86 162.975 357.481L350.419 249.26C352.677 247.956 354.508 244.785 354.508 242.178L354.507 78.6089Z" fill="#E0E0E0"/>
<path d="M158.886 191.55V209.255L354.506 96.3132L354.507 78.6089L158.886 191.55Z" fill="#006EFF"/>
<path d="M281.629 127.627L281.63 131.439C281.63 132.218 282.182 132.536 282.857 132.147L343.001 97.4228L343 90.7788L282.856 125.503C282.181 125.892 281.629 126.848 281.629 127.627Z" fill="#FAFAFA"/>
<path d="M349.445 87.0573C350.122 86.6663 350.672 86.9836 350.672 87.7655V91.5766C350.672 92.3584 350.122 93.3103 349.445 93.7012L343.001 97.4226L343 90.7787L349.445 87.0573Z" fill="#455A64"/>
<path d="M348.968 92.283L348.249 92.0592C348.323 91.7542 348.364 91.4407 348.364 91.1329C348.364 90.3973 348.125 89.8383 347.709 89.5975C347.399 89.419 347.027 89.4369 346.661 89.6485C345.855 90.114 345.224 91.4265 345.224 92.6381C345.224 93.3737 345.463 93.9327 345.88 94.1735C346.021 94.2547 346.175 94.2953 346.336 94.2953C346.527 94.2953 346.729 94.2377 346.928 94.1225C347.412 93.843 347.831 93.2547 348.089 92.5682L348.81 92.7929C348.836 92.8014 348.863 92.8052 348.889 92.8052C349.003 92.8052 349.108 92.7325 349.144 92.6173C349.188 92.4756 349.109 92.3264 348.968 92.283ZM346.662 93.6607C346.462 93.7759 346.29 93.7939 346.147 93.7108C345.907 93.572 345.758 93.1612 345.758 92.6371C345.758 91.6333 346.293 90.4757 346.928 90.1093C347.045 90.0422 347.153 90.0073 347.251 90.0073C347.32 90.0073 347.384 90.0243 347.443 90.0583C347.682 90.1971 347.831 90.6079 347.831 91.1319C347.832 92.1366 347.296 93.2943 346.662 93.6607Z" fill="#FAFAFA"/>
<path d="M349.513 65.1925C348.772 64.7373 347.734 64.7874 346.583 65.4522L159.141 173.671C156.883 174.975 155.052 178.146 155.052 180.753V189.319L158.886 191.549L354.507 78.6088V70.0433C354.507 68.7477 354.054 67.8365 353.323 67.4078C352.634 67.0046 350.178 65.6004 349.513 65.1925Z" fill="#263238"/>
<path d="M158.886 182.985C158.886 180.378 160.717 177.207 162.975 175.903L350.418 67.6815C352.677 66.3775 354.507 67.4351 354.507 70.0422V78.6078L158.886 191.55V182.985Z" fill="#37474F"/>
<path d="M353.363 67.4303C352.617 66.9676 351.578 67.0148 350.417 67.6853L162.977 175.9C161.844 176.551 160.824 177.675 160.088 178.95L156.245 176.731C156.991 175.447 158.01 174.323 159.144 173.671L346.583 65.4473C347.735 64.7863 348.774 64.7391 349.51 65.1924C350.181 65.5984 352.636 67.0054 353.325 67.402C353.335 67.4114 353.354 67.4209 353.363 67.4303Z" fill="#455A64"/>
<path d="M331.494 83.0263C330.434 83.6382 329.576 85.1254 329.576 86.3483C329.576 87.5711 330.434 88.0678 331.494 87.4559C332.553 86.844 333.411 85.3568 333.411 84.134C333.411 82.9102 332.553 82.4144 331.494 83.0263Z" fill="#006EFF"/>
<path d="M338.206 79.1602C337.146 79.7721 336.288 81.2594 336.288 82.4822C336.288 83.7051 337.146 84.2018 338.206 83.5899C339.265 82.978 340.123 81.4907 340.123 80.2679C340.123 79.045 339.265 78.5493 338.206 79.1602Z" fill="#006EFF"/>
<path d="M344.918 75.2954C343.858 75.9073 343 77.3946 343 78.6174C343 79.8402 343.858 80.3369 344.918 79.725C345.977 79.1132 346.835 77.6259 346.835 76.4031C346.835 75.1802 345.976 74.6835 344.918 75.2954Z" fill="#006EFF"/>
<path d="M161.149 357.568C160.027 357.568 159.359 356.653 159.359 355.121V209.526L196.774 187.925V337.422L162.739 357.072C162.178 357.396 161.628 357.568 161.149 357.568Z" fill="#F5F5F5"/>
<path d="M196.301 188.743V337.15L162.502 356.663C162.013 356.946 161.545 357.095 161.148 357.095C159.959 357.095 159.83 355.713 159.83 355.12V209.799L196.301 188.743ZM197.245 187.107L158.886 209.255V355.121C158.886 356.971 159.807 358.04 161.148 358.04C161.698 358.04 162.318 357.861 162.975 357.482L197.245 337.696V187.107Z" fill="#E0E0E0"/>
<path d="M171.621 210.762L189.972 200.155C190.649 199.763 191.197 200.08 191.197 200.862V202.458C191.197 203.24 190.648 204.191 189.971 204.583L171.619 215.19C170.942 215.582 170.393 215.265 170.394 214.483L170.395 212.887C170.395 212.104 170.944 211.153 171.621 210.762Z" fill="#E0E0E0"/>
<path d="M166.559 215.101V216.697C166.559 217.479 166.01 218.431 165.332 218.822L163.95 219.62C163.273 220.011 162.723 219.694 162.723 218.912V217.315C162.723 216.532 163.272 215.581 163.95 215.19L165.332 214.392C166.009 214.002 166.559 214.319 166.559 215.101Z" fill="#006EFF"/>
<path d="M171.621 219.587L189.972 208.98C190.649 208.588 191.197 208.905 191.197 209.687V211.284C191.197 212.066 190.648 213.017 189.971 213.409L171.619 224.016C170.942 224.408 170.393 224.091 170.394 223.309L170.395 221.713C170.395 220.93 170.944 219.978 171.621 219.587Z" fill="#E0E0E0"/>
<path d="M166.559 223.926V225.523C166.559 226.305 166.01 227.256 165.332 227.647L163.95 228.445C163.273 228.836 162.723 228.519 162.723 227.737V226.14C162.723 225.358 163.272 224.407 163.95 224.016L165.332 223.218C166.009 222.827 166.559 223.144 166.559 223.926Z" fill="#006EFF"/>
<path d="M171.621 228.412L189.972 217.805C190.649 217.414 191.197 217.73 191.197 218.512V220.108C191.197 220.891 190.648 221.842 189.971 222.234L171.619 232.841C170.942 233.233 170.393 232.915 170.394 232.134L170.395 230.537C170.395 229.755 170.944 228.804 171.621 228.412Z" fill="#E0E0E0"/>
<path d="M166.559 232.752V234.349C166.559 235.131 166.01 236.082 165.332 236.473L163.95 237.271C163.273 237.662 162.723 237.346 162.723 236.563V234.966C162.723 234.184 163.272 233.233 163.95 232.842L165.332 232.044C166.009 231.652 166.559 231.969 166.559 232.752Z" fill="#006EFF"/>
<path d="M171.621 257.677L189.972 247.07C190.649 246.679 191.197 246.996 191.197 247.777V249.373C191.197 250.155 190.648 251.107 189.971 251.499L171.619 262.106C170.942 262.498 170.393 262.181 170.394 261.399L170.395 259.802C170.395 259.02 170.944 258.068 171.621 257.677Z" fill="#E0E0E0"/>
<path d="M166.559 262.016V263.613C166.559 264.395 166.01 265.347 165.332 265.738L163.95 266.536C163.273 266.926 162.723 266.609 162.723 265.827V264.231C162.723 263.449 163.272 262.497 163.95 262.106L165.332 261.308C166.009 260.917 166.559 261.234 166.559 262.016Z" fill="#006EFF"/>
<path d="M171.621 265.494L189.972 254.887C190.649 254.495 191.197 254.812 191.197 255.594V257.19C191.197 257.972 190.648 258.924 189.971 259.316L171.619 269.923C170.942 270.314 170.393 269.997 170.394 269.215L170.395 267.62C170.395 266.837 170.944 265.885 171.621 265.494Z" fill="#E0E0E0"/>
<path d="M166.559 269.833V271.429C166.559 272.211 166.01 273.162 165.332 273.553L163.95 274.351C163.273 274.742 162.723 274.426 162.723 273.643V272.046C162.723 271.264 163.272 270.313 163.95 269.922L165.332 269.124C166.009 268.734 166.559 269.051 166.559 269.833Z" fill="#006EFF"/>
<path d="M171.621 273.31L189.972 262.703C190.649 262.311 191.197 262.628 191.197 263.41V265.006C191.197 265.788 190.648 266.739 189.971 267.131L171.619 277.738C170.942 278.13 170.393 277.813 170.394 277.031L170.395 275.435C170.395 274.653 170.944 273.702 171.621 273.31Z" fill="#E0E0E0"/>
<path d="M166.559 277.65V279.247C166.559 280.028 166.01 280.98 165.332 281.371L163.95 282.169C163.273 282.56 162.723 282.243 162.723 281.461V279.864C162.723 279.082 163.272 278.13 163.95 277.739L165.332 276.942C166.009 276.551 166.559 276.868 166.559 277.65Z" fill="#006EFF"/>
<path d="M170.395 238.045V240.798L172.779 238.045H170.395Z" fill="#006EFF"/>
<path d="M174.23 237.477C174.23 237.988 174.597 238.191 175.049 237.932L190.379 229.103C190.832 228.843 191.198 228.212 191.198 227.695C191.198 227.176 190.832 226.967 190.38 227.229L175.049 236.081C174.597 236.34 174.23 236.966 174.23 237.477Z" fill="#E0E0E0"/>
<path d="M170.395 242.473V245.226L172.779 242.473H170.395Z" fill="#006EFF"/>
<path d="M174.23 241.905C174.23 242.416 174.597 242.619 175.049 242.359L190.379 233.531C190.832 233.271 191.198 232.64 191.198 232.122C191.198 231.604 190.832 231.395 190.38 231.657L175.049 240.508C174.597 240.768 174.23 241.394 174.23 241.905Z" fill="#E0E0E0"/>
<path d="M170.395 246.9V249.654L172.779 246.9H170.395Z" fill="#006EFF"/>
<path d="M174.23 246.333C174.23 246.844 174.597 247.047 175.049 246.787L190.379 237.959C190.832 237.698 191.198 237.068 191.198 236.55C191.198 236.033 190.832 235.823 190.38 236.085L175.049 244.936C174.597 245.197 174.23 245.822 174.23 246.333Z" fill="#E0E0E0"/>
<path d="M170.395 251.328V254.082L172.779 251.328H170.395Z" fill="#006EFF"/>
<path d="M174.23 250.76C174.23 251.271 174.597 251.474 175.049 251.215L190.379 242.387C190.832 242.126 191.198 241.495 191.198 240.977C191.198 240.458 190.832 240.25 190.38 240.511L175.049 249.363C174.597 249.625 174.23 250.25 174.23 250.76Z" fill="#E0E0E0"/>
<path d="M208.752 192.385V215.463C208.752 216.429 209.43 216.82 210.266 216.338L235.643 201.686C236.478 201.204 237.156 200.029 237.156 199.064V180.086C237.156 179.12 236.478 178.729 235.643 179.212L220.917 187.713C220.082 188.195 219.404 187.805 219.404 186.839V186.235C219.404 185.269 218.726 184.878 217.89 185.361L210.267 189.763C209.43 190.246 208.752 191.42 208.752 192.385Z" fill="#006EFF"/>
<path d="M213.74 219.817V221.295C213.74 222.019 214.248 222.313 214.875 221.951L233.91 210.96C234.537 210.598 235.045 209.717 235.045 208.993V207.515C235.045 206.791 234.537 206.497 233.909 206.86L214.876 217.85C214.248 218.212 213.74 219.093 213.74 219.817Z" fill="#E0E0E0"/>
<path d="M244.033 172.126V195.204C244.033 196.17 244.711 196.561 245.547 196.078L270.924 181.427C271.759 180.944 272.437 179.769 272.437 178.804V159.825C272.437 158.86 271.759 158.468 270.924 158.951L256.199 167.452C255.363 167.935 254.685 167.544 254.685 166.578V165.974C254.685 165.008 254.007 164.618 253.171 165.1L245.548 169.502C244.71 169.987 244.033 171.16 244.033 172.126Z" fill="#006EFF"/>
<path d="M249.021 199.558V201.036C249.021 201.76 249.529 202.054 250.157 201.691L269.192 190.701C269.819 190.339 270.328 189.458 270.328 188.734V187.256C270.328 186.532 269.82 186.238 269.192 186.6L250.157 197.59C249.529 197.953 249.021 198.834 249.021 199.558Z" fill="#E0E0E0"/>
<path d="M208.752 238.748V261.826C208.752 262.792 209.43 263.183 210.266 262.701L235.643 248.049C236.478 247.567 237.156 246.392 237.156 245.427V226.449C237.156 225.483 236.478 225.092 235.643 225.575L220.917 234.076C220.082 234.559 219.404 234.168 219.404 233.202V232.598C219.404 231.633 218.726 231.241 217.89 231.724L210.267 236.126C209.43 236.609 208.752 237.782 208.752 238.748Z" fill="#006EFF"/>
<path d="M213.74 266.18V267.658C213.74 268.382 214.248 268.675 214.875 268.313L233.91 257.322C234.537 256.961 235.045 256.08 235.045 255.355V253.878C235.045 253.153 234.537 252.86 233.909 253.222L214.876 264.213C214.248 264.575 213.74 265.455 213.74 266.18Z" fill="#E0E0E0"/>
<path d="M244.033 218.489V241.567C244.033 242.532 244.711 242.924 245.547 242.441L270.924 227.79C271.759 227.307 272.437 226.133 272.437 225.168V206.19C272.437 205.224 271.759 204.833 270.924 205.315L256.199 213.816C255.363 214.299 254.685 213.908 254.685 212.942V212.339C254.685 211.374 254.007 210.982 253.171 211.464L245.548 215.866C244.71 216.349 244.033 217.523 244.033 218.489Z" fill="#006EFF"/>
<path d="M249.021 245.92V247.398C249.021 248.122 249.529 248.416 250.157 248.053L269.192 237.063C269.819 236.701 270.328 235.82 270.328 235.096V233.618C270.328 232.894 269.82 232.6 269.192 232.963L250.157 243.952C249.529 244.316 249.021 245.196 249.021 245.92Z" fill="#E0E0E0"/>
<path d="M279.727 150.753V173.831C279.727 174.797 280.405 175.188 281.241 174.705L306.617 160.054C307.453 159.571 308.131 158.397 308.131 157.432V138.453C308.131 137.488 307.453 137.097 306.617 137.579L291.892 146.08C291.057 146.563 290.379 146.172 290.379 145.206V144.603C290.379 143.637 289.701 143.246 288.865 143.728L281.242 148.13C280.405 148.614 279.727 149.788 279.727 150.753Z" fill="#006EFF"/>
<path d="M284.301 179.298V180.776C284.301 181.5 284.809 181.794 285.437 181.431L304.472 170.441C305.099 170.079 305.608 169.198 305.608 168.474V166.996C305.608 166.272 305.1 165.978 304.472 166.341L285.437 177.33C284.81 177.693 284.301 178.574 284.301 179.298Z" fill="#E0E0E0"/>
<path d="M314.595 131.607V154.686C314.595 155.652 315.273 156.043 316.108 155.56L341.485 140.909C342.321 140.426 342.999 139.251 342.999 138.286V119.308C342.999 118.343 342.321 117.951 341.485 118.434L326.759 126.935C325.923 127.418 325.245 127.027 325.245 126.061V125.457C325.245 124.492 324.567 124.1 323.732 124.583L316.108 128.985C315.273 129.468 314.595 130.641 314.595 131.607Z" fill="#006EFF"/>
<path d="M319.582 159.039V160.517C319.582 161.241 320.09 161.535 320.718 161.172L339.753 150.181C340.38 149.82 340.888 148.939 340.888 148.215V146.737C340.888 146.012 340.38 145.719 339.753 146.081L320.718 157.071C320.091 157.434 319.582 158.315 319.582 159.039Z" fill="#E0E0E0"/>
<path d="M284.301 225.644V227.121C284.301 227.846 284.809 228.139 285.437 227.777L304.472 216.786C305.099 216.425 305.608 215.544 305.608 214.819V213.341C305.608 212.617 305.1 212.324 304.472 212.686L285.437 223.676C284.81 224.038 284.301 224.919 284.301 225.644Z" fill="#E0E0E0"/>
<path d="M284.779 193.208L304.522 181.81C305.426 181.289 306.158 181.711 306.158 182.754V205.548C306.158 206.592 305.425 207.86 304.522 208.381L284.779 219.78C283.875 220.302 283.144 219.88 283.144 218.836V196.042C283.144 194.998 283.875 193.73 284.779 193.208Z" fill="#FAFAFA" stroke="#EBEBEB" stroke-miterlimit="10"/>
<path d="M306.845 184.888L302.445 187.429C301.541 187.951 300.809 189.219 300.809 190.262V195.343C300.809 196.387 301.541 196.809 302.445 196.288L306.845 193.747C307.749 193.225 308.481 191.956 308.481 190.914V185.833C308.481 184.789 307.748 184.367 306.845 184.888Z" fill="#006EFF"/>
<path d="M286.284 195.67L296.174 189.98C296.626 189.72 296.992 189.932 296.992 190.453V190.767C296.992 191.289 296.626 191.923 296.175 192.183L286.284 197.883C285.832 198.144 285.467 197.933 285.467 197.41V197.084C285.466 196.564 285.832 195.931 286.284 195.67Z" fill="#EBEBEB"/>
<path d="M286.284 200.093L296.174 194.403C296.626 194.143 296.992 194.355 296.992 194.876V195.191C296.992 195.713 296.626 196.346 296.175 196.607L286.284 202.308C285.832 202.568 285.467 202.357 285.467 201.834V201.508C285.466 200.987 285.832 200.354 286.284 200.093Z" fill="#EBEBEB"/>
<path d="M286.284 204.517L296.174 198.827C296.626 198.567 296.992 198.779 296.992 199.3V199.614C296.992 200.136 296.626 200.77 296.175 201.03L286.284 206.73C285.832 206.991 285.467 206.78 285.467 206.257V205.931C285.466 205.41 285.832 204.777 286.284 204.517Z" fill="#EBEBEB"/>
<path d="M286.284 208.94L302.715 199.468C303.167 199.208 303.533 199.42 303.533 199.941V200.257C303.533 200.778 303.167 201.412 302.716 201.672L286.284 211.155C285.832 211.415 285.467 211.204 285.467 210.681V210.355C285.466 209.834 285.832 209.201 286.284 208.94Z" fill="#EBEBEB"/>
<path d="M286.284 213.364L302.715 203.892C303.167 203.631 303.533 203.844 303.533 204.365V204.68C303.533 205.202 303.167 205.835 302.716 206.096L286.284 215.578C285.832 215.839 285.467 215.627 285.467 215.105V214.779C285.466 214.257 285.832 213.624 286.284 213.364Z" fill="#EBEBEB"/>
<path d="M318.823 205.714V207.191C318.823 207.916 319.331 208.209 319.958 207.847L338.993 196.856C339.62 196.495 340.129 195.614 340.129 194.889V193.412C340.129 192.687 339.621 192.394 338.993 192.756L319.958 203.746C319.331 204.108 318.823 204.989 318.823 205.714Z" fill="#E0E0E0"/>
<path d="M319.3 173.279L339.043 161.88C339.947 161.359 340.679 161.782 340.679 162.824V185.618C340.679 186.662 339.947 187.93 339.043 188.451L319.3 199.851C318.396 200.372 317.665 199.95 317.665 198.906V176.112C317.665 175.069 318.396 173.801 319.3 173.279Z" fill="#FAFAFA" stroke="#EBEBEB" stroke-miterlimit="10"/>
<path d="M341.366 164.959L336.966 167.5C336.062 168.021 335.33 169.289 335.33 170.332V175.414C335.33 176.456 336.062 176.879 336.966 176.358L341.366 173.817C342.27 173.296 343.002 172.027 343.002 170.984V165.903C343.002 164.86 342.269 164.437 341.366 164.959Z" fill="#006EFF"/>
<path d="M320.805 175.74L330.695 170.05C331.147 169.79 331.513 170.002 331.513 170.523V170.838C331.513 171.36 331.147 171.993 330.696 172.254L320.805 177.955C320.354 178.215 319.988 178.004 319.988 177.481V177.155C319.987 176.634 320.354 176.001 320.805 175.74Z" fill="#EBEBEB"/>
<path d="M320.805 180.164L330.695 174.474C331.147 174.214 331.513 174.426 331.513 174.947V175.262C331.513 175.783 331.147 176.417 330.696 176.677L320.805 182.378C320.354 182.638 319.988 182.427 319.988 181.905V181.578C319.987 181.058 320.354 180.424 320.805 180.164Z" fill="#EBEBEB"/>
<path d="M320.805 184.587L330.695 178.897C331.147 178.637 331.513 178.849 331.513 179.37V179.686C331.513 180.207 331.147 180.84 330.696 181.101L320.805 186.802C320.354 187.062 319.988 186.851 319.988 186.329V186.002C319.987 185.482 320.354 184.848 320.805 184.587Z" fill="#EBEBEB"/>
<path d="M320.805 189.011L337.236 179.539C337.688 179.279 338.054 179.491 338.054 180.012V180.328C338.054 180.849 337.688 181.482 337.237 181.743L320.805 191.226C320.354 191.486 319.988 191.275 319.988 190.752V190.426C319.987 189.904 320.354 189.271 320.805 189.011Z" fill="#EBEBEB"/>
<path d="M320.805 193.434L337.236 183.962C337.688 183.702 338.054 183.914 338.054 184.435V184.75C338.054 185.271 337.688 185.905 337.237 186.165L320.805 195.648C320.354 195.908 319.988 195.697 319.988 195.174V194.848C319.987 194.328 320.354 193.695 320.805 193.434Z" fill="#EBEBEB"/>
<path d="M284.301 272.686V274.164C284.301 274.888 284.809 275.182 285.437 274.819L304.472 263.828C305.099 263.467 305.608 262.586 305.608 261.862V260.384C305.608 259.659 305.1 259.366 304.472 259.728L285.437 270.718C284.81 271.081 284.301 271.962 284.301 272.686Z" fill="#E0E0E0"/>
<path d="M284.779 240.252L304.522 228.853C305.426 228.332 306.158 228.755 306.158 229.798V252.592C306.158 253.635 305.425 254.903 304.522 255.424L284.779 266.824C283.875 267.345 283.144 266.922 283.144 265.879V243.085C283.144 242.041 283.875 240.773 284.779 240.252Z" fill="#FAFAFA" stroke="#EBEBEB" stroke-miterlimit="10"/>
<path d="M306.845 231.932L302.445 234.473C301.541 234.994 300.809 236.262 300.809 237.306V242.387C300.809 243.43 301.541 243.852 302.445 243.331L306.845 240.79C307.749 240.269 308.481 239.001 308.481 237.957V232.876C308.481 231.833 307.748 231.41 306.845 231.932Z" fill="#006EFF"/>
<path d="M286.284 242.713L296.174 237.023C296.626 236.763 296.992 236.975 296.992 237.496V237.812C296.992 238.333 296.626 238.967 296.175 239.227L286.284 244.928C285.832 245.188 285.467 244.977 285.467 244.455V244.128C285.466 243.607 285.832 242.973 286.284 242.713Z" fill="#EBEBEB"/>
<path d="M286.284 247.136L296.174 241.446C296.626 241.187 296.992 241.398 296.992 241.919V242.234C296.992 242.755 296.626 243.389 296.175 243.649L286.284 249.35C285.832 249.61 285.467 249.399 285.467 248.877V248.55C285.466 248.031 285.832 247.397 286.284 247.136Z" fill="#EBEBEB"/>
<path d="M286.284 251.56L296.174 245.87C296.626 245.61 296.992 245.822 296.992 246.343V246.659C296.992 247.18 296.626 247.814 296.175 248.074L286.284 253.775C285.832 254.035 285.467 253.824 285.467 253.302V252.975C285.466 252.454 285.832 251.82 286.284 251.56Z" fill="#EBEBEB"/>
<path d="M286.284 255.983L302.715 246.511C303.167 246.251 303.533 246.463 303.533 246.984V247.3C303.533 247.821 303.167 248.455 302.716 248.715L286.284 258.198C285.832 258.458 285.467 258.247 285.467 257.725V257.398C285.466 256.878 285.832 256.244 286.284 255.983Z" fill="#EBEBEB"/>
<path d="M286.284 260.407L302.715 250.935C303.167 250.676 303.533 250.887 303.533 251.408V251.723C303.533 252.244 303.167 252.879 302.716 253.138L286.284 262.621C285.832 262.881 285.467 262.67 285.467 262.148V261.822C285.466 261.301 285.832 260.667 286.284 260.407Z" fill="#EBEBEB"/>
<path d="M318.823 252.757V254.235C318.823 254.959 319.331 255.253 319.958 254.89L338.993 243.899C339.62 243.538 340.129 242.657 340.129 241.933V240.455C340.129 239.731 339.621 239.437 338.993 239.799L319.958 250.789C319.331 251.152 318.823 252.033 318.823 252.757Z" fill="#E0E0E0"/>
<path d="M319.3 220.322L339.043 208.923C339.947 208.402 340.679 208.824 340.679 209.868V232.661C340.679 233.704 339.947 234.972 339.043 235.493L319.3 246.893C318.396 247.414 317.665 246.992 317.665 245.949V223.155C317.665 222.112 318.396 220.843 319.3 220.322Z" fill="#FAFAFA" stroke="#EBEBEB" stroke-miterlimit="10"/>
<path d="M341.366 212.002L336.966 214.543C336.062 215.064 335.33 216.333 335.33 217.376V222.457C335.33 223.5 336.062 223.922 336.966 223.401L341.366 220.86C342.27 220.339 343.002 219.071 343.002 218.027V212.946C343.002 211.903 342.269 211.48 341.366 212.002Z" fill="#006EFF"/>
<path d="M320.805 222.783L330.695 217.093C331.147 216.833 331.513 217.045 331.513 217.566V217.881C331.513 218.402 331.147 219.036 330.696 219.296L320.805 224.997C320.354 225.257 319.988 225.046 319.988 224.524V224.197C319.987 223.678 320.354 223.044 320.805 222.783Z" fill="#EBEBEB"/>
<path d="M320.805 227.207L330.695 221.517C331.147 221.258 331.513 221.469 331.513 221.99V222.306C331.513 222.827 331.147 223.461 330.696 223.721L320.805 229.422C320.354 229.682 319.988 229.471 319.988 228.949V228.622C319.987 228.101 320.354 227.467 320.805 227.207Z" fill="#EBEBEB"/>
<path d="M320.805 231.63L330.695 225.94C331.147 225.68 331.513 225.892 331.513 226.413V226.729C331.513 227.25 331.147 227.884 330.696 228.144L320.805 233.845C320.354 234.105 319.988 233.894 319.988 233.372V233.046C319.987 232.525 320.354 231.891 320.805 231.63Z" fill="#EBEBEB"/>
<path d="M320.805 236.054L337.236 226.582C337.688 226.322 338.054 226.534 338.054 227.055V227.37C338.054 227.891 337.688 228.526 337.237 228.785L320.805 238.268C320.354 238.528 319.988 238.317 319.988 237.795V237.468C319.987 236.948 320.354 236.314 320.805 236.054Z" fill="#EBEBEB"/>
<path d="M320.805 240.477L337.236 231.005C337.688 230.746 338.054 230.957 338.054 231.478V231.794C338.054 232.315 337.688 232.95 337.237 233.209L320.805 242.692C320.354 242.952 319.988 242.741 319.988 242.219V241.892C319.987 241.371 320.354 240.738 320.805 240.477Z" fill="#EBEBEB"/>
<path d="M213.746 313.448V314.926C213.746 315.651 214.254 315.944 214.881 315.582L233.915 304.591C234.542 304.23 235.051 303.348 235.051 302.624V301.146C235.051 300.422 234.542 300.128 233.915 300.491L214.881 311.481C214.254 311.843 213.746 312.724 213.746 313.448Z" fill="#E0E0E0"/>
<path d="M214.223 281.013L233.966 269.615C234.869 269.094 235.601 269.516 235.601 270.559V293.353C235.601 294.397 234.869 295.665 233.966 296.186L214.223 307.585C213.32 308.107 212.587 307.685 212.587 306.641V283.847C212.587 282.804 213.32 281.536 214.223 281.013Z" fill="#FAFAFA" stroke="#EBEBEB" stroke-miterlimit="10"/>
<path d="M236.288 272.693L231.888 275.234C230.984 275.756 230.253 277.024 230.253 278.067V283.148C230.253 284.192 230.984 284.614 231.888 284.093L236.288 281.552C237.192 281.03 237.924 279.762 237.924 278.719V273.638C237.924 272.595 237.192 272.172 236.288 272.693Z" fill="#006EFF"/>
<path d="M215.729 283.475L225.618 277.785C226.07 277.525 226.437 277.737 226.437 278.258V278.572C226.437 279.094 226.07 279.728 225.619 279.988L215.729 285.688C215.276 285.949 214.911 285.738 214.911 285.215V284.89C214.91 284.369 215.276 283.736 215.729 283.475Z" fill="#EBEBEB"/>
<path d="M215.729 287.899L225.618 282.209C226.07 281.948 226.437 282.161 226.437 282.682V282.997C226.437 283.519 226.07 284.153 225.619 284.413L215.729 290.113C215.276 290.374 214.911 290.162 214.911 289.64V289.314C214.91 288.792 215.276 288.159 215.729 287.899Z" fill="#EBEBEB"/>
<path d="M215.729 292.322L225.618 286.632C226.07 286.372 226.437 286.584 226.437 287.105V287.419C226.437 287.941 226.07 288.575 225.619 288.835L215.729 294.535C215.276 294.796 214.911 294.584 214.911 294.062V293.736C214.91 293.216 215.276 292.583 215.729 292.322Z" fill="#EBEBEB"/>
<path d="M215.729 296.746L232.159 287.274C232.611 287.014 232.978 287.226 232.978 287.747V288.061C232.978 288.583 232.611 289.217 232.16 289.477L215.729 298.959C215.276 299.22 214.911 299.008 214.911 298.486V298.16C214.91 297.639 215.276 297.006 215.729 296.746Z" fill="#EBEBEB"/>
<path d="M215.729 301.169L232.159 291.697C232.611 291.437 232.978 291.649 232.978 292.17V292.484C232.978 293.006 232.611 293.64 232.16 293.9L215.729 303.382C215.276 303.643 214.911 303.431 214.911 302.909V302.583C214.91 302.062 215.276 301.43 215.729 301.169Z" fill="#EBEBEB"/>
<path d="M248.267 293.519V294.996C248.267 295.721 248.775 296.014 249.403 295.652L268.437 284.661C269.064 284.3 269.573 283.419 269.573 282.694V281.216C269.573 280.492 269.065 280.199 268.437 280.561L249.403 291.551C248.775 291.914 248.267 292.794 248.267 293.519Z" fill="#E0E0E0"/>
<path d="M248.744 261.084L268.487 249.686C269.39 249.165 270.122 249.587 270.122 250.63V273.424C270.122 274.468 269.39 275.736 268.487 276.257L248.744 287.656C247.84 288.178 247.108 287.756 247.108 286.712V263.918C247.108 262.874 247.841 261.606 248.744 261.084Z" fill="#FAFAFA" stroke="#EBEBEB" stroke-miterlimit="10"/>
<path d="M270.809 252.764L266.409 255.305C265.505 255.827 264.774 257.096 264.774 258.138V263.219C264.774 264.262 265.506 264.685 266.409 264.164L270.809 261.623C271.713 261.101 272.445 259.832 272.445 258.79V253.709C272.445 252.665 271.713 252.242 270.809 252.764Z" fill="#006EFF"/>
<path d="M250.25 263.546L260.139 257.856C260.591 257.595 260.958 257.808 260.958 258.329V258.644C260.958 259.166 260.591 259.8 260.14 260.06L250.25 265.761C249.797 266.021 249.432 265.81 249.432 265.287V264.961C249.431 264.44 249.797 263.806 250.25 263.546Z" fill="#EBEBEB"/>
<path d="M250.25 267.969L260.139 262.279C260.591 262.019 260.958 262.231 260.958 262.752V263.066C260.958 263.588 260.591 264.222 260.14 264.482L250.25 270.183C249.797 270.443 249.432 270.232 249.432 269.709V269.383C249.431 268.863 249.797 268.23 250.25 267.969Z" fill="#EBEBEB"/>
<path d="M250.25 272.393L260.139 266.703C260.591 266.443 260.958 266.655 260.958 267.176V267.49C260.958 268.012 260.591 268.646 260.14 268.906L250.25 274.606C249.797 274.867 249.432 274.656 249.432 274.133V273.808C249.431 273.286 249.797 272.653 250.25 272.393Z" fill="#EBEBEB"/>
<path d="M250.25 276.816L266.68 267.344C267.132 267.083 267.499 267.296 267.499 267.817V268.132C267.499 268.653 267.132 269.287 266.681 269.547L250.25 279.03C249.797 279.29 249.432 279.079 249.432 278.556V278.23C249.431 277.709 249.797 277.076 250.25 276.816Z" fill="#EBEBEB"/>
<path d="M250.25 281.239L266.68 271.767C267.132 271.507 267.499 271.719 267.499 272.24V272.555C267.499 273.076 267.132 273.71 266.681 273.97L250.25 283.452C249.797 283.713 249.432 283.502 249.432 282.979V282.654C249.431 282.133 249.797 281.5 250.25 281.239Z" fill="#EBEBEB"/>
<path d="M158.886 191.55L155.052 189.32V207.04L158.886 209.255V191.55Z" fill="#006EFF"/>
<path opacity="0.1" d="M158.886 191.55L155.052 189.32V207.04L158.886 209.255V191.55Z" fill="black"/>
<path d="M385.44 264.795C384.745 264.392 383.785 264.448 382.723 265.058C380.599 266.278 378.872 269.253 378.866 271.703C378.863 272.928 379.291 273.79 379.985 274.192L427.783 304.422L427.786 304.417C428.765 305.073 430.161 305.039 431.719 304.144C434.688 302.438 437.101 298.28 437.109 294.856C437.112 293.06 436.45 291.829 435.395 291.305L435.401 291.293L385.44 264.795Z" fill="#006EFF"/>
<path opacity="0.15" d="M378.867 271.703C378.862 274.152 380.579 275.15 382.704 273.93C384.828 272.71 386.555 269.734 386.56 267.285C386.566 264.835 384.848 263.838 382.724 265.058C380.599 266.278 378.873 269.253 378.867 271.703Z" fill="black"/>
<path d="M368.29 258.438C367.006 259.175 365.962 260.974 365.959 262.456C365.957 263.196 366.216 263.717 366.636 263.961L366.635 263.962L381.064 272.336L381.065 272.335C381.485 272.578 382.065 272.544 382.708 272.176C383.992 271.438 385.036 269.64 385.039 268.158C385.041 267.418 384.782 266.896 384.362 266.653L369.932 258.279C369.513 258.035 368.932 258.068 368.29 258.438Z" fill="#263238"/>
<path opacity="0.1" d="M384.51 272.368L433.685 302.581C433.074 303.199 432.42 303.745 431.72 304.144C430.164 305.036 428.767 305.076 427.786 304.413L427.782 304.42L379.99 274.196C380.69 274.602 381.643 274.539 382.707 273.93C383.356 273.55 383.97 273.009 384.51 272.368Z" fill="black"/>
<path d="M392.761 229.347C392.751 228.942 392.731 228.546 392.701 228.151C392.681 227.755 392.652 227.37 392.612 226.984C392.593 226.728 392.563 226.471 392.533 226.214C392.464 225.542 392.365 224.88 392.256 224.247C392.207 223.96 392.157 223.663 392.099 223.377C392.05 223.101 391.99 222.833 391.931 222.567C391.762 221.835 391.585 221.124 391.377 220.442C391.269 220.116 391.169 219.789 391.061 219.473C391.041 219.424 391.021 219.374 391.012 219.324C390.893 219.008 390.784 218.701 390.666 218.406C390.528 218.059 390.389 217.714 390.231 217.388C390.122 217.14 390.014 216.903 389.885 216.666C389.816 216.489 389.728 216.321 389.628 216.153C389.529 215.945 389.421 215.737 389.302 215.54C389.272 215.491 389.253 215.441 389.222 215.401C389.123 215.223 389.015 215.045 388.906 214.867C388.837 214.748 388.758 214.64 388.688 214.531C388.165 213.711 387.601 212.96 386.988 212.268C386.88 212.149 386.771 212.031 386.672 211.912C386.583 211.813 386.494 211.724 386.406 211.635C386.297 211.516 386.178 211.408 386.059 211.29C385.723 210.953 385.387 210.647 385.031 210.37C384.863 210.222 384.685 210.083 384.507 209.954C384.329 209.816 384.151 209.687 383.963 209.559C383.676 209.351 383.379 209.154 383.083 208.986C383.003 208.936 382.925 208.886 382.846 208.837L382.797 208.798C382.787 208.798 382.787 208.798 382.787 208.798L372.374 202.766C372.363 202.766 372.363 202.766 372.354 202.766L372.274 202.716C369.704 201.254 366.739 200.493 363.477 200.493C358.89 200.493 353.71 201.995 348.225 205.158C329.383 216.042 314.101 242.504 314.101 264.271C314.101 275.125 317.897 282.756 324.036 286.334L324.095 286.364C324.095 286.364 324.095 286.364 324.095 286.373L334.519 292.396C334.519 292.405 334.519 292.405 334.529 292.405L334.588 292.445V292.435C334.648 292.465 334.697 292.495 334.756 292.524C335.023 292.683 335.29 292.821 335.566 292.949C335.903 293.117 336.249 293.265 336.595 293.404C336.902 293.533 337.218 293.652 337.533 293.75C337.701 293.809 337.87 293.858 338.038 293.898C338.216 293.967 338.394 294.017 338.582 294.056C338.769 294.115 338.947 294.155 339.135 294.195C339.273 294.234 339.402 294.263 339.54 294.283C339.777 294.332 340.034 294.382 340.281 294.412C340.341 294.432 340.39 294.441 340.449 294.441C340.746 294.49 341.042 294.53 341.339 294.56C346.42 295.093 352.331 293.661 358.658 290.013C377.509 279.129 392.791 252.658 392.791 230.901C392.79 230.375 392.78 229.861 392.761 229.347ZM369.897 213.956C370.797 217.02 370.974 220.184 370.974 222.259C370.974 241.456 356.928 265.783 340.301 275.382C337.602 276.933 334.973 278.031 332.522 278.614C331.633 275.55 331.445 272.386 331.445 270.3C331.445 251.104 345.491 226.777 362.118 217.178C364.816 215.627 367.444 214.539 369.897 213.956Z" fill="#006EFF"/>
<path opacity="0.1" d="M334.044 292.125L324.033 286.327C317.894 282.739 314.098 275.107 314.098 264.273C314.098 254.566 317.142 243.93 322.175 234.164L332.597 240.193C327.555 249.96 324.52 260.596 324.52 270.303C324.52 280.918 328.133 288.448 334.044 292.125Z" fill="black"/>
<path opacity="0.4" d="M392.76 229.347C392.751 228.942 392.731 228.546 392.701 228.151C392.681 227.755 392.652 227.37 392.612 226.984C392.592 226.728 392.563 226.471 392.533 226.214C392.464 225.542 392.365 224.88 392.256 224.247C392.207 223.96 392.157 223.663 392.098 223.377C392.049 223.101 391.99 222.833 391.93 222.567C391.762 221.835 391.585 221.124 391.377 220.442C391.268 220.116 391.169 219.789 391.061 219.473C391.041 219.424 391.021 219.374 391.012 219.324C390.893 219.008 390.784 218.701 390.666 218.406C390.528 218.059 390.389 217.713 390.231 217.388C390.122 217.14 390.013 216.903 389.885 216.666C389.816 216.489 389.727 216.321 389.628 216.153C389.529 215.945 389.42 215.737 389.301 215.54C389.272 215.491 389.252 215.441 389.222 215.401C389.123 215.223 389.014 215.045 388.906 214.867C388.837 214.748 388.758 214.64 388.688 214.531C388.165 213.711 387.601 212.96 386.988 212.268C386.879 212.149 386.771 212.031 386.672 211.912C386.583 211.813 386.494 211.724 386.405 211.635C386.297 211.516 386.178 211.408 386.059 211.29C385.723 210.953 385.387 210.647 385.031 210.37C384.862 210.222 384.685 210.083 384.506 209.954C384.329 209.816 384.15 209.687 383.963 209.559C383.675 209.351 383.379 209.154 383.082 208.986C376.884 205.22 368.005 205.3 358.657 211.19C339.955 222.974 324.616 249.096 324.524 270.302C324.476 281.324 328.438 289.025 334.755 292.524C335.021 292.683 335.289 292.821 335.565 292.949C335.902 293.117 336.248 293.265 336.594 293.404C336.901 293.533 337.217 293.652 337.532 293.75C337.7 293.809 337.868 293.858 338.037 293.898C338.215 293.967 338.393 294.017 338.58 294.056C338.768 294.115 338.946 294.155 339.134 294.195C339.272 294.234 339.401 294.263 339.539 294.283C339.776 294.332 340.033 294.382 340.28 294.412C340.34 294.432 340.389 294.441 340.448 294.441C340.745 294.49 341.041 294.53 341.338 294.56C346.419 295.093 352.33 293.661 358.657 290.013C377.507 279.129 392.79 252.658 392.79 230.901C392.79 230.375 392.78 229.861 392.76 229.347ZM355.197 284.021C350.967 286.463 346.894 287.748 343.414 287.748C336.88 287.748 333.875 283.29 332.521 278.614C331.631 275.55 331.444 272.386 331.444 270.3C331.444 251.104 345.49 226.777 362.117 217.178C364.815 215.626 367.444 214.539 369.897 213.955C371.3 213.619 372.635 213.451 373.9 213.451C384.705 213.451 385.861 225.649 385.861 230.898C385.861 250.096 371.824 274.422 355.197 284.021Z" fill="white"/>
<path opacity="0.1" d="M385.858 230.899C385.858 250.094 371.824 274.424 355.194 284.017C350.964 286.46 346.896 287.746 343.417 287.746C339.723 287.746 337.167 286.314 335.388 284.229C335.384 284.228 335.38 284.228 335.377 284.228C335.207 284.026 335.045 283.824 334.884 283.613C334.73 283.402 334.576 283.184 334.439 282.958C334.333 282.804 334.237 282.642 334.147 282.481C334.082 282.376 334.018 282.27 333.961 282.165C333.888 282.036 333.823 281.907 333.75 281.769C333.686 281.648 333.63 281.526 333.573 281.405C333.508 281.284 333.452 281.154 333.395 281.026C333.298 280.799 333.201 280.581 333.112 280.346C332.999 280.062 332.894 279.779 332.797 279.488C332.699 279.197 332.602 278.906 332.522 278.615C334.973 278.032 337.601 276.932 340.303 275.38C356.925 265.787 370.975 241.456 370.975 222.262C370.975 220.184 370.796 217.02 369.899 213.955C371.299 213.624 372.633 213.454 373.903 213.454C374.454 213.454 374.979 213.486 375.48 213.551C375.65 213.567 375.812 213.599 375.974 213.624C375.976 213.626 375.978 213.629 375.979 213.63C384.846 215.098 385.858 226.008 385.858 230.899Z" fill="black"/>
<path opacity="0.7" d="M379.889 227.551C379.889 246.745 365.855 271.076 349.225 280.669C344.995 283.112 340.927 284.398 337.441 284.398C336.713 284.398 336.025 284.341 335.378 284.228C335.208 284.026 335.047 283.824 334.885 283.613C334.732 283.402 334.578 283.184 334.441 282.958C334.335 282.804 334.239 282.642 334.149 282.481C334.084 282.376 334.02 282.27 333.963 282.165C333.89 282.036 333.825 281.907 333.752 281.769C333.688 281.648 333.631 281.526 333.575 281.405C333.51 281.284 333.454 281.154 333.397 281.026C333.3 280.799 333.203 280.581 333.114 280.346C333.001 280.062 332.896 279.779 332.799 279.488C332.701 279.197 332.604 278.906 332.524 278.615C334.975 278.032 337.603 276.932 340.305 275.38C356.927 265.787 370.977 241.456 370.977 222.262C370.977 220.184 370.798 217.02 369.901 213.955C371.301 213.624 372.635 213.454 373.905 213.454C374.456 213.454 374.981 213.486 375.482 213.551C375.652 213.567 375.813 213.599 375.976 213.624C379.388 217.642 379.889 224.097 379.889 227.551Z" fill="white"/>
</svg>
