<svg width="195" height="164" viewBox="0 0 195 164" fill="none" xmlns="http://www.w3.org/2000/svg">
<g id="Coins">
<g id="Coins_4_">
<g id="XMLID_4872_">
<g id="XMLID_5352_">
<g id="XMLID_5353_">
<path id="Vector" d="M107.074 76.8732C104.531 72.5842 100.305 68.5529 94.3773 65.132C73.6202 53.1471 39.9665 53.1471 19.2094 65.132C13.2834 68.5549 9.05583 72.5842 6.51298 76.8732H3.64111V87.7323H3.67877C4.06129 95.2816 9.22826 102.765 19.2094 108.529C39.9665 120.514 73.6202 120.514 94.3773 108.529C104.358 102.765 109.563 95.2816 109.946 87.7323V76.8732H107.074Z" fill="#88A6F5"/>
</g>
</g>
<g id="XMLID_5350_" opacity="0.25">
<g id="XMLID_5351_">
<path id="Vector_2" d="M107.074 76.8732C104.531 72.5842 100.305 68.5529 94.3773 65.132C73.6202 53.1471 39.9665 53.1471 19.2094 65.132C13.2834 68.5549 9.05583 72.5842 6.51298 76.8732H3.64111V87.7323H3.67877C4.06129 95.2816 9.22826 102.765 19.2094 108.529C39.9665 120.514 73.6202 120.514 94.3773 108.529C104.358 102.765 109.563 95.2816 109.946 87.7323V76.8732H107.074Z" fill="black"/>
</g>
</g>
<g id="XMLID_5349_" opacity="0.1">
<path id="Vector_3" d="M56.7978 56.1438C43.1936 56.1438 29.5914 59.1386 19.2119 65.132C13.2858 68.5549 9.05827 72.5842 6.51542 76.8732H3.64355V87.7323H3.68121C4.06373 95.2816 9.23071 102.765 19.2119 108.529C29.5914 114.521 43.1956 117.517 56.7978 117.517V56.1438Z" fill="black"/>
</g>
<g id="XMLID_5348_" opacity="0.1">
<path id="Vector_4" d="M27.766 61.1267C24.7415 62.2683 21.8677 63.5982 19.2119 65.1322C13.2858 68.5551 9.05827 72.5844 6.51542 76.8734H3.64355V87.7326H3.68121C4.06373 95.2819 9.23071 102.766 19.2119 108.529C21.8697 110.063 24.7415 111.395 27.766 112.535V61.1267Z" fill="black"/>
</g>
<g id="XMLID_5347_" opacity="0.5">
<path id="Vector_5" d="M85.8237 61.1267C88.8482 62.2683 91.7221 63.5982 94.3779 65.1322C100.306 68.5551 104.531 72.5844 107.074 76.8734H109.946V87.7326C109.564 95.2819 104.359 102.768 94.3779 108.529C91.7201 110.063 88.8482 111.395 85.8237 112.535V61.1267Z" fill="#88A6F5"/>
</g>
<g id="XMLID_5336_">
<g id="XMLID_5345_">
<path id="Vector_6" d="M94.3783 55.1808C73.6212 43.1979 39.9675 43.1979 19.2104 55.1808C-1.54669 67.1638 -1.54669 86.5949 19.2104 98.5779C39.9675 110.563 73.6212 110.563 94.3783 98.5779C115.135 86.5949 115.135 67.1638 94.3783 55.1808Z" fill="#88A6F5"/>
</g>
<g id="XMLID_5343_" opacity="0.2">
<path id="Vector_7" d="M94.3783 55.1808C73.6212 43.1979 39.9675 43.1979 19.2104 55.1808C-1.54669 67.1638 -1.54669 86.5949 19.2104 98.5779C39.9675 110.563 73.6212 110.563 94.3783 98.5779C115.135 86.5949 115.135 67.1638 94.3783 55.1808Z" fill="black"/>
</g>
<g id="XMLID_5337_">
<g id="XMLID_5342_">
<path id="Vector_8" d="M81.272 63.1204C74.6978 59.755 66.0109 57.8999 56.7928 57.8999C47.5846 57.8999 38.8897 59.757 32.3235 63.1204C25.3648 66.6859 21.5337 71.5794 21.5337 76.8831C21.5337 82.1869 25.3648 87.0704 32.3235 90.636C38.8897 94.0093 47.5846 95.8664 56.7928 95.8664C66.0109 95.8664 74.6978 94.0112 81.272 90.636C88.2208 87.0704 92.0519 82.1869 92.0519 76.8831C92.0539 71.5794 88.2208 66.6859 81.272 63.1204Z" fill="#88A6F5"/>
</g>
<g id="XMLID_5341_" opacity="0.4">
<path id="Vector_9" d="M81.272 63.1204C74.6978 59.755 66.0109 57.8999 56.7928 57.8999C47.5846 57.8999 38.8897 59.757 32.3235 63.1204C25.3648 66.6859 21.5337 71.5794 21.5337 76.8831C21.5337 82.1869 25.3648 87.0704 32.3235 90.636C38.8897 94.0093 47.5846 95.8664 56.7928 95.8664C66.0109 95.8664 74.6978 94.0112 81.272 90.636C88.2208 87.0704 92.0519 82.1869 92.0519 76.8831C92.0539 71.5794 88.2208 66.6859 81.272 63.1204Z" fill="black"/>
</g>
<g id="XMLID_5338_">
<path id="Vector_10" d="M93.2247 57.1864C83.5329 51.5893 70.5907 48.5015 56.7923 48.5015C42.9939 48.5015 30.0655 51.5893 20.3737 57.1864C11.0744 62.5536 5.96289 69.538 5.96289 76.8832C5.96289 84.2164 11.0744 91.2127 20.3737 96.5799C30.0655 102.167 42.9959 105.253 56.7923 105.253C70.5907 105.253 83.5309 102.165 93.2247 96.5799C102.512 91.2147 107.636 84.2164 107.636 76.8832C107.634 69.538 102.51 62.5536 93.2247 57.1864ZM81.2715 90.636C74.6973 94.0093 66.0104 95.8664 56.7923 95.8664C47.5841 95.8664 38.8892 94.0113 32.323 90.636C25.3643 87.0705 21.5332 82.1869 21.5332 76.8832C21.5332 71.5794 25.3643 66.688 32.323 63.1204C38.8892 59.7551 47.5841 57.8999 56.7923 57.8999C66.0104 57.8999 74.6973 59.757 81.2715 63.1204C88.2203 66.686 92.0514 71.5794 92.0514 76.8832C92.0534 82.1869 88.2203 87.0685 81.2715 90.636Z" fill="#88A6F5"/>
</g>
</g>
</g>
<g id="XMLID_5330_">
<g id="XMLID_5335_" opacity="0.2">
<path id="Vector_11" d="M80.4329 89.0067C93.488 82.3076 93.488 71.4445 80.4329 64.7455C67.3777 58.0464 46.2123 58.0464 33.1571 64.7455C20.1019 71.4445 20.1019 82.3076 33.1571 89.0067C46.2123 95.7077 67.3777 95.7077 80.4329 89.0067Z" fill="black"/>
</g>
<g id="XMLID_5334_">
<path id="Vector_12" d="M80.4329 89.0067C93.488 82.3076 93.488 71.4445 80.4329 64.7455C67.3777 58.0464 46.2123 58.0464 33.1571 64.7455C20.1019 71.4445 20.1019 82.3076 33.1571 89.0067C46.2123 95.7077 67.3777 95.7077 80.4329 89.0067Z" fill="#88A6F5"/>
</g>
<g id="XMLID_5333_" opacity="0.6">
<g id="Group">
<path id="Vector_13" d="M80.4329 89.0067C93.488 82.3076 93.488 71.4445 80.4329 64.7455C67.3777 58.0464 46.2123 58.0464 33.1571 64.7455C20.1019 71.4445 20.1019 82.3076 33.1571 89.0067C46.2123 95.7077 67.3777 95.7077 80.4329 89.0067Z" fill="black"/>
</g>
</g>
<g id="XMLID_5332_">
<path id="Vector_14" d="M80.4324 69.2901C67.3772 62.5911 46.2118 62.5911 33.1567 69.2901C27.7578 72.0609 24.5985 75.5432 23.665 79.1484C24.5985 82.7536 27.7578 86.2359 33.1567 89.0067C46.2118 95.7057 67.3772 95.7057 80.4324 89.0067C85.8313 86.2359 88.9905 82.7536 89.924 79.1484C88.9905 75.5432 85.8313 72.0609 80.4324 69.2901Z" fill="#88A6F5"/>
</g>
<g id="XMLID_5331_" opacity="0.5">
<g id="Group_2">
<path id="Vector_15" d="M80.4324 69.2901C67.3772 62.5911 46.2118 62.5911 33.1567 69.2901C27.7578 72.0609 24.5985 75.5432 23.665 79.1484C24.5985 82.7536 27.7578 86.2359 33.1567 89.0067C46.2118 95.7057 67.3772 95.7057 80.4324 89.0067C85.8313 86.2359 88.9905 82.7536 89.924 79.1484C88.9905 75.5432 85.8313 72.0609 80.4324 69.2901Z" fill="black"/>
</g>
</g>
</g>
<g id="XMLID_4914_">
<g id="XMLID_5329_">
<path id="Vector_16" d="M59.96 65.0073V69.9087L58.2872 71.6766L55.1914 74.9171V69.8156L59.96 65.0073Z" fill="#88A6F5"/>
</g>
<g id="XMLID_5328_" opacity="0.3">
<path id="Vector_17" d="M59.96 65.0073V69.9087L58.2872 71.6766L55.1914 74.9171V69.8156L59.96 65.0073Z" fill="black"/>
</g>
<g id="XMLID_5327_">
<path id="Vector_18" d="M55.1923 69.8112V72.7049C53.1746 73.4085 51.6525 73.8842 50.4336 74.0566C49.6725 74.1517 49.0066 74.1517 48.3961 73.9793C48.0532 73.8842 47.75 73.7513 47.425 73.5809C46.2457 72.8773 46.0534 71.8289 48.301 70.5346C50.6813 69.1453 53.137 69.0105 55.1923 69.8112Z" fill="#88A6F5"/>
</g>
<g id="XMLID_5326_" opacity="0.45">
<g id="Group_3">
<path id="Vector_19" d="M55.1923 69.8112V72.7049C53.1746 73.4085 51.6525 73.8842 50.4336 74.0566C49.6725 74.1517 49.0066 74.1517 48.3961 73.9793C48.0532 73.8842 47.75 73.7513 47.425 73.5809C46.2457 72.8773 46.0534 71.8289 48.301 70.5346C50.6813 69.1453 53.137 69.0105 55.1923 69.8112Z" fill="black"/>
</g>
</g>
<g id="XMLID_5325_">
<path id="Vector_20" d="M77.3805 83.7329V87.9644L72.0192 91.0582L68.0533 88.7651C63.8417 90.5885 58.3437 91.6092 52.6991 89.4588V85.2233L55.1349 82.8073L52.6991 83.4792C48.8541 84.3651 44.8267 84.4721 40.7399 82.1116C38.3358 80.7262 37.22 79.2081 37.2259 77.6463V73.5278L37.66 71.7261L36.1973 70.8739V66.6384L40.1632 68.9316C38.2268 70.4319 37.1982 71.9778 37.2239 73.4782V73.5258C37.2675 75.0479 38.3933 76.5244 40.7379 77.8801C45.9525 80.8907 51.1175 79.8978 55.8504 78.3796C60.2523 76.9427 63.4572 75.256 65.9941 76.7187C67.5697 77.6304 67.0921 78.7363 65.3222 79.761C62.4999 81.3862 59.4378 80.8927 57.763 80.199L52.6951 85.2233C53.6326 85.584 54.5701 85.8516 55.4956 86.0458C60.1334 87.0189 64.5393 86.0537 68.0494 84.5355L72.0153 86.8287L77.3805 83.7329Z" fill="#88A6F5"/>
</g>
<g id="XMLID_5324_" opacity="0.35">
<g id="Group_4">
<path id="Vector_21" d="M37.2256 73.476V73.5235C37.2692 75.0456 38.395 76.5222 40.7397 77.8778C45.9542 80.8884 51.1192 79.8955 55.8521 78.3773C60.2541 76.9404 63.4589 75.2537 65.9958 76.7164C67.5715 77.6281 67.0938 78.7341 65.3239 79.7587C62.5016 81.384 59.4395 80.8905 57.7647 80.1968L52.6968 85.2211C53.6343 85.5818 54.5718 85.8494 55.4974 86.0436C60.1351 87.0167 64.541 86.0515 68.0511 84.5333L72.017 86.8264L77.3782 83.7326V87.9641L72.017 91.0579L68.0511 88.7648C63.8394 90.5882 58.3415 91.6089 52.6968 89.4585V85.223L55.1327 82.807L52.6968 83.4789C48.8518 84.3648 44.8245 84.4719 40.7377 82.1114C38.3336 80.726 37.2177 79.2078 37.2237 77.646V73.5275L37.6577 71.7258" fill="black"/>
</g>
</g>
<g id="XMLID_5323_" opacity="0.45">
<g id="Group_5">
<path id="Vector_22" d="M36.1973 66.6365V70.8719L37.66 71.7242L37.652 71.7381C38.1217 70.8006 38.97 69.8572 40.1632 68.9316L36.1973 66.6365Z" fill="black"/>
</g>
</g>
<g id="XMLID_5000_">
<g id="XMLID_5322_">
<path id="Vector_23" d="M76.4926 80.9659C76.4926 81.7468 76.342 82.4306 76.0923 82.9836L73.4087 81.4416C73.4087 81.4416 76.1121 80.3376 76.455 77.3687C76.4728 78.5281 76.4926 80.851 76.4926 80.9659Z" fill="#88A6F5"/>
</g>
</g>
<g id="XMLID_4998_" opacity="0.3">
<g id="XMLID_4999_">
<path id="Vector_24" d="M76.4926 80.9659C76.4926 81.7468 76.342 82.4306 76.0923 82.9836L73.4087 81.4416C73.4087 81.4416 76.1121 80.3376 76.455 77.3687C76.4728 78.5281 76.4926 80.851 76.4926 80.9659Z" fill="black"/>
</g>
</g>
<g id="XMLID_4939_">
<g id="XMLID_4988_">
<path id="Vector_25" d="M76.4841 83.2173L73.4161 81.4375C73.4161 81.4375 76.4841 80.175 76.4841 76.7363C76.4841 76.5897 76.4703 76.4568 76.4584 76.3241C76.3256 74.8633 75.2494 73.4423 73.0316 72.1659C73.0316 72.152 73.0316 72.1521 73.0316 72.1521C70.6671 70.7964 68.2491 70.2929 65.8985 70.2929C65.7003 70.2929 65.4862 70.3069 65.288 70.3069H65.2207C65.0086 70.3207 64.7945 70.3326 64.5825 70.3465C64.3962 70.3603 64.2099 70.3723 64.0236 70.4C63.9443 70.4139 63.865 70.4139 63.7976 70.4258C63.6509 70.4396 63.5063 70.4515 63.3735 70.4792C62.1783 70.6378 61.0229 70.9034 59.907 71.1967C59.362 71.3434 58.8189 71.502 58.2858 71.6744C57.5148 71.9142 56.7577 72.1659 56.0402 72.4037C55.7489 72.5108 55.4694 72.6039 55.1899 72.6951C53.1703 73.3987 51.6561 73.8902 50.4352 74.0507C49.6642 74.1578 49.0003 74.1439 48.3898 73.9715C48.0588 73.8783 47.7398 73.7455 47.4325 73.5731C46.2374 72.8814 46.0511 71.8329 48.2967 70.5308C50.6869 69.1493 53.1327 69.0027 55.1899 69.8133L59.9585 65.0051C55.3762 63.5186 50.4471 63.7703 45.5735 65.8018L41.6016 63.5166L36.1948 66.6382L40.1667 68.9234C38.2263 70.4238 37.1917 71.9776 37.2175 73.4799V73.5196C37.271 75.0477 38.3869 76.5223 40.7375 77.876C45.958 80.8905 51.1249 79.8956 55.8539 78.3675C60.2499 76.9325 63.4508 75.2459 65.9897 76.7066C67.5693 77.6222 67.0916 78.7262 65.3257 79.7489C62.5093 81.382 59.4413 80.8905 57.7685 80.1869L52.6947 85.2211C53.6381 85.5798 54.5815 85.8454 55.4972 86.0436C57.1679 86.3925 58.809 86.4916 60.3886 86.4024C63.1931 86.2438 65.8053 85.4986 68.0489 84.5314L72.0208 86.8285L77.374 83.7346L76.4841 83.2173Z" fill="#88A6F5"/>
</g>
</g>
<g id="XMLID_4938_">
<path id="Vector_26" d="M68.0527 84.5334V88.765L72.0226 91.0561V86.8246L68.0527 84.5334Z" fill="#88A6F5"/>
</g>
<g id="XMLID_4936_" opacity="0.45">
<g id="Group_6">
<path id="Vector_27" d="M68.0527 84.5334V88.765L72.0226 91.0561V86.8246L68.0527 84.5334Z" fill="black"/>
</g>
</g>
</g>
<g id="XMLID_4874_">
<g id="XMLID_4912_">
<path id="Vector_28" d="M36.1973 66.6404L41.6041 63.5208L45.5759 65.804L41.6397 64.157L36.1973 66.6404Z" fill="#F5F5F5"/>
</g>
<g id="XMLID_4900_">
<path id="Vector_29" d="M48.2993 70.533C50.6896 69.1516 53.1353 69.0049 55.1926 69.8156L59.9612 65.0073L55.1926 69.3201C55.1926 69.3201 51.3892 67.8693 48.2993 70.533Z" fill="#F5F5F5"/>
</g>
<g id="XMLID_4899_">
<path id="Vector_30" d="M52.6953 85.2232C53.6387 85.5819 54.5821 85.8475 55.4978 86.0457C57.1686 86.3945 58.8097 86.4936 60.3893 86.4044C60.3893 86.4044 56.574 86.5055 53.496 85.025L57.7691 80.187L52.6953 85.2232Z" fill="#F5F5F5"/>
</g>
<g id="XMLID_4882_">
<path id="Vector_31" d="M68.0537 84.5333L72.0236 86.323L77.3749 83.7366L72.0236 86.8244L68.0537 84.5333Z" fill="#F5F5F5"/>
</g>
<g id="XMLID_4880_">
<path id="Vector_32" d="M20.78 57.8999C34.852 49.3517 56.7923 48.5015 56.7923 48.5015C42.9939 48.5015 30.0655 51.5893 20.3737 57.1864C11.0744 62.5536 5.96289 69.538 5.96289 76.8832C5.96289 76.8832 6.46631 66.5948 20.78 57.8999Z" fill="#F5F5F5"/>
</g>
<g id="XMLID_4878_">
<path id="Vector_33" d="M52.6929 107.475C67.627 108.139 82.9555 105.172 94.3775 98.578C106.255 91.7205 111.337 82.4231 109.619 73.4805C109.619 73.4805 111.837 88.0558 93.4797 98.031C75.1227 108.006 52.6929 107.475 52.6929 107.475Z" fill="#F5F5F5"/>
</g>
</g>
</g>
<g id="XMLID_4638_">
<g id="XMLID_4795_">
<g id="XMLID_4803_">
<path id="Vector_34" d="M103.431 61.5193C100.888 57.2304 96.6603 53.1991 90.7342 49.7782C69.9771 37.7953 36.3234 37.7953 15.5683 49.7782C9.64225 53.1991 5.41472 57.2304 2.87186 61.5193H0V72.3785H0.0376574C0.420176 79.9278 5.58715 87.4137 15.5683 93.1753C36.3254 105.158 69.9791 105.158 90.7342 93.1753C100.715 87.4137 105.92 79.9278 106.303 72.3785V61.5193H103.431Z" fill="#88A6F5"/>
</g>
</g>
<g id="XMLID_4765_" opacity="0.25">
<g id="XMLID_4789_">
<path id="Vector_35" d="M103.431 61.5193C100.888 57.2304 96.6603 53.1991 90.7342 49.7782C69.9771 37.7953 36.3234 37.7953 15.5683 49.7782C9.64225 53.1991 5.41472 57.2304 2.87186 61.5193H0V72.3785H0.0376574C0.420176 79.9278 5.58715 87.4137 15.5683 93.1753C36.3254 105.158 69.9791 105.158 90.7342 93.1753C100.715 87.4137 105.92 79.9278 106.303 72.3785V61.5193H103.431Z" fill="black"/>
</g>
</g>
<g id="XMLID_4764_" opacity="0.1">
<path id="Vector_36" d="M53.1542 40.79C39.5501 40.79 25.9459 43.7868 15.5683 49.7782C9.64225 53.1991 5.41472 57.2304 2.87186 61.5194H0V72.3785H0.0376574C0.420176 79.9278 5.58715 87.4137 15.5683 93.1753C25.9479 99.1668 39.552 102.163 53.1542 102.163V40.79Z" fill="black"/>
</g>
<g id="XMLID_4762_" opacity="0.1">
<path id="Vector_37" d="M24.1225 45.7708C21.098 46.9124 18.2241 48.2423 15.5683 49.7763C9.64225 53.1972 5.41472 57.2285 2.87186 61.5175H0V72.3766H0.0376574C0.420176 79.9259 5.58715 87.4118 15.5683 93.1733C18.2261 94.7074 21.098 96.0392 24.1225 97.1789V45.7708Z" fill="black"/>
</g>
<g id="XMLID_4760_" opacity="0.5">
<path id="Vector_38" d="M82.1782 45.7708C85.2027 46.9124 88.0765 48.2423 90.7324 49.7763C96.6584 53.1972 100.886 57.2285 103.429 61.5175H106.301V72.3766C105.918 79.9278 100.714 87.4118 90.7324 93.1733C88.0746 94.7074 85.2027 96.0392 82.1782 97.1789V45.7708Z" fill="#88A6F5"/>
</g>
<g id="XMLID_4740_">
<g id="XMLID_4750_">
<path id="Vector_39" d="M90.7347 39.8246C69.9776 27.8397 36.3239 27.8397 15.5688 39.8246C-5.1883 51.8076 -5.1883 71.2387 15.5688 83.2217C36.3259 95.2046 69.9796 95.2046 90.7347 83.2217C111.492 71.2387 111.492 51.8096 90.7347 39.8246Z" fill="#88A6F5"/>
</g>
<g id="XMLID_4748_" opacity="0.2">
<path id="Vector_40" d="M90.7347 39.8246C69.9776 27.8397 36.3239 27.8397 15.5688 39.8246C-5.1883 51.8076 -5.1883 71.2387 15.5688 83.2217C36.3259 95.2046 69.9796 95.2046 90.7347 83.2217C111.492 71.2387 111.492 51.8096 90.7347 39.8246Z" fill="black"/>
</g>
<g id="XMLID_4741_">
<g id="XMLID_4747_">
<path id="Vector_41" d="M77.628 47.7664C71.0538 44.401 62.3669 42.5459 53.1488 42.5459C43.9406 42.5459 35.2437 44.401 28.6795 47.7664C21.7208 51.3319 17.8896 56.2234 17.8896 61.5271C17.8896 66.8309 21.7208 71.7125 28.6795 75.28C35.2457 78.6533 43.9406 80.5104 53.1488 80.5104C62.3669 80.5104 71.0518 78.6553 77.628 75.28C84.5767 71.7145 88.4079 66.8309 88.4079 61.5271C88.4079 56.2234 84.5767 51.3319 77.628 47.7664Z" fill="#88A6F5"/>
</g>
<g id="XMLID_4746_" opacity="0.4">
<path id="Vector_42" d="M77.628 47.7664C71.0538 44.401 62.3669 42.5459 53.1488 42.5459C43.9406 42.5459 35.2437 44.401 28.6795 47.7664C21.7208 51.3319 17.8896 56.2234 17.8896 61.5271C17.8896 66.8309 21.7208 71.7125 28.6795 75.28C35.2457 78.6533 43.9406 80.5104 53.1488 80.5104C62.3669 80.5104 71.0518 78.6553 77.628 75.28C84.5767 71.7145 88.4079 66.8309 88.4079 61.5271C88.4079 56.2234 84.5767 51.3319 77.628 47.7664Z" fill="black"/>
</g>
<g id="XMLID_4742_">
<path id="Vector_43" d="M89.5792 41.8324C79.8874 36.2354 66.9452 33.1455 53.1488 33.1455C39.3523 33.1455 26.42 36.2334 16.7282 41.8324C7.42886 47.1976 2.31738 54.184 2.31738 61.5292C2.31738 68.8624 7.42886 75.8588 16.7282 81.2259C26.42 86.8111 39.3503 89.899 53.1488 89.899C66.9472 89.899 79.8874 86.8111 89.5792 81.2259C98.8667 75.8588 103.99 68.8624 103.99 61.5292C103.99 54.184 98.8667 47.1976 89.5792 41.8324ZM77.628 75.28C71.0538 78.6534 62.3669 80.5104 53.1488 80.5104C43.9406 80.5104 35.2437 78.6553 28.6795 75.28C21.7208 71.7145 17.8897 66.8309 17.8897 61.5272C17.8897 56.2234 21.7208 51.332 28.6795 47.7664C35.2457 44.401 43.9406 42.5459 53.1488 42.5459C62.3669 42.5459 71.0518 44.401 77.628 47.7664C84.5767 51.332 88.4079 56.2234 88.4079 61.5272C88.4079 66.8309 84.5767 71.7145 77.628 75.28Z" fill="#88A6F5"/>
</g>
</g>
</g>
<g id="XMLID_4722_">
<g id="XMLID_4739_" opacity="0.2">
<path id="Vector_44" d="M76.7893 73.6527C89.8445 66.9536 89.8445 56.0905 76.7893 49.3915C63.7341 42.6924 42.5687 42.6924 29.5136 49.3915C16.4584 56.0905 16.4584 66.9536 29.5136 73.6527C42.5668 80.3517 63.7341 80.3517 76.7893 73.6527Z" fill="black"/>
</g>
<g id="XMLID_4738_">
<path id="Vector_45" d="M76.7893 73.6527C89.8445 66.9536 89.8445 56.0905 76.7893 49.3915C63.7341 42.6924 42.5687 42.6924 29.5136 49.3915C16.4584 56.0905 16.4584 66.9536 29.5136 73.6527C42.5668 80.3517 63.7341 80.3517 76.7893 73.6527Z" fill="#88A6F5"/>
</g>
<g id="XMLID_4737_" opacity="0.6">
<g id="Group_7">
<path id="Vector_46" d="M76.7893 73.6527C89.8445 66.9536 89.8445 56.0905 76.7893 49.3915C63.7341 42.6924 42.5687 42.6924 29.5136 49.3915C16.4584 56.0905 16.4584 66.9536 29.5136 73.6527C42.5668 80.3517 63.7341 80.3517 76.7893 73.6527Z" fill="black"/>
</g>
</g>
<g id="XMLID_4735_">
<path id="Vector_47" d="M76.7898 53.9361C63.7346 47.2371 42.5693 47.2371 29.5141 53.9361C24.1152 56.7069 20.9579 60.1892 20.0225 63.7944C20.956 67.3996 24.1152 70.8819 29.5141 73.6527C42.5693 80.3517 63.7346 80.3517 76.7898 73.6527C82.1887 70.8819 85.3479 67.3996 86.2814 63.7944C85.3479 60.1892 82.1867 56.7069 76.7898 53.9361Z" fill="#88A6F5"/>
</g>
<g id="XMLID_4724_" opacity="0.5">
<g id="Group_8">
<path id="Vector_48" d="M76.7898 53.9361C63.7346 47.2371 42.5693 47.2371 29.5141 53.9361C24.1152 56.7069 20.9579 60.1892 20.0225 63.7944C20.956 67.3996 24.1152 70.8819 29.5141 73.6527C42.5693 80.3517 63.7346 80.3517 76.7898 73.6527C82.1887 70.8819 85.3479 67.3996 86.2814 63.7944C85.3479 60.1892 82.1867 56.7069 76.7898 53.9361Z" fill="black"/>
</g>
</g>
</g>
<g id="XMLID_4698_">
<g id="XMLID_4719_">
<path id="Vector_49" d="M56.315 49.6533V54.5548L54.6422 56.3207L51.5464 59.5612V54.4616L56.315 49.6533Z" fill="#88A6F5"/>
</g>
<g id="XMLID_4717_" opacity="0.3">
<path id="Vector_50" d="M56.315 49.6533V54.5548L54.6422 56.3207L51.5464 59.5612V54.4616L56.315 49.6533Z" fill="black"/>
</g>
<g id="XMLID_4715_">
<path id="Vector_51" d="M51.5466 54.4558V57.3494C49.529 58.053 48.0068 58.5287 46.7879 58.7011C46.0268 58.7962 45.3609 58.7962 44.7504 58.6238C44.4076 58.5287 44.1043 58.3959 43.7793 58.2235C42.6 57.5199 42.4097 56.4714 44.6553 55.1772C47.0356 53.7898 49.4913 53.657 51.5466 54.4558Z" fill="#88A6F5"/>
</g>
<g id="XMLID_4712_" opacity="0.45">
<g id="Group_9">
<path id="Vector_52" d="M51.5466 54.4558V57.3494C49.529 58.053 48.0068 58.5287 46.7879 58.7011C46.0268 58.7962 45.3609 58.7962 44.7504 58.6238C44.4076 58.5287 44.1043 58.3959 43.7793 58.2235C42.6 57.5199 42.4097 56.4714 44.6553 55.1772C47.0356 53.7898 49.4913 53.657 51.5466 54.4558Z" fill="black"/>
</g>
</g>
<g id="XMLID_4711_">
<path id="Vector_53" d="M73.7364 68.3788V72.6103L68.3752 75.7042L64.4093 73.411C60.1976 75.2344 54.6997 76.2551 49.055 74.1027V69.8673L51.4929 67.4513L49.055 68.1232C45.21 69.0091 41.1827 69.1161 37.0959 66.7556C34.6918 65.3702 33.5759 63.852 33.5819 62.2903V58.1717L34.0159 56.3701L32.5532 55.5179V51.2825L36.5191 53.5756C34.5828 55.0759 33.5561 56.6219 33.5799 58.1222V58.1697C33.6235 59.6919 34.7492 61.1685 37.0939 62.5242C42.3084 65.5348 47.4754 64.5418 52.2064 63.0236C56.6083 61.5867 59.8131 59.9 62.35 61.3627C63.9237 62.2744 63.4461 63.3804 61.6782 64.4031C58.8558 66.0302 55.7937 65.5347 54.119 64.841L49.0511 69.8653C49.9885 70.226 50.926 70.4936 51.8516 70.6878C56.4894 71.659 60.8953 70.6958 64.4053 69.1776L68.3712 71.4707L73.7364 68.3788Z" fill="#88A6F5"/>
</g>
<g id="XMLID_4710_" opacity="0.35">
<g id="Group_10">
<path id="Vector_54" d="M33.5806 58.1222V58.1698C33.6242 59.6919 34.75 61.1685 37.0946 62.5242C42.3092 65.5348 47.4762 64.5418 52.2071 63.0236C56.609 61.5867 59.8139 59.9001 62.3508 61.3627C63.9245 62.2745 63.4468 63.3804 61.6789 64.4031C58.8566 66.0303 55.7945 65.5347 54.1197 64.841L49.0518 69.8653C49.9893 70.226 50.9268 70.4936 51.8523 70.6879C56.4901 71.659 60.896 70.6958 64.4061 69.1776L68.372 71.4707L73.7332 68.3769V72.6084L68.372 75.7022L64.4061 73.4091C60.1944 75.2325 54.6964 76.2532 49.0518 74.1008V69.8653L51.4896 67.4493L49.0518 68.1212C45.2068 69.0072 41.1795 69.1142 37.0927 66.7537C34.6885 65.3683 33.5727 63.8501 33.5786 62.2883L33.5806 58.1698L34.0127 56.3682" fill="black"/>
</g>
</g>
<g id="XMLID_4709_" opacity="0.45">
<g id="Group_11">
<path id="Vector_55" d="M32.5532 51.2825V55.5179L34.0159 56.3701L34.008 56.384C34.4777 55.4445 35.326 54.5031 36.5191 53.5776L32.5532 51.2825Z" fill="black"/>
</g>
</g>
<g id="XMLID_4707_">
<g id="XMLID_4708_">
<path id="Vector_56" d="M72.8496 65.6099C72.8496 66.3908 72.6969 67.0746 72.4492 67.6275L69.7656 66.0856C69.7656 66.0856 72.469 64.9817 72.8099 62.0127C72.8297 63.1741 72.8496 65.4969 72.8496 65.6099Z" fill="#88A6F5"/>
</g>
</g>
<g id="XMLID_4705_" opacity="0.3">
<g id="XMLID_4706_">
<path id="Vector_57" d="M72.8496 65.6099C72.8496 66.3908 72.6969 67.0746 72.4492 67.6275L69.7656 66.0856C69.7656 66.0856 72.469 64.9817 72.8099 62.0127C72.8297 63.1741 72.8496 65.4969 72.8496 65.6099Z" fill="black"/>
</g>
</g>
<g id="XMLID_4702_">
<g id="XMLID_4703_">
<path id="Vector_58" d="M72.8386 67.8635L69.7705 66.0837C69.7705 66.0837 72.8386 64.8212 72.8386 61.3805C72.8386 61.2339 72.8247 61.101 72.8128 60.9683C72.6801 59.5075 71.6039 58.0865 69.386 56.8101C69.386 56.7962 69.386 56.7962 69.386 56.7962C67.0216 55.4405 64.6055 54.9371 62.253 54.9371C62.0548 54.9371 61.8407 54.951 61.6425 54.951H61.5751C61.3631 54.9649 61.149 54.9768 60.9369 54.9907C60.7506 55.0045 60.5643 55.0164 60.378 55.0441C60.2987 55.058 60.2195 55.058 60.1521 55.0719C60.0054 55.0858 59.8607 55.0977 59.7279 55.1254C58.5328 55.286 57.3773 55.5516 56.2615 55.8429C55.7164 55.9896 55.1714 56.1481 54.6402 56.3205C53.8693 56.5604 53.1121 56.8121 52.3947 57.0519C52.1033 57.1589 51.8239 57.2501 51.5444 57.3432C49.5248 58.0468 48.0106 58.5383 46.7897 58.6989C46.0187 58.8059 45.3547 58.7921 44.7443 58.6196C44.4133 58.5265 44.0942 58.3937 43.789 58.2212C42.5939 57.5315 42.4076 56.4811 44.6531 55.1789C47.0434 53.7975 49.4871 53.6508 51.5464 54.4614L56.315 49.6532C51.7327 48.1647 46.8036 48.4185 41.9299 50.45L37.9581 48.1648L32.5513 51.2863L36.5231 53.5716C34.5828 55.0719 33.5482 56.6257 33.574 58.1281V58.1678C33.6275 59.6958 34.7433 61.1704 37.0939 62.5241C42.3144 65.5387 47.4814 64.5437 52.2104 63.0156C56.6083 61.5807 59.8092 59.894 62.3461 61.3548C63.9277 62.2704 63.4481 63.3743 61.6821 64.397C58.8658 66.0301 55.7977 65.5386 54.1249 64.835L49.0511 69.8692C49.9945 70.228 50.9379 70.4936 51.8536 70.6918C53.5244 71.0406 55.1655 71.1377 56.7451 71.0505C59.5496 70.892 62.1638 70.1467 64.4054 69.1775L68.3772 71.4746L73.7305 68.3808L72.8386 67.8635Z" fill="#88A6F5"/>
</g>
</g>
<g id="XMLID_4700_">
<path id="Vector_59" d="M64.4077 69.1777V73.4112L68.3776 75.7023V71.4708L64.4077 69.1777Z" fill="#88A6F5"/>
</g>
<g id="XMLID_4699_" opacity="0.45">
<g id="Group_12">
<path id="Vector_60" d="M64.4077 69.1777V73.4112L68.3776 75.7023V71.4708L64.4077 69.1777Z" fill="black"/>
</g>
</g>
</g>
<g id="XMLID_4662_">
<g id="XMLID_4697_">
<path id="Vector_61" d="M32.5532 51.2863L37.958 48.1648L41.9299 50.45L37.9937 48.803L32.5532 51.2863Z" fill="#F5F5F5"/>
</g>
<g id="XMLID_4696_">
<path id="Vector_62" d="M44.6543 55.179C47.0445 53.7976 49.4883 53.6509 51.5476 54.4616L56.3162 49.6533L51.5476 53.9661C51.5476 53.9661 47.7442 52.5133 44.6543 55.179Z" fill="#F5F5F5"/>
</g>
<g id="XMLID_4695_">
<path id="Vector_63" d="M49.0522 69.8692C49.9957 70.2279 50.9391 70.4935 51.8547 70.6917C53.5255 71.0406 55.1666 71.1377 56.7462 71.0505C56.7462 71.0505 52.9309 71.1515 49.853 69.671L54.1261 64.833L49.0522 69.8692Z" fill="#F5F5F5"/>
</g>
<g id="XMLID_4694_">
<path id="Vector_64" d="M64.4087 69.1774L68.3786 70.9691L73.7318 68.3806L68.3786 71.4705L64.4087 69.1774Z" fill="#F5F5F5"/>
</g>
<g id="XMLID_4693_">
<path id="Vector_65" d="M17.1345 42.5439C31.2065 33.9957 53.1488 33.1455 53.1488 33.1455C39.3503 33.1455 26.42 36.2334 16.7282 41.8324C7.42886 47.1976 2.31738 54.184 2.31738 61.5292C2.31738 61.5292 2.8208 51.2388 17.1345 42.5439Z" fill="#F5F5F5"/>
</g>
<g id="XMLID_4690_">
<path id="Vector_66" d="M49.0498 92.1206C63.9839 92.7846 79.3124 89.8176 90.7344 83.2236C102.612 76.366 107.694 67.0686 105.978 58.126C105.978 58.126 108.196 72.7014 89.8386 82.6766C71.4777 92.6518 49.0498 92.1206 49.0498 92.1206Z" fill="#F5F5F5"/>
</g>
</g>
</g>
<g id="XMLID_4444_">
<g id="XMLID_4558_">
<g id="XMLID_4564_">
<path id="Vector_67" d="M111.033 46.6581C108.49 42.3691 104.262 38.3398 98.3363 34.9169C77.5792 22.932 43.9255 22.932 23.1704 34.9169C17.2443 38.3398 13.0168 42.3691 10.4739 46.6581H7.60205V57.5173H7.63971C8.02223 65.0666 13.1892 72.5504 23.1704 78.314C43.9275 90.2989 77.5812 90.2989 98.3363 78.314C108.317 72.5504 113.522 65.0666 113.905 57.5173V46.6581H111.033Z" fill="#88A6F5"/>
</g>
</g>
<g id="XMLID_4556_" opacity="0.25">
<g id="XMLID_4557_">
<path id="Vector_68" d="M111.033 46.6581C108.49 42.3691 104.262 38.3398 98.3363 34.9169C77.5792 22.932 43.9255 22.932 23.1704 34.9169C17.2443 38.3398 13.0168 42.3691 10.4739 46.6581H7.60205V57.5173H7.63971C8.02223 65.0666 13.1892 72.5504 23.1704 78.314C43.9275 90.2989 77.5812 90.2989 98.3363 78.314C108.317 72.5504 113.522 65.0666 113.905 57.5173V46.6581H111.033Z" fill="black"/>
</g>
</g>
<g id="XMLID_4555_" opacity="0.1">
<path id="Vector_69" d="M60.7563 25.9287C47.1521 25.9287 33.5499 28.9235 23.1704 34.9169C17.2443 38.3398 13.0148 42.3691 10.4739 46.6581H7.60205V57.5173H7.63971C8.02222 65.0666 13.1892 72.5504 23.1704 78.314C33.5499 84.3054 47.1541 87.3022 60.7563 87.3022V25.9287Z" fill="black"/>
</g>
<g id="XMLID_4554_" opacity="0.1">
<path id="Vector_70" d="M31.7245 30.9119C28.7 32.0535 25.8262 33.3834 23.1704 34.9174C17.2443 38.3403 13.0148 42.3696 10.4739 46.6586H7.60205V57.5177H7.63971C8.02222 65.067 13.1892 72.5509 23.1704 78.3144C25.8262 79.8485 28.7 81.1804 31.7245 82.32V30.9119Z" fill="black"/>
</g>
<g id="XMLID_4553_" opacity="0.5">
<path id="Vector_71" d="M89.7832 30.9119C92.8077 32.0535 95.6815 33.3834 98.3374 34.9174C104.265 38.3403 108.491 42.3696 111.034 46.6586H113.906V57.5177C113.523 65.069 108.319 72.5529 98.3374 78.3144C95.6815 79.8485 92.8077 81.1804 89.7832 82.32V30.9119Z" fill="#88A6F5"/>
</g>
<g id="XMLID_4538_">
<g id="XMLID_4547_">
<path id="Vector_72" d="M98.3368 24.9638C77.5797 12.9808 43.926 12.9808 23.1708 24.9638C2.41375 36.9487 2.41375 56.3779 23.1708 68.3608C43.9279 80.3457 77.5817 80.3457 98.3368 68.3608C119.094 56.3779 119.094 36.9487 98.3368 24.9638Z" fill="#88A6F5"/>
</g>
<g id="XMLID_4545_" opacity="0.2">
<path id="Vector_73" d="M98.3368 24.9638C77.5797 12.9808 43.926 12.9808 23.1708 24.9638C2.41375 36.9487 2.41375 56.3779 23.1708 68.3608C43.9279 80.3457 77.5817 80.3457 98.3368 68.3608C119.094 56.3779 119.094 36.9487 98.3368 24.9638Z" fill="black"/>
</g>
<g id="XMLID_4539_">
<g id="XMLID_4544_">
<path id="Vector_74" d="M85.2305 32.9056C78.6563 29.5402 69.9694 27.6851 60.7513 27.6851C51.5431 27.6851 42.8462 29.5422 36.282 32.9056C29.3233 36.4711 25.4922 41.3646 25.4922 46.6683C25.4922 51.972 29.3233 56.8536 36.282 60.4211C42.8482 63.7944 51.5431 65.6515 60.7513 65.6515C69.9674 65.6515 78.6544 63.7944 85.2305 60.4211C92.1793 56.8556 96.0104 51.972 96.0104 46.6683C96.0104 41.3626 92.1793 36.4711 85.2305 32.9056Z" fill="#88A6F5"/>
</g>
<g id="XMLID_4543_" opacity="0.4">
<path id="Vector_75" d="M85.2305 32.9056C78.6563 29.5402 69.9694 27.6851 60.7513 27.6851C51.5431 27.6851 42.8462 29.5422 36.282 32.9056C29.3233 36.4711 25.4922 41.3646 25.4922 46.6683C25.4922 51.972 29.3233 56.8536 36.282 60.4211C42.8482 63.7944 51.5431 65.6515 60.7513 65.6515C69.9674 65.6515 78.6544 63.7944 85.2305 60.4211C92.1793 56.8556 96.0104 51.972 96.0104 46.6683C96.0104 41.3626 92.1793 36.4711 85.2305 32.9056Z" fill="black"/>
</g>
<g id="XMLID_4540_">
<path id="Vector_76" d="M97.1813 26.9716C87.4895 21.3745 74.5473 18.2866 60.7508 18.2866C46.9524 18.2866 34.0221 21.3745 24.3303 26.9716C15.0309 32.3387 9.91943 39.3232 9.91943 46.6683C9.91943 54.0016 15.0309 60.9979 24.3303 66.3651C34.0221 71.9522 46.9524 75.0381 60.7508 75.0381C74.5473 75.0381 87.4895 71.9502 97.1813 66.3651C106.469 60.9979 111.592 54.0016 111.592 46.6683C111.592 39.3232 106.469 32.3367 97.1813 26.9716ZM85.23 60.4192C78.6559 63.7925 69.9689 65.6496 60.7508 65.6496C51.5426 65.6496 42.8458 63.7925 36.2815 60.4192C29.3228 56.8536 25.4917 51.9701 25.4917 46.6663C25.4917 41.3626 29.3228 36.4711 36.2815 32.9036C42.8478 29.5382 51.5426 27.6831 60.7508 27.6831C69.9669 27.6831 78.6539 29.5402 85.23 32.9036C92.1788 36.4691 96.0099 41.3626 96.0099 46.6663C96.0099 51.9701 92.1788 56.8536 85.23 60.4192Z" fill="#88A6F5"/>
</g>
</g>
</g>
<g id="XMLID_4510_">
<g id="XMLID_4536_" opacity="0.2">
<path id="Vector_77" d="M84.3923 58.7919C97.4475 52.0928 97.4475 41.2297 84.3923 34.5306C71.3371 27.8316 50.1698 27.8316 37.1166 34.5306C24.0614 41.2297 24.0614 52.0928 37.1166 58.7919C50.1718 65.4909 71.3371 65.4909 84.3923 58.7919Z" fill="black"/>
</g>
<g id="XMLID_4535_">
<path id="Vector_78" d="M84.3923 58.7919C97.4475 52.0928 97.4475 41.2297 84.3923 34.5306C71.3371 27.8316 50.1698 27.8316 37.1166 34.5306C24.0614 41.2297 24.0614 52.0928 37.1166 58.7919C50.1718 65.4909 71.3371 65.4909 84.3923 58.7919Z" fill="#88A6F5"/>
</g>
<g id="XMLID_4532_" opacity="0.6">
<g id="Group_13">
<path id="Vector_79" d="M84.3923 58.7919C97.4475 52.0928 97.4475 41.2297 84.3923 34.5306C71.3371 27.8316 50.1698 27.8316 37.1166 34.5306C24.0614 41.2297 24.0614 52.0928 37.1166 58.7919C50.1718 65.4909 71.3371 65.4909 84.3923 58.7919Z" fill="black"/>
</g>
</g>
<g id="XMLID_4531_">
<path id="Vector_80" d="M84.3919 39.0753C71.3367 32.3763 50.1693 32.3763 37.1161 39.0753C31.7173 41.8461 28.56 45.3284 27.6245 48.9336C28.558 52.5388 31.7173 56.0211 37.1161 58.7919C50.1713 65.4909 71.3367 65.4909 84.3919 58.7919C89.7907 56.0211 92.95 52.5388 93.8835 48.9336C92.95 45.3284 89.7907 41.8461 84.3919 39.0753Z" fill="#88A6F5"/>
</g>
<g id="XMLID_4515_" opacity="0.5">
<g id="Group_14">
<path id="Vector_81" d="M84.3919 39.0753C71.3367 32.3763 50.1693 32.3763 37.1161 39.0753C31.7173 41.8461 28.56 45.3284 27.6245 48.9336C28.558 52.5388 31.7173 56.0211 37.1161 58.7919C50.1713 65.4909 71.3367 65.4909 84.3919 58.7919C89.7907 56.0211 92.95 52.5388 93.8835 48.9336C92.95 45.3284 89.7907 41.8461 84.3919 39.0753Z" fill="black"/>
</g>
</g>
</g>
<g id="XMLID_4472_">
<g id="XMLID_4495_">
<path id="Vector_82" d="M63.9195 34.7925V39.6939L62.2447 41.4598L59.1509 44.7023V39.6007L63.9195 34.7925Z" fill="#88A6F5"/>
</g>
<g id="XMLID_4493_" opacity="0.3">
<path id="Vector_83" d="M63.9195 34.7925V39.6939L62.2447 41.4598L59.1509 44.7023V39.6007L63.9195 34.7925Z" fill="black"/>
</g>
<g id="XMLID_4492_">
<path id="Vector_84" d="M59.1511 39.5948V42.4884C57.1334 43.192 55.6113 43.6677 54.3924 43.8402C53.6313 43.9353 52.9654 43.9353 52.3549 43.7649C52.0121 43.6697 51.7088 43.5369 51.3838 43.3644C50.2045 42.6609 50.0142 41.6124 52.2598 40.3182C54.6401 38.9288 57.0938 38.7961 59.1511 39.5948Z" fill="#88A6F5"/>
</g>
<g id="XMLID_4491_" opacity="0.45">
<g id="Group_15">
<path id="Vector_85" d="M59.1511 39.5948V42.4884C57.1334 43.192 55.6113 43.6677 54.3924 43.8402C53.6313 43.9353 52.9654 43.9353 52.3549 43.7649C52.0121 43.6697 51.7088 43.5369 51.3838 43.3644C50.2045 42.6609 50.0142 41.6124 52.2598 40.3182C54.6401 38.9288 57.0938 38.7961 59.1511 39.5948Z" fill="black"/>
</g>
</g>
<g id="XMLID_4490_">
<path id="Vector_86" d="M81.3394 53.518V57.7495L75.9802 60.8433L72.0143 58.5502C67.8026 60.3736 62.3047 61.3943 56.66 59.2439V55.0084L59.0978 52.5924L56.66 53.2643C52.815 54.1503 48.7877 54.2573 44.7009 51.8968C42.2967 50.5114 41.1809 48.9932 41.1868 47.4314V43.3129L41.6209 41.5113L40.1582 40.659V36.4236L44.1241 38.7167C42.1877 40.217 41.1591 41.763 41.1849 43.2633V43.3109C41.2285 44.8331 42.3542 46.3096 44.6989 47.6653C49.9134 50.6759 55.0804 49.6829 59.8113 48.1648C64.2133 46.7278 67.4181 45.0412 69.955 46.5038C71.5307 47.4155 71.053 48.5215 69.2831 49.5462C66.4608 51.1714 63.3987 50.6779 61.7239 49.9842L56.6561 55.0084C57.5935 55.3691 58.531 55.6367 59.4566 55.8309C64.0944 56.8041 68.5003 55.8389 72.0103 54.3207L75.9762 56.6138L81.3394 53.518Z" fill="#88A6F5"/>
</g>
<g id="XMLID_4489_" opacity="0.35">
<g id="Group_16">
<path id="Vector_87" d="M41.1846 43.2615V43.3091C41.2282 44.8313 42.354 46.3078 44.6986 47.6635C49.9132 50.6741 55.0802 49.6812 59.8111 48.163C64.213 46.7261 67.4179 45.0394 69.9548 46.5021C71.5304 47.4138 71.0528 48.5197 69.2829 49.5444C66.4606 51.1696 63.3985 50.6761 61.7237 49.9824L56.6558 55.0067C57.5933 55.3674 58.5308 55.6349 59.4563 55.8292C64.0941 56.8023 68.5 55.8371 72.0101 54.3189L75.976 56.6121L81.3352 53.5182V57.7497L75.976 60.8435L72.0101 58.5504C67.7984 60.3738 62.3004 61.3946 56.6558 59.2441V55.0067L59.0936 52.5926L56.6558 53.2646C52.8108 54.1505 48.7835 54.2575 44.6967 51.897C42.2925 50.5116 41.1767 48.9934 41.1826 47.4316V43.3131L41.6167 41.5115" fill="black"/>
</g>
</g>
<g id="XMLID_4487_" opacity="0.45">
<g id="Group_17">
<path id="Vector_88" d="M40.1562 36.4216V40.6571L41.6189 41.5074L41.611 41.5212C42.0807 40.5818 42.929 39.6404 44.1222 38.7148L40.1562 36.4216Z" fill="black"/>
</g>
</g>
<g id="XMLID_4485_">
<g id="XMLID_4486_">
<path id="Vector_89" d="M80.4516 50.7491C80.4516 51.53 80.299 52.2158 80.0513 52.7668L77.3677 51.2248C77.3677 51.2248 80.0711 50.1208 80.412 47.1519C80.4318 48.3133 80.4516 50.6361 80.4516 50.7491Z" fill="#88A6F5"/>
</g>
</g>
<g id="XMLID_4482_" opacity="0.3">
<g id="XMLID_4484_">
<path id="Vector_90" d="M80.4516 50.7491C80.4516 51.53 80.299 52.2158 80.0513 52.7668L77.3677 51.2248C77.3677 51.2248 80.0711 50.1208 80.412 47.1519C80.4318 48.3133 80.4516 50.6361 80.4516 50.7491Z" fill="black"/>
</g>
</g>
<g id="XMLID_4479_">
<g id="XMLID_4480_">
<path id="Vector_91" d="M80.4436 53.0026L77.3756 51.2228C77.3756 51.2228 80.4436 49.9603 80.4436 46.5216C80.4436 46.3749 80.4298 46.2421 80.4159 46.1093C80.2831 44.6486 79.2069 43.2276 76.9891 41.9512C76.9891 41.9373 76.9891 41.9373 76.9891 41.9373C74.6246 40.5816 72.2066 40.0782 69.856 40.0782C69.6558 40.0782 69.4437 40.0921 69.2455 40.0921H69.1782C68.9661 40.1059 68.752 40.1179 68.54 40.1317C68.3537 40.1456 68.1674 40.1575 67.983 40.1853C67.9038 40.1991 67.8225 40.1991 67.7571 40.213C67.6104 40.2268 67.4657 40.2388 67.3329 40.2665C66.1378 40.4251 64.9823 40.6906 63.8665 40.984C63.3215 41.1306 62.7784 41.2892 62.2452 41.4616C61.4743 41.7014 60.7172 41.9532 59.9997 42.193C59.7083 42.3 59.4289 42.3931 59.1494 42.4863C57.1298 43.1899 55.6156 43.6815 54.3947 43.842C53.6237 43.949 52.9598 43.9351 52.3493 43.7627C52.0163 43.6695 51.6992 43.5367 51.392 43.3643C50.1969 42.6726 50.0106 41.6242 52.2562 40.322C54.6464 38.9406 57.0921 38.7939 59.1494 39.6046L63.918 34.7963C59.3357 33.3078 54.4066 33.5615 49.5329 35.593L45.5611 33.3079L40.1543 36.4294L44.1262 38.7146C42.1858 40.215 41.1512 41.7688 41.177 43.2711V43.3108C41.2305 44.8389 42.3463 46.3135 44.697 47.6672C49.9174 50.6817 55.0844 49.6848 59.8134 48.1587C64.2094 46.7237 67.4102 45.0371 69.9472 46.4978C71.5288 47.4135 71.0491 48.5174 69.2832 49.5401C66.4668 51.1733 63.3988 50.6817 61.726 49.9781L56.6522 55.0123C57.5956 55.371 58.539 55.6366 59.4547 55.8348C61.1254 56.1837 62.7665 56.2808 64.3461 56.1936C67.1506 56.035 69.7628 55.2898 72.0064 54.3206L75.9783 56.6177L81.3315 53.5238L80.4436 53.0026Z" fill="#88A6F5"/>
</g>
</g>
<g id="XMLID_4478_">
<path id="Vector_92" d="M72.0098 54.3186V58.5481L75.9796 60.8413V56.6098L72.0098 54.3186Z" fill="#88A6F5"/>
</g>
<g id="XMLID_4477_" opacity="0.45">
<g id="Group_18">
<path id="Vector_93" d="M72.0098 54.3186V58.5481L75.9796 60.8413V56.6098L72.0098 54.3186Z" fill="black"/>
</g>
</g>
</g>
<g id="XMLID_4445_">
<g id="XMLID_4468_">
<path id="Vector_94" d="M40.1562 36.4256L45.563 33.304L49.5349 35.5892L45.5967 33.9421L40.1562 36.4256Z" fill="#F5F5F5"/>
</g>
<g id="XMLID_4467_">
<path id="Vector_95" d="M52.2563 40.3182C54.6466 38.9368 57.0923 38.7901 59.1496 39.6007L63.9182 34.7925L59.1496 39.1052C59.1496 39.1052 55.3462 37.6524 52.2563 40.3182Z" fill="#F5F5F5"/>
</g>
<g id="XMLID_4458_">
<path id="Vector_96" d="M56.6523 55.0083C57.5958 55.367 58.5392 55.6326 59.4548 55.8308C61.1256 56.1797 62.7667 56.2768 64.3463 56.1896C64.3463 56.1896 60.531 56.2907 57.4531 54.8102L61.7262 49.9722L56.6523 55.0083Z" fill="#F5F5F5"/>
</g>
<g id="XMLID_4455_">
<path id="Vector_97" d="M72.0107 54.3185L75.9806 56.1082L81.3339 53.5217L75.9806 56.6097L72.0107 54.3185Z" fill="#F5F5F5"/>
</g>
<g id="XMLID_4449_">
<path id="Vector_98" d="M24.7366 27.6829C38.8085 19.1347 60.7508 18.2844 60.7508 18.2844C46.9524 18.2844 34.0221 21.3724 24.3303 26.9694C15.0309 32.3366 9.91943 39.321 9.91943 46.6661C9.91943 46.6661 10.4229 36.3797 24.7366 27.6829Z" fill="#F5F5F5"/>
</g>
<g id="XMLID_4448_">
<path id="Vector_99" d="M56.6523 77.2595C71.5864 77.9235 86.9149 74.9565 98.337 68.3625C110.215 61.5049 115.297 52.2075 113.58 43.2649C113.58 43.2649 115.798 57.8402 97.4391 67.8154C79.0802 77.7907 56.6523 77.2595 56.6523 77.2595Z" fill="#F5F5F5"/>
</g>
</g>
</g>
<g id="XMLID_4074_">
<g id="XMLID_4440_">
<g id="XMLID_4441_">
<path id="Vector_100" d="M105.843 31.6251C103.3 27.3361 99.0749 23.3068 93.1468 19.8839C72.3897 7.90099 38.738 7.90099 17.9809 19.8839C12.0548 23.3068 7.82732 27.3361 5.28446 31.6251H2.4126V42.4842H2.45026C2.83277 50.0335 7.99975 57.5174 17.9809 63.281C38.738 75.2639 72.3917 75.2639 93.1468 63.281C103.128 57.5174 108.333 50.0335 108.715 42.4842V31.6251H105.843Z" fill="#88A6F5"/>
</g>
</g>
<g id="XMLID_4436_" opacity="0.25">
<g id="XMLID_4437_">
<path id="Vector_101" d="M105.843 31.6251C103.3 27.3361 99.0749 23.3068 93.1468 19.8839C72.3897 7.90099 38.738 7.90099 17.9809 19.8839C12.0548 23.3068 7.82732 27.3361 5.28446 31.6251H2.4126V42.4842H2.45026C2.83277 50.0335 7.99975 57.5174 17.9809 63.281C38.738 75.2639 72.3917 75.2639 93.1468 63.281C103.128 57.5174 108.333 50.0335 108.715 42.4842V31.6251H105.843Z" fill="black"/>
</g>
</g>
<g id="XMLID_4431_" opacity="0.1">
<path id="Vector_102" d="M55.5668 10.8958C41.9627 10.8958 28.3604 13.8905 17.9809 19.884C12.0548 23.3068 7.82732 27.3362 5.28446 31.6251H2.4126V42.4842H2.45026C2.83277 50.0355 7.99975 57.5194 17.9809 63.281C28.3604 69.2725 41.9646 72.2692 55.5668 72.2692V10.8958Z" fill="black"/>
</g>
<g id="XMLID_4429_" opacity="0.1">
<path id="Vector_103" d="M26.5351 15.8787C23.5106 17.0203 20.6367 18.3502 17.9809 19.8842C12.0548 23.307 7.82732 27.3364 5.28446 31.6254H2.4126V42.4845H2.45026C2.83277 50.0358 7.99975 57.5197 17.9809 63.2812C20.6367 64.8153 23.5106 66.1452 26.5351 67.2868V15.8787Z" fill="black"/>
</g>
<g id="XMLID_4425_" opacity="0.5">
<path id="Vector_104" d="M84.5933 15.8787C87.6177 17.0203 90.4916 18.3502 93.1474 19.8842C99.0755 23.307 103.301 27.3364 105.844 31.6254H108.716V42.4845C108.333 50.0338 103.129 57.5197 93.1474 63.2812C90.4896 64.8153 87.6177 66.1452 84.5933 67.2868V15.8787Z" fill="#88A6F5"/>
</g>
<g id="XMLID_4243_">
<g id="XMLID_4346_">
<path id="Vector_105" d="M93.1473 9.93059C72.3902 -2.05434 38.7385 -2.05434 17.9814 9.93059C-2.7757 21.9135 -2.7757 41.3447 17.9814 53.3276C38.7385 65.3126 72.3922 65.3126 93.1473 53.3276C113.904 41.3447 113.904 21.9155 93.1473 9.93059Z" fill="#88A6F5"/>
</g>
<g id="XMLID_4344_" opacity="0.2">
<path id="Vector_106" d="M93.1473 9.93059C72.3902 -2.05434 38.7385 -2.05434 17.9814 9.93059C-2.7757 21.9135 -2.7757 41.3447 17.9814 53.3276C38.7385 65.3126 72.3922 65.3126 93.1473 53.3276C113.904 41.3447 113.904 21.9155 93.1473 9.93059Z" fill="black"/>
</g>
<g id="XMLID_4253_">
<g id="XMLID_4343_">
<path id="Vector_107" d="M80.0406 17.8723C73.4664 14.507 64.7795 12.6519 55.5614 12.6519C46.3532 12.6519 37.6563 14.509 31.0921 17.8723C24.1334 21.4379 20.3022 26.3314 20.3022 31.6332C20.3022 36.9369 24.1334 41.8204 31.0921 45.386C37.6583 48.7613 46.3532 50.6164 55.5614 50.6164C64.7795 50.6164 73.4644 48.7613 80.0406 45.386C86.9893 41.8204 90.8225 36.9369 90.8225 31.6332C90.8205 26.3294 86.9893 21.4379 80.0406 17.8723Z" fill="#88A6F5"/>
</g>
<g id="XMLID_4342_" opacity="0.4">
<path id="Vector_108" d="M80.0406 17.8723C73.4664 14.507 64.7795 12.6519 55.5614 12.6519C46.3532 12.6519 37.6563 14.509 31.0921 17.8723C24.1334 21.4379 20.3022 26.3314 20.3022 31.6332C20.3022 36.9369 24.1334 41.8204 31.0921 45.386C37.6583 48.7613 46.3532 50.6164 55.5614 50.6164C64.7795 50.6164 73.4644 48.7613 80.0406 45.386C86.9893 41.8204 90.8225 36.9369 90.8225 31.6332C90.8205 26.3294 86.9893 21.4379 80.0406 17.8723Z" fill="black"/>
</g>
<g id="XMLID_4339_">
<path id="Vector_109" d="M91.9913 11.9384C82.2995 6.34129 69.3573 3.25342 55.5609 3.25342C41.7625 3.25342 28.8321 6.34129 19.1403 11.9384C9.84097 17.3035 4.72949 24.29 4.72949 31.6331C4.72949 38.9664 9.84097 45.9627 19.1403 51.3299C28.8321 56.915 41.7625 60.0029 55.5609 60.0029C69.3593 60.0029 82.2995 56.915 91.9913 51.3299C101.279 45.9627 106.402 38.9664 106.402 31.6331C106.402 24.29 101.279 17.3035 91.9913 11.9384ZM80.0401 45.386C73.4659 48.7612 64.779 50.6164 55.5609 50.6164C46.3527 50.6164 37.6558 48.7612 31.0916 45.386C24.1329 41.8204 20.3018 36.9369 20.3018 31.6331C20.3018 26.3294 24.1329 21.4379 31.0916 17.8723C37.6578 14.507 46.3527 12.6518 55.5609 12.6518C64.779 12.6518 73.4639 14.5089 80.0401 17.8723C86.9889 21.4379 90.822 26.3314 90.822 31.6331C90.82 36.9369 86.9889 41.8204 80.0401 45.386Z" fill="#88A6F5"/>
</g>
</g>
</g>
<g id="XMLID_4193_">
<g id="XMLID_4232_" opacity="0.2">
<path id="Vector_110" d="M79.2024 43.7584C92.2576 37.0593 92.2576 26.1962 79.2024 19.4972C66.1472 12.7981 44.9818 12.7981 31.9266 19.4972C18.8715 26.1962 18.8715 37.0593 31.9266 43.7584C44.9818 50.4574 66.1472 50.4574 79.2024 43.7584Z" fill="black"/>
</g>
<g id="XMLID_4202_">
<path id="Vector_111" d="M79.2024 43.7584C92.2576 37.0593 92.2576 26.1962 79.2024 19.4972C66.1472 12.7981 44.9818 12.7981 31.9266 19.4972C18.8715 26.1962 18.8715 37.0593 31.9266 43.7584C44.9818 50.4574 66.1472 50.4574 79.2024 43.7584Z" fill="#88A6F5"/>
</g>
<g id="XMLID_4198_" opacity="0.6">
<g id="Group_19">
<path id="Vector_112" d="M79.2024 43.7584C92.2576 37.0593 92.2576 26.1962 79.2024 19.4972C66.1472 12.7981 44.9818 12.7981 31.9266 19.4972C18.8715 26.1962 18.8715 37.0593 31.9266 43.7584C44.9818 50.4574 66.1472 50.4574 79.2024 43.7584Z" fill="black"/>
</g>
</g>
<g id="XMLID_4195_">
<path id="Vector_113" d="M79.2024 24.0419C66.1472 17.3428 44.9819 17.3428 31.9267 24.0419C26.5278 26.8126 23.3705 30.2949 22.4351 33.9001C23.3686 37.5053 26.5278 40.9876 31.9267 43.7584C44.9819 50.4574 66.1472 50.4574 79.2024 43.7584C84.6013 40.9876 87.7605 37.5053 88.694 33.9001C87.7605 30.2949 84.6013 26.8126 79.2024 24.0419Z" fill="#88A6F5"/>
</g>
<g id="XMLID_4194_" opacity="0.5">
<g id="Group_20">
<path id="Vector_114" d="M79.2024 24.0419C66.1472 17.3428 44.9819 17.3428 31.9267 24.0419C26.5278 26.8126 23.3705 30.2949 22.4351 33.9001C23.3686 37.5053 26.5278 40.9876 31.9267 43.7584C44.9819 50.4574 66.1472 50.4574 79.2024 43.7584C84.6013 40.9876 87.7605 37.5053 88.694 33.9001C87.7605 30.2949 84.6013 26.8126 79.2024 24.0419Z" fill="black"/>
</g>
</g>
</g>
<g id="XMLID_4096_">
<g id="XMLID_4192_">
<path id="Vector_115" d="M58.7295 19.759V24.6604L57.0548 26.4263L53.9609 29.6668V24.5673L58.7295 19.759Z" fill="#88A6F5"/>
</g>
<g id="XMLID_4191_" opacity="0.3">
<path id="Vector_116" d="M58.7295 19.759V24.6604L57.0548 26.4263L53.9609 29.6668V24.5673L58.7295 19.759Z" fill="black"/>
</g>
<g id="XMLID_4190_">
<path id="Vector_117" d="M53.9611 24.5615V27.4552C51.9435 28.1588 50.4214 28.6364 49.2025 28.8068C48.4414 28.902 47.7754 28.902 47.165 28.7296C46.8221 28.6345 46.5189 28.5016 46.1938 28.3292C45.0146 27.6256 44.8243 26.5771 47.0699 25.2829C49.4502 23.8956 51.9058 23.7627 53.9611 24.5615Z" fill="#88A6F5"/>
</g>
<g id="XMLID_4189_" opacity="0.45">
<g id="Group_21">
<path id="Vector_118" d="M53.9611 24.5615V27.4552C51.9435 28.1588 50.4214 28.6364 49.2025 28.8068C48.4414 28.902 47.7754 28.902 47.165 28.7296C46.8221 28.6345 46.5189 28.5016 46.1938 28.3292C45.0146 27.6256 44.8243 26.5771 47.0699 25.2829C49.4502 23.8956 51.9058 23.7627 53.9611 24.5615Z" fill="black"/>
</g>
</g>
<g id="XMLID_4187_">
<path id="Vector_119" d="M76.1495 38.4846V42.7161L70.7883 45.8079L66.8224 43.5148C62.6107 45.3382 57.1128 46.3589 51.4681 44.2065V39.9711L53.904 37.555L51.4681 38.2269C47.6231 39.1129 43.5958 39.2199 39.509 36.8594C37.1048 35.474 35.989 33.9558 35.9949 32.394V28.2755L36.429 26.4739L34.9663 25.6236V21.3882L38.9322 23.6813C36.9958 25.1836 35.9692 26.7276 35.993 28.2279L35.9949 28.2755C36.0385 29.7977 37.1623 31.2742 39.507 32.6299C44.7215 35.6405 49.8885 34.6475 54.6194 33.1293C59.0214 31.6924 62.2262 30.0058 64.7631 31.4684C66.3368 32.3801 65.8592 33.4861 64.0912 34.5108C61.2689 36.136 58.2068 35.6424 56.532 34.9487L51.4642 39.973C52.4016 40.3337 53.3391 40.6013 54.2647 40.7955C58.9025 41.7687 63.3084 40.8035 66.8184 39.2853L70.7843 41.5784L76.1495 38.4846Z" fill="#88A6F5"/>
</g>
<g id="XMLID_4176_" opacity="0.35">
<g id="Group_22">
<path id="Vector_120" d="M35.9952 28.2281V28.2757C36.0388 29.7979 37.1645 31.2744 39.5092 32.6301C44.7237 35.6407 49.8907 34.6477 54.6216 33.1295C59.0236 31.6926 62.2284 30.006 64.7653 31.4686C66.339 32.3803 65.8614 33.4863 64.0935 34.511C61.2711 36.1362 58.209 35.6426 56.5342 34.9489L51.4664 39.9732C52.4038 40.3339 53.3413 40.6015 54.2669 40.7957C58.9047 41.7689 63.3106 40.8037 66.8206 39.2855L70.7865 41.5786L76.1477 38.4848V42.7163L70.7865 45.8081L66.8206 43.515C62.609 45.3384 57.111 46.3591 51.4664 44.2067V39.9732L53.9022 37.5552L51.4664 38.2271C47.6214 39.1131 43.594 39.2201 39.5072 36.8596C37.1031 35.4742 35.9872 33.956 35.9932 32.3942L35.9952 28.2757L36.4272 26.4741" fill="black"/>
</g>
</g>
<g id="XMLID_4168_" opacity="0.45">
<g id="Group_23">
<path id="Vector_121" d="M34.9663 21.3882V25.6236L36.429 26.4759L36.4211 26.4898C36.8908 25.5503 37.7391 24.6089 38.9322 23.6833L34.9663 21.3882Z" fill="black"/>
</g>
</g>
<g id="XMLID_4165_">
<g id="XMLID_4166_">
<path id="Vector_122" d="M75.2617 35.7157C75.2617 36.4966 75.1091 37.1804 74.8613 37.7333L72.1777 36.1913C72.1777 36.1913 74.8811 35.0874 75.222 32.1184C75.2418 33.2798 75.2617 35.6027 75.2617 35.7157Z" fill="#88A6F5"/>
</g>
</g>
<g id="XMLID_4155_" opacity="0.3">
<g id="XMLID_4156_">
<path id="Vector_123" d="M75.2617 35.7157C75.2617 36.4966 75.1091 37.1804 74.8613 37.7333L72.1777 36.1913C72.1777 36.1913 74.8811 35.0874 75.222 32.1184C75.2418 33.2798 75.2617 35.6027 75.2617 35.7157Z" fill="black"/>
</g>
</g>
<g id="XMLID_4100_">
<g id="XMLID_4152_">
<path id="Vector_124" d="M75.2537 37.9694L72.1856 36.1896C72.1856 36.1896 75.2537 34.9271 75.2537 31.4884C75.2537 31.3418 75.2398 31.209 75.2279 31.0762C75.0951 29.6155 74.0189 28.1944 71.8011 26.918C71.8011 26.9041 71.8011 26.9041 71.8011 26.9041C69.4366 25.5484 67.0186 25.0451 64.668 25.0451C64.4678 25.0451 64.2558 25.0589 64.0576 25.0589H63.9902C63.7781 25.0728 63.5641 25.0847 63.352 25.0986C63.1657 25.1125 62.9794 25.1243 62.7951 25.1521C62.7158 25.1659 62.6365 25.1659 62.5691 25.1798C62.4225 25.1937 62.2778 25.2056 62.143 25.2333C60.9479 25.3919 59.7924 25.6575 58.6766 25.9508C58.1315 26.0975 57.5865 26.256 57.0553 26.4285C56.2843 26.6683 55.5272 26.92 54.8097 27.1598C54.5184 27.2648 54.2389 27.358 53.9595 27.4511C51.9399 28.1547 50.4256 28.6462 49.2048 28.8068C48.4338 28.9118 47.7698 28.9 47.1594 28.7275C46.8264 28.6344 46.5093 28.5016 46.2021 28.3291C45.007 27.6394 44.8207 26.589 47.0662 25.2868C49.4565 23.9054 51.9002 23.7587 53.9595 24.5693L58.7281 19.7611C54.1458 18.2727 49.2167 18.5264 44.343 20.5579L40.3711 18.2727L34.9644 21.3943L38.9362 23.6795C36.9959 25.1798 35.9613 26.7337 35.987 28.236V28.2757C36.0406 29.8038 37.1564 31.2783 39.507 32.632C44.7275 35.6466 49.8945 34.6516 54.6234 33.1235C59.0194 31.6886 62.2203 30.002 64.7592 31.4627C66.3388 32.3803 65.8612 33.4822 64.0952 34.5049C61.2789 36.1381 58.2108 35.6465 56.538 34.9429L51.4642 39.9771C52.4076 40.3359 53.351 40.6014 54.2667 40.8016C55.9375 41.1504 57.5785 41.2476 59.1582 41.1604C61.9626 41.0018 64.5769 40.2566 66.8185 39.2874L70.7903 41.5845L76.1436 38.4907L75.2537 37.9694Z" fill="#88A6F5"/>
</g>
</g>
<g id="XMLID_4098_">
<path id="Vector_125" d="M66.8198 39.2834V43.515L70.7897 45.8081V41.5766L66.8198 39.2834Z" fill="#88A6F5"/>
</g>
<g id="XMLID_4097_" opacity="0.45">
<g id="Group_24">
<path id="Vector_126" d="M66.8198 39.2834V43.515L70.7897 45.8081V41.5766L66.8198 39.2834Z" fill="black"/>
</g>
</g>
</g>
<g id="XMLID_4076_">
<g id="XMLID_4095_">
<path id="Vector_127" d="M34.9663 21.3921L40.3731 18.2705L44.345 20.5557L40.4088 18.9087L34.9663 21.3921Z" fill="#F5F5F5"/>
</g>
<g id="XMLID_4094_">
<path id="Vector_128" d="M47.0688 25.2847C49.4591 23.9033 51.9028 23.7566 53.9621 24.5673L58.7307 19.759L53.9621 24.0718C53.9621 24.0718 50.1567 22.619 47.0688 25.2847Z" fill="#F5F5F5"/>
</g>
<g id="XMLID_4093_">
<path id="Vector_129" d="M51.4644 39.9754C52.4078 40.3341 53.3512 40.5997 54.2669 40.7999C55.9376 41.1487 57.5787 41.2458 59.1583 41.1586C59.1583 41.1586 55.3431 41.2597 52.2651 39.7792L56.5382 34.9412L51.4644 39.9754Z" fill="#F5F5F5"/>
</g>
<g id="XMLID_4092_">
<path id="Vector_130" d="M66.8208 39.2833L70.7907 41.075L76.1439 38.4885L70.7907 41.5765L66.8208 39.2833Z" fill="#F5F5F5"/>
</g>
<g id="XMLID_4078_">
<path id="Vector_131" d="M19.5466 12.6497C33.6186 4.10149 55.5609 3.25122 55.5609 3.25122C41.7625 3.25122 28.8321 6.3391 19.1403 11.9362C9.84097 17.3013 4.72949 24.2878 4.72949 31.6309C4.72949 31.6309 5.23291 21.3465 19.5466 12.6497Z" fill="#F5F5F5"/>
</g>
<g id="XMLID_4077_">
<path id="Vector_132" d="M51.4624 62.2263C66.3965 62.8902 81.725 59.9233 93.147 53.3293C105.025 46.4717 110.107 37.1743 108.39 28.2317C108.39 28.2317 110.608 42.807 92.2492 52.7822C73.8903 62.7575 51.4624 62.2263 51.4624 62.2263Z" fill="#F5F5F5"/>
</g>
</g>
</g>
</g>
<g id="Coins_1_">
<g id="XMLID_568_">
<g id="XMLID_4059_">
<g id="XMLID_4066_">
<path id="Vector_133" d="M188.772 123.099C186.229 118.81 182.002 114.778 176.076 111.357C155.318 99.3724 121.665 99.3724 100.91 111.357C94.9836 114.778 90.756 118.81 88.2132 123.099H85.3413V133.958H85.379C85.7615 141.507 90.9285 148.993 100.91 154.754C121.667 166.737 155.32 166.737 176.076 154.754C186.057 148.991 191.261 141.507 191.644 133.958V123.099H188.772Z" fill="#88A6F5"/>
</g>
</g>
<g id="XMLID_4053_" opacity="0.25">
<g id="XMLID_4054_">
<path id="Vector_134" d="M188.772 123.099C186.229 118.81 182.002 114.778 176.076 111.357C155.318 99.3724 121.665 99.3724 100.91 111.357C94.9836 114.778 90.756 118.81 88.2132 123.099H85.3413V133.958H85.379C85.7615 141.507 90.9285 148.993 100.91 154.754C121.667 166.737 155.32 166.737 176.076 154.754C186.057 148.991 191.261 141.507 191.644 133.958V123.099H188.772Z" fill="black"/>
</g>
</g>
<g id="XMLID_4037_" opacity="0.1">
<path id="Vector_135" d="M138.496 102.369C124.891 102.369 111.287 105.366 100.91 111.357C94.9836 114.778 90.756 118.809 88.2132 123.098H85.3413V133.958H85.379C85.7615 141.507 90.9285 148.993 100.91 154.754C111.289 160.746 124.893 163.743 138.496 163.743V102.369Z" fill="black"/>
</g>
<g id="XMLID_4036_" opacity="0.1">
<path id="Vector_136" d="M109.464 107.35C106.439 108.491 103.565 109.821 100.91 111.355C94.9836 114.776 90.756 118.808 88.2132 123.096H85.3413V133.956H85.379C85.7615 141.505 90.9285 148.991 100.91 154.752C103.567 156.286 106.439 157.618 109.464 158.758V107.35Z" fill="black"/>
</g>
<g id="XMLID_4021_" opacity="0.5">
<path id="Vector_137" d="M167.521 107.35C170.546 108.491 173.42 109.821 176.076 111.355C182.004 114.776 186.229 118.808 188.772 123.096H191.644V133.956C191.261 141.507 186.057 148.991 176.076 154.752C173.42 156.286 170.546 157.618 167.521 158.758V107.35Z" fill="#88A6F5"/>
</g>
<g id="XMLID_3937_">
<g id="XMLID_3977_">
<path id="Vector_138" d="M176.076 101.404C155.319 89.421 121.665 89.421 100.91 101.404C80.153 113.387 80.153 132.818 100.91 144.801C121.667 156.784 155.321 156.784 176.076 144.801C196.833 132.818 196.833 113.387 176.076 101.404Z" fill="#88A6F5"/>
</g>
<g id="XMLID_3962_" opacity="0.2">
<path id="Vector_139" d="M176.076 101.404C155.319 89.421 121.665 89.421 100.91 101.404C80.153 113.387 80.153 132.818 100.91 144.801C121.667 156.784 155.321 156.784 176.076 144.801C196.833 132.818 196.833 113.387 176.076 101.404Z" fill="black"/>
</g>
<g id="XMLID_3941_">
<g id="XMLID_3961_">
<path id="Vector_140" d="M162.969 109.344C156.395 105.978 147.708 104.123 138.49 104.123C129.282 104.123 120.585 105.98 114.021 109.344C107.062 112.909 103.231 117.803 103.231 123.107C103.231 128.41 107.062 133.294 114.021 136.859C120.587 140.233 129.282 142.09 138.49 142.09C147.706 142.09 156.395 140.233 162.969 136.859C169.92 133.294 173.751 128.41 173.751 123.107C173.749 117.803 169.918 112.911 162.969 109.344Z" fill="#88A6F5"/>
</g>
<g id="XMLID_3960_" opacity="0.4">
<path id="Vector_141" d="M162.969 109.344C156.395 105.978 147.708 104.123 138.49 104.123C129.282 104.123 120.585 105.98 114.021 109.344C107.062 112.909 103.231 117.803 103.231 123.107C103.231 128.41 107.062 133.294 114.021 136.859C120.587 140.233 129.282 142.09 138.49 142.09C147.706 142.09 156.395 140.233 162.969 136.859C169.92 133.294 173.751 128.41 173.751 123.107C173.749 117.803 169.918 112.911 162.969 109.344Z" fill="black"/>
</g>
<g id="XMLID_3957_">
<path id="Vector_142" d="M174.92 103.41C165.229 97.8125 152.286 94.7246 138.49 94.7246C124.692 94.7246 111.763 97.8125 102.071 103.41C92.7721 108.775 87.6606 115.761 87.6606 123.106C87.6606 130.44 92.7721 137.436 102.071 142.803C111.763 148.39 124.694 151.476 138.49 151.476C152.288 151.476 165.229 148.388 174.92 142.803C184.208 137.436 189.331 130.44 189.331 123.106C189.331 115.761 184.208 108.777 174.92 103.41ZM162.969 136.859C156.395 140.232 147.708 142.09 138.49 142.09C129.282 142.09 120.585 140.232 114.021 136.859C107.062 133.294 103.231 128.41 103.231 123.106C103.231 117.803 107.062 112.911 114.021 109.344C120.587 105.978 129.282 104.123 138.49 104.123C147.706 104.123 156.395 105.98 162.969 109.344C169.92 112.909 173.751 117.803 173.751 123.106C173.749 128.41 169.918 133.292 162.969 136.859Z" fill="#88A6F5"/>
</g>
</g>
</g>
<g id="XMLID_891_">
<g id="XMLID_1157_" opacity="0.2">
<path id="Vector_143" d="M162.131 135.232C175.186 128.533 175.186 117.67 162.131 110.971C149.075 104.272 127.908 104.272 114.855 110.971C101.8 117.67 101.8 128.533 114.855 135.232C127.91 141.931 149.075 141.931 162.131 135.232Z" fill="black"/>
</g>
<g id="XMLID_899_">
<path id="Vector_144" d="M162.131 135.232C175.186 128.533 175.186 117.67 162.131 110.971C149.075 104.272 127.908 104.272 114.855 110.971C101.8 117.67 101.8 128.533 114.855 135.232C127.91 141.931 149.075 141.931 162.131 135.232Z" fill="#88A6F5"/>
</g>
<g id="XMLID_898_" opacity="0.6">
<g id="Group_25">
<path id="Vector_145" d="M162.131 135.232C175.186 128.533 175.186 117.67 162.131 110.971C149.075 104.272 127.908 104.272 114.855 110.971C101.8 117.67 101.8 128.533 114.855 135.232C127.91 141.931 149.075 141.931 162.131 135.232Z" fill="black"/>
</g>
</g>
<g id="XMLID_897_">
<path id="Vector_146" d="M162.131 115.515C149.076 108.816 127.911 108.816 114.855 115.515C109.457 118.286 106.297 121.769 105.364 125.374C106.297 128.979 109.457 132.461 114.855 135.232C127.911 141.931 149.076 141.931 162.131 135.232C167.53 132.461 170.689 128.979 171.623 125.374C170.689 121.769 167.53 118.286 162.131 115.515Z" fill="#88A6F5"/>
</g>
<g id="XMLID_892_" opacity="0.5">
<g id="Group_26">
<path id="Vector_147" d="M162.131 115.515C149.076 108.816 127.911 108.816 114.855 115.515C109.457 118.286 106.297 121.769 105.364 125.374C106.297 128.979 109.457 132.461 114.855 135.232C127.911 141.931 149.076 141.931 162.131 135.232C167.53 132.461 170.689 128.979 171.623 125.374C170.689 121.769 167.53 118.286 162.131 115.515Z" fill="black"/>
</g>
</g>
</g>
<g id="XMLID_631_">
<g id="XMLID_890_">
<path id="Vector_148" d="M141.658 111.233V116.134L139.983 117.9L136.89 121.14V116.041L141.658 111.233Z" fill="#88A6F5"/>
</g>
<g id="XMLID_889_" opacity="0.3">
<path id="Vector_149" d="M141.658 111.233V116.134L139.983 117.9L136.89 121.14V116.041L141.658 111.233Z" fill="black"/>
</g>
<g id="XMLID_886_">
<path id="Vector_150" d="M136.89 116.035V118.928C134.872 119.632 133.35 120.108 132.131 120.28C131.37 120.375 130.704 120.375 130.094 120.205C129.751 120.11 129.448 119.977 129.123 119.804C127.943 119.101 127.753 118.052 129.999 116.758C132.379 115.369 134.835 115.236 136.89 116.035Z" fill="#88A6F5"/>
</g>
<g id="XMLID_885_" opacity="0.45">
<g id="Group_27">
<path id="Vector_151" d="M136.89 116.035V118.928C134.872 119.632 133.35 120.108 132.131 120.28C131.37 120.375 130.704 120.375 130.094 120.205C129.751 120.11 129.448 119.977 129.123 119.804C127.943 119.101 127.753 118.052 129.999 116.758C132.379 115.369 134.835 115.236 136.89 116.035Z" fill="black"/>
</g>
</g>
<g id="XMLID_883_">
<path id="Vector_152" d="M159.078 129.956V134.187L153.719 137.281L149.753 134.988C145.541 136.812 140.043 137.832 134.399 135.68V131.444L136.837 129.028L134.399 129.7C130.552 130.586 126.526 130.693 122.44 128.333C120.036 126.947 118.92 125.429 118.926 123.867V119.749L119.36 117.947L117.897 117.095V112.86L121.863 115.153C119.927 116.653 118.898 118.199 118.926 119.699V119.747C118.969 121.269 120.095 122.746 122.44 124.101C127.654 127.112 132.821 126.119 137.552 124.601C141.954 123.164 145.159 121.477 147.696 122.94C149.271 123.852 148.792 124.958 147.024 125.98C144.202 127.605 141.139 127.112 139.465 126.418L134.397 131.442C135.334 131.803 136.272 132.071 137.197 132.263C141.835 133.236 146.241 132.271 149.751 130.753L153.717 133.046L159.078 129.956Z" fill="#88A6F5"/>
</g>
<g id="XMLID_882_" opacity="0.35">
<g id="Group_28">
<path id="Vector_153" d="M118.924 119.7V119.747C118.967 121.269 120.093 122.746 122.438 124.102C127.652 127.112 132.819 126.119 137.55 124.601C141.952 123.164 145.157 121.477 147.694 122.94C149.27 123.852 148.79 124.958 147.022 125.981C144.2 127.606 141.138 127.112 139.463 126.418L134.395 131.443C135.333 131.803 136.27 132.071 137.196 132.263C141.833 133.236 146.239 132.271 149.749 130.753L153.715 133.046L159.074 129.952V134.184L153.715 137.278L149.749 134.985C145.538 136.808 140.04 137.829 134.395 135.676V131.443L136.833 129.025L134.395 129.697C130.548 130.583 126.523 130.69 122.436 128.329C120.032 126.944 118.916 125.426 118.922 123.864V119.745L119.356 117.944" fill="black"/>
</g>
</g>
<g id="XMLID_881_" opacity="0.45">
<g id="Group_29">
<path id="Vector_154" d="M117.895 112.86V117.095L119.357 117.947L119.349 117.961C119.819 117.022 120.667 116.08 121.86 115.155L117.895 112.86Z" fill="black"/>
</g>
</g>
<g id="XMLID_876_">
<g id="XMLID_880_">
<path id="Vector_155" d="M158.19 127.189C158.19 127.97 158.038 128.656 157.792 129.207L155.108 127.665C155.108 127.665 157.812 126.561 158.153 123.592C158.171 124.753 158.19 127.074 158.19 127.189Z" fill="#88A6F5"/>
</g>
</g>
<g id="XMLID_784_" opacity="0.3">
<g id="XMLID_873_">
<path id="Vector_156" d="M158.19 127.189C158.19 127.97 158.038 128.656 157.792 129.207L155.108 127.665C155.108 127.665 157.812 126.561 158.153 123.592C158.171 124.753 158.19 127.074 158.19 127.189Z" fill="black"/>
</g>
</g>
<g id="XMLID_684_">
<g id="XMLID_689_">
<path id="Vector_157" d="M158.182 129.443L155.114 127.663C155.114 127.663 158.182 126.401 158.182 122.962C158.182 122.815 158.168 122.682 158.157 122.55C158.024 121.089 156.948 119.668 154.73 118.391C154.73 118.378 154.73 118.378 154.73 118.378C152.365 117.022 149.947 116.518 147.597 116.518C147.398 116.518 147.184 116.532 146.986 116.532H146.919C146.707 116.546 146.495 116.56 146.281 116.572C146.094 116.586 145.908 116.598 145.724 116.626C145.644 116.639 145.565 116.639 145.498 116.651C145.351 116.665 145.206 116.677 145.074 116.705C143.879 116.863 142.723 117.129 141.607 117.422C141.062 117.569 140.517 117.727 139.986 117.9C139.215 118.14 138.458 118.391 137.74 118.631C137.449 118.738 137.17 118.831 136.89 118.925C134.87 119.628 133.356 120.12 132.135 120.28C131.364 120.385 130.7 120.373 130.09 120.201C129.757 120.108 129.44 119.975 129.135 119.803C127.94 119.111 127.753 118.062 129.999 116.76C132.389 115.379 134.833 115.232 136.892 116.043L141.661 111.235C137.078 109.746 132.151 110 127.276 112.031L123.304 109.746L117.897 112.868L121.869 115.153C119.928 116.653 118.894 118.207 118.92 119.709V119.749C118.973 121.277 120.089 122.752 122.44 124.105C127.66 127.12 132.827 126.125 137.556 124.597C141.952 123.162 145.153 121.475 147.692 122.936C149.273 123.852 148.794 124.956 147.028 125.978C144.211 127.612 141.143 127.12 139.471 126.416L134.397 131.451C135.34 131.809 136.284 132.075 137.199 132.273C138.87 132.622 140.511 132.719 142.091 132.632C144.895 132.473 147.507 131.728 149.751 130.759L153.723 133.056L159.076 129.962L158.182 129.443Z" fill="#88A6F5"/>
</g>
</g>
<g id="XMLID_679_">
<path id="Vector_158" d="M149.748 130.757V134.988L153.718 137.281V133.05L149.748 130.757Z" fill="#88A6F5"/>
</g>
<g id="XMLID_656_" opacity="0.45">
<g id="Group_30">
<path id="Vector_159" d="M149.748 130.757V134.988L153.718 137.281V133.05L149.748 130.757Z" fill="black"/>
</g>
</g>
</g>
<g id="XMLID_571_">
<g id="XMLID_630_">
<path id="Vector_160" d="M117.896 112.866L123.303 109.744L127.275 112.029L123.338 110.38L117.896 112.866Z" fill="#F5F5F5"/>
</g>
<g id="XMLID_627_">
<path id="Vector_161" d="M129.998 116.756C132.388 115.375 134.832 115.228 136.891 116.039L141.659 111.231L136.891 115.543C136.891 115.543 133.085 114.093 129.998 116.756Z" fill="#F5F5F5"/>
</g>
<g id="XMLID_618_">
<path id="Vector_162" d="M134.393 131.449C135.336 131.807 136.279 132.073 137.195 132.271C138.866 132.62 140.507 132.717 142.087 132.63C142.087 132.63 138.271 132.731 135.193 131.25L139.466 126.414L134.393 131.449Z" fill="#F5F5F5"/>
</g>
<g id="XMLID_612_">
<path id="Vector_163" d="M149.749 130.757L153.719 132.546L159.072 129.96L153.719 133.05L149.749 130.757Z" fill="#F5F5F5"/>
</g>
<g id="XMLID_603_">
<path id="Vector_164" d="M102.478 104.123C116.55 95.5749 138.492 94.7246 138.492 94.7246C124.694 94.7246 111.765 97.8125 102.073 103.41C92.7741 108.775 87.6626 115.761 87.6626 123.106C87.6626 123.106 88.1621 112.818 102.478 104.123Z" fill="#F5F5F5"/>
</g>
<g id="XMLID_578_">
<path id="Vector_165" d="M134.391 153.698C149.325 154.362 164.653 151.395 176.075 144.801C187.953 137.944 193.035 128.646 191.317 119.704C191.317 119.704 193.534 134.279 175.177 144.254C156.819 154.229 134.391 153.698 134.391 153.698Z" fill="#F5F5F5"/>
</g>
</g>
</g>
<g id="XMLID_359_">
<g id="XMLID_546_">
<g id="XMLID_561_">
<path id="Vector_166" d="M191.947 108.174C189.404 103.885 185.176 99.8541 179.25 96.4333C158.493 84.4503 124.84 84.4503 104.084 96.4333C98.1584 99.8561 93.9308 103.885 91.388 108.174H88.5161V119.034H88.5538C88.9363 126.583 94.1033 134.067 104.084 139.83C124.842 151.813 158.495 151.813 179.25 139.83C189.232 134.067 194.436 126.583 194.819 119.034V108.174H191.947Z" fill="#88A6F5"/>
</g>
</g>
<g id="XMLID_542_" opacity="0.25">
<g id="XMLID_543_">
<path id="Vector_167" d="M191.947 108.174C189.404 103.885 185.176 99.8541 179.25 96.4333C158.493 84.4503 124.84 84.4503 104.084 96.4333C98.1584 99.8561 93.9308 103.885 91.388 108.174H88.5161V119.034H88.5538C88.9363 126.583 94.1033 134.067 104.084 139.83C124.842 151.813 158.495 151.813 179.25 139.83C189.232 134.067 194.436 126.583 194.819 119.034V108.174H191.947Z" fill="black"/>
</g>
</g>
<g id="XMLID_541_" opacity="0.1">
<path id="Vector_168" d="M141.67 87.4451C128.066 87.4451 114.462 90.4398 104.084 96.4332C98.1564 99.8561 93.9308 103.885 91.388 108.174H88.5161V119.034H88.5538C88.9363 126.583 94.1033 134.067 104.084 139.83C114.464 145.822 128.068 148.818 141.67 148.818V87.4451Z" fill="black"/>
</g>
<g id="XMLID_540_" opacity="0.1">
<path id="Vector_169" d="M112.639 92.426C109.614 93.5676 106.74 94.8976 104.084 96.4316C98.1564 99.8545 93.9308 103.884 91.388 108.173H88.5161V119.032H88.5538C88.9363 126.581 94.1033 134.065 104.084 139.829C106.74 141.363 109.614 142.693 112.639 143.834V92.426Z" fill="black"/>
</g>
<g id="XMLID_539_" opacity="0.5">
<path id="Vector_170" d="M170.694 92.426C173.719 93.5676 176.593 94.8976 179.248 96.4316C185.175 99.8545 189.402 103.884 191.945 108.173H194.817V119.032C194.434 126.581 189.23 134.067 179.248 139.829C176.593 141.363 173.719 142.693 170.694 143.834V92.426Z" fill="#88A6F5"/>
</g>
<g id="XMLID_471_">
<g id="XMLID_535_">
<path id="Vector_171" d="M179.251 86.4799C158.494 74.4969 124.841 74.4969 104.085 86.4799C83.3283 98.4648 83.3283 117.894 104.085 129.877C124.842 141.86 158.496 141.86 179.251 129.877C200.008 117.894 200.008 98.4628 179.251 86.4799Z" fill="#88A6F5"/>
</g>
<g id="XMLID_529_" opacity="0.2">
<path id="Vector_172" d="M179.251 86.4799C158.494 74.4969 124.841 74.4969 104.085 86.4799C83.3283 98.4648 83.3283 117.894 104.085 129.877C124.842 141.86 158.496 141.86 179.251 129.877C200.008 117.894 200.008 98.4628 179.251 86.4799Z" fill="black"/>
</g>
<g id="XMLID_476_">
<g id="XMLID_525_">
<path id="Vector_173" d="M166.145 94.4197C159.57 91.0543 150.883 89.1992 141.665 89.1992C132.457 89.1992 123.76 91.0563 117.196 94.4197C110.237 97.9853 106.406 102.879 106.406 108.18C106.406 113.484 110.237 118.368 117.196 121.933C123.762 125.307 132.457 127.164 141.665 127.164C150.881 127.164 159.57 125.309 166.145 121.933C173.093 118.368 176.924 113.484 176.924 108.18C176.924 102.879 173.093 97.9853 166.145 94.4197Z" fill="#88A6F5"/>
</g>
<g id="XMLID_523_" opacity="0.4">
<path id="Vector_174" d="M166.145 94.4197C159.57 91.0543 150.883 89.1992 141.665 89.1992C132.457 89.1992 123.76 91.0563 117.196 94.4197C110.237 97.9853 106.406 102.879 106.406 108.18C106.406 113.484 110.237 118.368 117.196 121.933C123.762 125.307 132.457 127.164 141.665 127.164C150.881 127.164 159.57 125.309 166.145 121.933C173.093 118.368 176.924 113.484 176.924 108.18C176.924 102.879 173.093 97.9853 166.145 94.4197Z" fill="black"/>
</g>
<g id="XMLID_483_">
<path id="Vector_175" d="M178.095 88.4858C168.404 82.8887 155.461 79.7988 141.665 79.7988C127.868 79.7988 114.938 82.8867 105.246 88.4858C95.9469 93.8509 90.8354 100.837 90.8354 108.18C90.8354 115.514 95.9469 122.51 105.246 127.877C114.938 133.462 127.868 136.55 141.665 136.55C155.461 136.55 168.404 133.462 178.095 127.877C187.383 122.51 192.506 115.514 192.506 108.18C192.506 100.837 187.383 93.8529 178.095 88.4858ZM166.144 121.935C159.57 125.309 150.883 127.166 141.665 127.166C132.457 127.166 123.76 125.311 117.196 121.935C110.237 118.37 106.406 113.486 106.406 108.182C106.406 102.879 110.237 97.9873 117.196 94.4217C123.762 91.0564 132.457 89.2012 141.665 89.2012C150.881 89.2012 159.57 91.0583 166.144 94.4217C173.093 97.9873 176.924 102.881 176.924 108.182C176.924 113.486 173.093 118.368 166.144 121.935Z" fill="#88A6F5"/>
</g>
</g>
</g>
<g id="XMLID_463_">
<g id="XMLID_470_" opacity="0.2">
<path id="Vector_176" d="M165.306 120.306C178.361 113.607 178.361 102.744 165.306 96.0445C152.251 89.3455 131.083 89.3455 118.03 96.0445C104.975 102.744 104.975 113.607 118.03 120.306C131.085 127.007 152.251 127.007 165.306 120.306Z" fill="black"/>
</g>
<g id="XMLID_469_">
<path id="Vector_177" d="M165.306 120.306C178.361 113.607 178.361 102.744 165.306 96.0445C152.251 89.3455 131.083 89.3455 118.03 96.0445C104.975 102.744 104.975 113.607 118.03 120.306C131.085 127.007 152.251 127.007 165.306 120.306Z" fill="#88A6F5"/>
</g>
<g id="XMLID_466_" opacity="0.6">
<g id="Group_31">
<path id="Vector_178" d="M165.306 120.306C178.361 113.607 178.361 102.744 165.306 96.0445C152.251 89.3455 131.083 89.3455 118.03 96.0445C104.975 102.744 104.975 113.607 118.03 120.306C131.085 127.007 152.251 127.007 165.306 120.306Z" fill="black"/>
</g>
</g>
<g id="XMLID_465_">
<path id="Vector_179" d="M165.305 100.591C152.25 93.8924 131.085 93.8924 118.03 100.591C112.631 103.362 109.474 106.845 108.538 110.45C109.472 114.055 112.631 117.537 118.03 120.308C131.085 127.007 152.252 127.007 165.305 120.308C170.704 117.537 173.864 114.055 174.797 110.45C173.864 106.845 170.704 103.36 165.305 100.591Z" fill="#88A6F5"/>
</g>
<g id="XMLID_464_" opacity="0.5">
<g id="Group_32">
<path id="Vector_180" d="M165.305 100.591C152.25 93.8924 131.085 93.8924 118.03 100.591C112.631 103.362 109.474 106.845 108.538 110.45C109.472 114.055 112.631 117.537 118.03 120.308C131.085 127.007 152.252 127.007 165.305 120.308C170.704 117.537 173.864 114.055 174.797 110.45C173.864 106.845 170.704 103.36 165.305 100.591Z" fill="black"/>
</g>
</g>
</g>
<g id="XMLID_398_">
<g id="XMLID_461_">
<path id="Vector_181" d="M144.833 96.3066V101.208L143.158 102.976L140.064 106.216V101.117L144.833 96.3066Z" fill="#88A6F5"/>
</g>
<g id="XMLID_460_" opacity="0.3">
<path id="Vector_182" d="M144.833 96.3066V101.208L143.158 102.976L140.064 106.216V101.117L144.833 96.3066Z" fill="black"/>
</g>
<g id="XMLID_459_">
<path id="Vector_183" d="M140.065 101.111V104.005C138.048 104.708 136.525 105.186 135.306 105.356C134.545 105.452 133.879 105.452 133.269 105.281C132.926 105.186 132.623 105.053 132.298 104.881C131.119 104.177 130.928 103.129 133.174 101.834C135.554 100.445 138.008 100.31 140.065 101.111Z" fill="#88A6F5"/>
</g>
<g id="XMLID_458_" opacity="0.45">
<g id="Group_33">
<path id="Vector_184" d="M140.065 101.111V104.005C138.048 104.708 136.525 105.186 135.306 105.356C134.545 105.452 133.879 105.452 133.269 105.281C132.926 105.186 132.623 105.053 132.298 104.881C131.119 104.177 130.928 103.129 133.174 101.834C135.554 100.445 138.008 100.31 140.065 101.111Z" fill="black"/>
</g>
</g>
<g id="XMLID_457_">
<path id="Vector_185" d="M162.253 115.032V119.263L156.892 122.357L152.926 120.064C148.714 121.889 143.216 122.908 137.572 120.758V116.522L140.007 114.106L137.572 114.778C133.725 115.664 129.699 115.771 125.612 113.411C123.208 112.025 122.094 110.507 122.098 108.945V104.827L122.533 103.025L121.07 102.175V97.9395L125.036 100.233C123.099 101.735 122.073 103.279 122.098 104.779V104.827C122.142 106.349 123.268 107.825 125.612 109.181C130.827 112.192 135.994 111.199 140.725 109.681C145.127 108.244 148.332 106.557 150.869 108.02C152.442 108.931 151.965 110.037 150.197 111.06C147.374 112.685 144.312 112.192 142.638 111.498L137.572 116.522C138.509 116.883 139.445 117.151 140.37 117.343C145.008 118.316 149.414 117.351 152.924 115.833L156.89 118.126L162.253 115.032Z" fill="#88A6F5"/>
</g>
<g id="XMLID_434_" opacity="0.35">
<g id="Group_34">
<path id="Vector_186" d="M122.099 104.776V104.823C122.142 106.345 123.268 107.822 125.613 109.177C130.827 112.188 135.994 111.195 140.725 109.677C145.127 108.24 148.332 106.553 150.869 108.016C152.443 108.928 151.965 110.034 150.197 111.056C147.375 112.682 144.313 112.188 142.638 111.494L137.57 116.519C138.507 116.879 139.445 117.147 140.37 117.339C145.008 118.312 149.414 117.347 152.924 115.829L156.89 118.122L162.251 115.028V119.26L156.89 122.354L152.924 120.06C148.712 121.886 143.215 122.905 137.57 120.754V116.519L140.006 114.103L137.57 114.775C133.723 115.66 129.698 115.768 125.611 113.407C123.207 112.022 122.093 110.503 122.097 108.942L122.099 104.823L122.531 103.021" fill="black"/>
</g>
</g>
<g id="XMLID_421_" opacity="0.45">
<g id="Group_35">
<path id="Vector_187" d="M121.07 97.9355V102.171L122.533 103.023L122.525 103.037C122.994 102.098 123.843 101.156 125.036 100.231L121.07 97.9355Z" fill="black"/>
</g>
</g>
<g id="XMLID_418_">
<g id="XMLID_419_">
<path id="Vector_188" d="M161.365 112.265C161.365 113.046 161.213 113.73 160.965 114.283L158.281 112.741C158.281 112.741 160.985 111.637 161.326 108.668C161.345 109.829 161.365 112.15 161.365 112.265Z" fill="#88A6F5"/>
</g>
</g>
<g id="XMLID_412_" opacity="0.3">
<g id="XMLID_416_">
<path id="Vector_189" d="M161.365 112.265C161.365 113.046 161.213 113.73 160.965 114.283L158.281 112.741C158.281 112.741 160.985 111.637 161.326 108.668C161.345 109.829 161.365 112.15 161.365 112.265Z" fill="black"/>
</g>
</g>
<g id="XMLID_407_">
<g id="XMLID_410_">
<path id="Vector_190" d="M161.357 114.519L158.289 112.739C158.289 112.739 161.357 111.477 161.357 108.038C161.357 107.891 161.343 107.759 161.329 107.626C161.197 106.165 160.12 104.744 157.903 103.468C157.903 103.454 157.903 103.454 157.903 103.454C155.538 102.098 153.122 101.595 150.77 101.595C150.571 101.595 150.357 101.609 150.159 101.609H150.092C149.88 101.622 149.668 101.634 149.454 101.648C149.267 101.662 149.081 101.674 148.895 101.702C148.815 101.716 148.736 101.716 148.669 101.729C148.522 101.743 148.377 101.755 148.243 101.783C147.047 101.941 145.892 102.209 144.776 102.5C144.231 102.647 143.688 102.806 143.157 102.978C142.386 103.218 141.629 103.47 140.911 103.709C140.62 103.816 140.34 103.908 140.061 104.001C138.041 104.704 136.527 105.196 135.306 105.356C134.535 105.463 133.871 105.45 133.261 105.277C132.93 105.184 132.611 105.051 132.306 104.879C131.11 104.187 130.924 103.139 133.17 101.836C135.56 100.455 138.004 100.308 140.063 101.119L144.832 96.3107C140.249 94.8223 135.32 95.076 130.447 97.1075L126.475 94.8223L121.068 97.9439L125.04 100.229C123.099 101.729 122.065 103.285 122.091 104.786V104.825C122.144 106.353 123.26 107.828 125.611 109.182C130.831 112.196 135.998 111.201 140.727 109.673C145.123 108.238 148.324 106.552 150.863 108.012C152.442 108.928 151.965 110.032 150.199 111.055C147.382 112.688 144.314 112.196 142.642 111.493L137.568 116.527C138.511 116.885 139.455 117.151 140.37 117.351C142.041 117.7 143.682 117.799 145.262 117.71C148.066 117.551 150.678 116.806 152.922 115.837L156.894 118.134L162.247 115.04L161.357 114.519Z" fill="#88A6F5"/>
</g>
</g>
<g id="XMLID_405_">
<path id="Vector_191" d="M152.923 115.833V120.064L156.893 122.355V118.124L152.923 115.833Z" fill="#88A6F5"/>
</g>
<g id="XMLID_402_" opacity="0.45">
<g id="Group_36">
<path id="Vector_192" d="M152.923 115.833V120.064L156.893 122.355V118.124L152.923 115.833Z" fill="black"/>
</g>
</g>
</g>
<g id="XMLID_361_">
<g id="XMLID_396_">
<path id="Vector_193" d="M121.07 97.9414L126.477 94.8198L130.446 97.1031L126.51 95.4561L121.07 97.9414Z" fill="#F5F5F5"/>
</g>
<g id="XMLID_395_">
<path id="Vector_194" d="M133.17 101.832C135.561 100.451 138.004 100.304 140.064 101.115L144.832 96.3066L140.064 100.619C140.064 100.619 136.26 99.1686 133.17 101.832Z" fill="#F5F5F5"/>
</g>
<g id="XMLID_394_">
<path id="Vector_195" d="M137.568 116.525C138.511 116.883 139.455 117.149 140.37 117.349C142.041 117.698 143.682 117.797 145.262 117.708C145.262 117.708 141.447 117.809 138.369 116.328L142.642 111.49L137.568 116.525Z" fill="#F5F5F5"/>
</g>
<g id="XMLID_392_">
<path id="Vector_196" d="M152.924 115.833L156.894 117.622L162.245 115.036L156.894 118.124L152.924 115.833Z" fill="#F5F5F5"/>
</g>
<g id="XMLID_384_">
<path id="Vector_197" d="M105.651 89.1993C119.723 80.6511 141.665 79.8008 141.665 79.8008C127.866 79.8008 114.938 82.8887 105.246 88.4877C95.9469 93.8529 90.8355 100.839 90.8355 108.182C90.8355 108.182 91.3369 97.8941 105.651 89.1993Z" fill="#F5F5F5"/>
</g>
<g id="XMLID_376_">
<path id="Vector_198" d="M137.566 138.774C152.5 139.438 167.829 136.471 179.251 129.877C191.128 123.02 196.21 113.722 194.492 104.78C194.492 104.78 196.71 119.355 178.351 129.33C159.994 139.305 137.566 138.774 137.566 138.774Z" fill="#F5F5F5"/>
</g>
</g>
</g>
</g>
</g>
</svg>
