<svg width="24" height="25" viewBox="0 0 24 25" fill="none" xmlns="http://www.w3.org/2000/svg">
<g id="ri:instagram-fill">
<path id="Vector" d="M13.0281 2.01025C14.1531 2.01325 14.7241 2.01925 15.2171 2.03325L15.4111 2.04025C15.6351 2.04825 15.8561 2.05825 16.1231 2.07025C17.1871 2.12025 17.9131 2.28825 18.5501 2.53525C19.2101 2.78925 19.7661 3.13325 20.3221 3.68825C20.8306 4.18815 21.224 4.79284 21.4751 5.46025C21.7221 6.09725 21.8901 6.82325 21.9401 7.88825C21.9521 8.15425 21.9621 8.37525 21.9701 8.60025L21.9761 8.79425C21.9911 9.28625 21.9971 9.85725 21.9991 10.9823L22.0001 11.7283V13.0383C22.0025 13.7677 21.9949 14.4971 21.9771 15.2263L21.9711 15.4203C21.9631 15.6453 21.9531 15.8663 21.9411 16.1323C21.8911 17.1973 21.7211 17.9223 21.4751 18.5603C21.2248 19.228 20.8312 19.8329 20.3221 20.3323C19.8221 20.8406 19.2174 21.234 18.5501 21.4853C17.9131 21.7323 17.1871 21.9003 16.1231 21.9503C15.8858 21.9614 15.6485 21.9714 15.4111 21.9803L15.2171 21.9863C14.7241 22.0003 14.1531 22.0073 13.0281 22.0093L12.2821 22.0103H10.9731C10.2434 22.0128 9.51361 22.0051 8.78409 21.9873L8.59009 21.9813C8.3527 21.9723 8.11536 21.9619 7.87809 21.9503C6.81409 21.9003 6.08809 21.7323 5.45009 21.4853C4.78276 21.2346 4.17831 20.8411 3.67909 20.3323C3.17013 19.8325 2.77631 19.2278 2.52509 18.5603C2.27809 17.9233 2.11009 17.1973 2.06009 16.1323C2.04895 15.895 2.03895 15.6576 2.03009 15.4203L2.02509 15.2263C2.00666 14.4971 1.99833 13.7677 2.00009 13.0383V10.9823C1.9973 10.2529 2.00463 9.52345 2.02209 8.79425L2.02909 8.60025C2.03709 8.37525 2.04709 8.15425 2.05909 7.88825C2.10909 6.82325 2.27709 6.09825 2.52409 5.46025C2.7752 4.79216 3.16981 4.18728 3.68009 3.68825C4.17918 3.17973 4.78323 2.78624 5.45009 2.53525C6.08809 2.28825 6.81309 2.12025 7.87809 2.07025C8.14409 2.05825 8.36609 2.04825 8.59009 2.04025L8.78409 2.03425C9.51328 2.01649 10.2427 2.00882 10.9721 2.01125L13.0281 2.01025ZM12.0001 7.01025C10.674 7.01025 9.40224 7.53704 8.46455 8.47472C7.52687 9.4124 7.00009 10.6842 7.00009 12.0103C7.00009 13.3363 7.52687 14.6081 8.46455 15.5458C9.40224 16.4835 10.674 17.0103 12.0001 17.0103C13.3262 17.0103 14.5979 16.4835 15.5356 15.5458C16.4733 14.6081 17.0001 13.3363 17.0001 12.0103C17.0001 10.6842 16.4733 9.4124 15.5356 8.47472C14.5979 7.53704 13.3262 7.01025 12.0001 7.01025ZM12.0001 9.01025C12.3941 9.01019 12.7842 9.08772 13.1482 9.23842C13.5122 9.38913 13.8429 9.61005 14.1216 9.88858C14.4002 10.1671 14.6212 10.4978 14.772 10.8617C14.9229 11.2257 15.0005 11.6158 15.0006 12.0098C15.0007 12.4037 14.9231 12.7938 14.7724 13.1578C14.6217 13.5218 14.4008 13.8526 14.1223 14.1312C13.8437 14.4098 13.5131 14.6309 13.1491 14.7817C12.7851 14.9325 12.3951 15.0102 12.0011 15.0103C11.2054 15.0103 10.4424 14.6942 9.87977 14.1316C9.31716 13.569 9.00109 12.8059 9.00109 12.0103C9.00109 11.2146 9.31716 10.4515 9.87977 9.88893C10.4424 9.32632 11.2054 9.01025 12.0011 9.01025M17.2511 5.51025C16.9196 5.51025 16.6016 5.64195 16.3672 5.87637C16.1328 6.11079 16.0011 6.42873 16.0011 6.76025C16.0011 7.09177 16.1328 7.40972 16.3672 7.64414C16.6016 7.87856 16.9196 8.01025 17.2511 8.01025C17.5826 8.01025 17.9006 7.87856 18.135 7.64414C18.3694 7.40972 18.5011 7.09177 18.5011 6.76025C18.5011 6.42873 18.3694 6.11079 18.135 5.87637C17.9006 5.64195 17.5826 5.51025 17.2511 5.51025Z" fill="#2860F2"/>
</g>
</svg>
