<svg width="230" height="43" viewBox="0 0 230 43" fill="none" xmlns="http://www.w3.org/2000/svg">
<path d="M25.552 34H20.272L4.192 4.768V33.952H0.4V0.351998H5.968L21.76 29.248V0.351998H25.552V34ZM50.8491 34H47.0571V31.504C46.4171 32.464 45.5051 33.184 44.3211 33.664C43.1371 34.144 41.8411 34.4 40.4331 34.432C39.0251 34.496 37.6491 34.336 36.3051 33.952C34.9611 33.536 33.8251 32.912 32.8971 32.08C31.9371 31.248 31.1851 30.192 30.6411 28.912C30.1291 27.632 29.8731 26.16 29.8731 24.496V10H33.7131V24.496C33.7131 26.704 34.3371 28.32 35.5851 29.344C36.8651 30.368 38.4971 30.88 40.4811 30.88C41.4731 30.88 42.4651 30.656 43.4571 30.208C44.4811 29.76 45.3291 29.072 46.0011 28.144C46.7051 27.184 47.0571 25.968 47.0571 24.496V10H50.8491V34ZM92.1936 34H88.4496V19.84C88.4496 17.664 87.8736 16.048 86.7216 14.992C85.6016 13.936 84.1456 13.408 82.3536 13.408C80.4976 13.408 78.9616 13.936 77.7456 14.992C76.5296 16.048 75.9216 17.664 75.9216 19.84V34H72.2256V19.84C72.2256 17.6 71.6176 15.968 70.4016 14.944C69.1856 13.92 67.6656 13.408 65.8416 13.408C64.8816 13.408 63.9056 13.632 62.9136 14.08C61.9216 14.528 61.0896 15.232 60.4176 16.192C59.7776 17.12 59.4576 18.336 59.4576 19.84V34H55.6656V10H59.4576V12.448C60.2576 11.552 61.2176 10.88 62.3376 10.432C63.4576 9.984 64.6256 9.744 65.8416 9.712C67.4096 9.712 68.9456 10.032 70.4496 10.672C71.9856 11.28 73.2656 12.256 74.2896 13.6C75.1536 12.288 76.3376 11.328 77.8416 10.72C79.3456 10.08 80.9136 9.76 82.5456 9.76C84.2416 9.76 85.8256 10.16 87.2976 10.96C88.7696 11.728 89.9536 12.864 90.8496 14.368C91.7456 15.872 92.1936 17.696 92.1936 19.84V34ZM117.326 21.76C117.326 23.936 116.99 25.904 116.318 27.664C115.646 29.392 114.654 30.816 113.342 31.936C112.03 33.056 110.398 33.728 108.446 33.952C106.846 34.208 105.31 34.096 103.838 33.616C102.366 33.136 101.182 32.512 100.286 31.744V34H96.4938V0.399998H100.286V11.008C101.47 10.4 102.574 10.032 103.598 9.904C104.622 9.776 105.582 9.712 106.478 9.712C108.782 9.712 110.734 10.24 112.334 11.296C113.966 12.32 115.198 13.744 116.03 15.568C116.894 17.36 117.326 19.424 117.326 21.76ZM113.486 21.76C113.486 19.264 112.862 17.328 111.614 15.952C110.398 14.544 108.782 13.728 106.766 13.504C104.75 13.28 102.59 13.648 100.286 14.608V28.528C101.918 29.648 103.518 30.304 105.086 30.496C106.654 30.688 108.062 30.464 109.31 29.824C110.59 29.184 111.598 28.192 112.334 26.848C113.102 25.472 113.486 23.776 113.486 21.76ZM142.904 23.152H124.232C124.296 25.232 124.856 26.88 125.912 28.096C126.968 29.312 128.312 30.112 129.944 30.496C131.576 30.88 133.32 30.848 135.176 30.4C137.032 29.952 138.792 29.104 140.456 27.856L142.472 30.832C140.904 32.048 139.272 32.944 137.576 33.52C135.88 34.096 134.184 34.4 132.488 34.432C128.488 34.528 125.432 33.424 123.32 31.12C121.208 28.784 120.152 25.536 120.152 21.376C120.152 17.824 121.144 14.992 123.128 12.88C125.144 10.768 128.056 9.728 131.864 9.76C134.36 9.76 136.488 10.272 138.248 11.296C140.008 12.32 141.304 13.84 142.136 15.856C142.552 16.848 142.808 17.952 142.904 19.168C143.032 20.384 143.032 21.712 142.904 23.152ZM132.056 13.312C129.88 13.312 128.024 13.888 126.488 15.04C124.984 16.16 124.232 17.84 124.232 20.08H139.496C139.496 17.968 138.824 16.32 137.48 15.136C136.168 13.92 134.36 13.312 132.056 13.312ZM147.681 34V10.288H151.473V12.496C152.529 11.312 153.825 10.592 155.361 10.336C156.929 10.08 158.897 10.288 161.265 10.96L159.489 14.32C158.049 13.808 156.705 13.728 155.457 14.08C154.241 14.4 153.265 14.976 152.529 15.808C151.793 16.64 151.441 17.536 151.473 18.496V34H147.681Z" fill="black"/>
<path d="M180.863 34H165.215V0.399998H169.007V30.352H180.863V34ZM192.573 34.24C190.333 34.176 188.461 33.552 186.957 32.368C185.453 31.152 184.701 29.392 184.701 27.088C184.701 24.688 185.405 22.816 186.813 21.472C188.221 20.096 190.141 19.216 192.573 18.832C195.005 18.448 197.725 18.528 200.733 19.072V17.344C200.733 16.224 200.381 15.344 199.677 14.704C198.973 14.032 198.061 13.584 196.941 13.36C195.853 13.136 194.701 13.12 193.485 13.312C192.301 13.472 191.181 13.84 190.125 14.416C189.069 14.96 188.253 15.68 187.677 16.576L185.325 14.08C186.317 12.864 187.517 11.92 188.925 11.248C190.365 10.576 191.853 10.144 193.389 9.952C194.925 9.76 196.413 9.808 197.853 10.096C199.293 10.384 200.557 10.912 201.645 11.68C202.701 12.32 203.421 13.152 203.805 14.176C204.221 15.168 204.461 16.32 204.525 17.632C204.589 18.944 204.621 20.352 204.621 21.856V34H200.781V31.744C199.597 32.608 198.285 33.248 196.845 33.664C195.405 34.08 193.981 34.272 192.573 34.24ZM200.685 28.336V22.048C196.877 21.568 193.853 21.696 191.613 22.432C189.373 23.168 188.253 24.704 188.253 27.04C188.253 28.064 188.541 28.864 189.117 29.44C189.725 30.016 190.493 30.4 191.421 30.592C192.381 30.784 193.421 30.816 194.541 30.688C195.661 30.56 196.765 30.288 197.853 29.872C198.941 29.456 199.885 28.944 200.685 28.336ZM210.518 42.256V38.512C211.446 38.512 212.31 38.304 213.11 37.888C213.91 37.504 214.582 36.976 215.126 36.304C215.67 35.664 215.99 34.944 216.086 34.144L207.014 10H211.19L218.39 29.536L225.158 10H229.382L220.934 32.608C220.23 34.592 219.446 36.288 218.582 37.696C217.718 39.136 216.646 40.24 215.366 41.008C214.118 41.808 212.502 42.224 210.518 42.256Z" fill="#006EFF"/>
</svg>
