<svg width="468" height="468" viewBox="0 0 468 468" fill="none" xmlns="http://www.w3.org/2000/svg">
<path d="M234.891 449.421C110.493 449.421 9.64923 391.199 9.64923 319.378C9.64923 247.557 110.493 189.335 234.891 189.335C359.289 189.335 460.133 247.557 460.133 319.378C460.133 391.199 359.289 449.421 234.891 449.421Z" fill="#FAFAFA"/>
<path d="M111.504 403.064C86.5817 403.064 66.3783 391.4 66.3783 377.011C66.3783 362.622 86.5817 350.957 111.504 350.957C136.426 350.957 156.629 362.622 156.629 377.011C156.629 391.4 136.426 403.064 111.504 403.064Z" fill="#E0E0E0"/>
<path d="M404.853 365.342L441.855 343.98C443.941 342.775 443.941 340.823 441.855 339.618L226.632 215.359C224.545 214.154 221.164 214.154 219.077 215.359L182.074 236.721C179.988 237.926 179.988 239.878 182.074 241.083L397.298 365.342C399.385 366.547 402.767 366.547 404.853 365.342Z" fill="#E0E0E0"/>
<path d="M379.993 49.3656L388.36 54.1963C388.319 53.8228 388.29 53.4512 388.29 53.089V50.6647C388.29 46.3507 391.319 44.6023 395.055 46.7588C396.567 47.6321 397.959 49.0164 399.086 50.6357C399.698 45.2116 403.954 43.1908 409.123 46.1747C414.712 49.4021 419.243 57.2504 419.243 63.7041V67.3302C419.243 69.0019 418.934 70.4096 418.386 71.5319L425.336 75.5445C427.409 76.7407 429.089 79.6508 429.089 82.0432C429.089 84.4365 427.409 85.4062 425.336 84.2091L379.993 58.0301C377.92 56.8339 376.24 53.9239 376.24 51.5305C376.24 49.1391 377.92 48.1684 379.993 49.3656Z" fill="#EBEBEB"/>
<path d="M336.66 69.4137L342.975 73.0595C342.944 72.7777 342.921 72.4979 342.921 72.2236V70.3937C342.921 67.1383 345.207 65.8186 348.026 67.4463C349.168 68.1052 350.218 69.1498 351.069 70.3722C351.531 66.2781 354.743 64.7534 358.644 67.0054C362.863 69.4409 366.282 75.363 366.282 80.2339V82.9708C366.282 84.2325 366.049 85.2948 365.635 86.1419L370.881 89.1699C372.445 90.0731 373.712 92.269 373.712 94.0745C373.712 95.8801 372.445 96.612 370.881 95.7097L336.66 75.9517C335.095 75.0485 333.828 72.8526 333.828 71.0471C333.828 69.2434 335.095 68.5114 336.66 69.4137Z" fill="#EBEBEB"/>
<path d="M271.852 327.269L240.043 308.876C236.764 306.984 235.125 304.502 235.124 302.022C235.124 299.541 235.11 297.597 235.11 297.597L268.113 278.988C269.862 277.978 271.28 275.523 271.28 273.503V234.285L326.839 266.39L326.841 305.608C326.841 307.627 325.424 310.083 323.674 311.092L295.599 327.269C289.041 331.056 278.409 331.055 271.852 327.269Z" fill="#263238"/>
<path d="M313.501 312.552V316.958L323.684 311.09C325.42 310.085 326.847 307.635 326.847 305.606V266.392L316.261 260.286C316.042 262.973 315.805 265.752 315.586 268.458L323.008 272.754V303.394C323.008 305.423 321.6 307.873 319.845 308.878L313.501 312.552Z" fill="black"/>
<path d="M323.009 303.401C323.009 305.42 321.591 307.876 319.842 308.885L295.604 322.846C289.046 326.632 278.412 326.633 271.854 322.849L240.029 304.458C233.47 300.674 233.469 294.536 240.027 290.75L264.281 276.778C266.029 275.768 267.447 273.313 267.447 271.294V240.65L323.007 272.755V303.401H323.009Z" fill="#37474F"/>
<path d="M257.832 280.507V280.502L264.281 276.779C266.031 275.769 267.448 273.314 267.448 271.295V240.651L323.009 272.756V303.401C323.009 305.42 321.591 307.876 319.842 308.885L313.505 312.543L257.832 280.507Z" fill="#263238"/>
<path d="M235.117 297.6C235.117 297.6 235.117 299.538 235.117 302.025C235.117 304.511 236.762 306.979 240.034 308.88L271.849 327.262C274.993 329.09 279.07 330.005 283.183 330.078V325.672C279.069 325.617 274.993 324.667 271.849 322.856L240.034 304.456C236.762 302.573 235.117 300.087 235.117 297.6Z" fill="#455A64"/>
<path d="M412.217 341.489C410.166 342.673 406.732 342.61 404.546 341.348C377.23 325.578 216.99 233.065 189.679 217.297C187.494 216.035 185.722 212.966 185.722 210.442V36.0584C185.722 33.5341 187.384 30.5286 189.435 29.3445C191.486 28.1605 194.92 28.2241 197.106 29.4868L411.969 153.538C414.155 154.799 415.927 157.87 415.927 160.393L415.93 334.775C415.929 337.3 414.267 340.305 412.217 341.489Z" fill="#455A64"/>
<path d="M404.545 341.342L189.679 217.292C187.493 216.031 185.721 212.961 185.721 210.437V36.0538C185.721 33.5294 187.493 32.5064 189.679 33.7681L404.542 157.82C406.728 159.082 408.5 162.151 408.5 164.675L408.503 339.058C408.502 341.582 406.73 342.605 404.545 341.342Z" fill="#006EFF"/>
<path d="M404.545 341.342L189.679 217.292C187.493 216.031 185.721 212.961 185.721 210.437V36.0538C185.721 33.5294 187.493 32.5064 189.679 33.7681L404.542 157.82C406.728 159.082 408.5 162.151 408.5 164.675L408.503 339.058C408.502 341.582 406.73 342.605 404.545 341.342Z" fill="#37474F"/>
<path d="M405.127 345.86C407.32 346.829 410.356 346.793 412.22 345.714C414.268 344.526 415.931 341.528 415.931 338.986V323.16L408.509 327.456V343.283C408.509 345.586 407.047 346.629 405.127 345.86Z" fill="#263238"/>
<path d="M408.509 327.456L408.502 343.277C408.502 345.801 406.73 346.824 404.545 345.562L189.679 221.512C187.493 220.25 185.722 217.18 185.722 214.657V198.802L408.509 327.456Z" fill="#37474F"/>
<path opacity="0.2" d="M408.502 327.423V343.277C408.502 345.801 406.73 346.824 404.545 345.562L189.68 221.512C187.493 220.25 185.722 217.18 185.722 214.657V198.802L408.502 327.423Z" fill="black"/>
<path d="M401.079 307.6L401.077 167.14C401.077 165.625 400.014 163.783 398.702 163.026L195.527 45.7226C194.215 44.9654 193.152 45.5794 193.152 47.0939L193.145 187.558C193.145 189.072 194.209 190.914 195.52 191.671L398.703 308.972C400.015 309.729 401.079 309.115 401.079 307.6Z" fill="#006EFF"/>
<path opacity="0.3" d="M401.079 307.6L401.077 167.14C401.077 165.625 400.014 163.783 398.702 163.026L195.527 45.7226C194.215 44.9654 193.152 45.5794 193.152 47.0939L193.145 187.558C193.145 189.072 194.209 190.914 195.52 191.671L398.703 308.972C400.015 309.729 401.079 309.115 401.079 307.6Z" fill="black"/>
<path d="M297.115 268.164C299.165 269.348 300.829 272.228 300.829 274.596C300.829 276.964 299.165 277.925 297.115 276.74C295.063 275.556 293.4 272.676 293.4 270.307C293.4 267.939 295.064 266.98 297.115 268.164Z" fill="#455A64"/>
<path d="M407.339 160.759C408.052 162.002 408.49 163.41 408.509 164.671V327.457L415.931 323.161V160.394C415.931 159.132 415.475 157.724 414.761 156.481L407.339 160.759Z" fill="#263238"/>
<path d="M155.801 35.2282C156.318 34.9184 157.024 34.9277 157.82 35.3873L371.964 159.064C373.496 159.948 374.738 162.099 374.738 163.868V308.242C374.738 309.319 374.276 310.272 373.569 310.652C373.116 310.895 370.733 312.282 370.025 312.662C369.571 312.906 369.017 312.914 368.418 312.57L154.279 188.847C152.746 187.966 151.503 185.817 151.503 184.048V38.9993C151.503 38.0877 151.833 37.4549 152.363 37.1779C152.861 36.9167 155.291 35.5352 155.801 35.2282Z" fill="#006EFF"/>
<path d="M369.334 312.368C370.102 312.368 370.726 311.418 370.726 310.25V165.878C370.726 164.289 369.563 162.273 368.187 161.479L154.043 37.8032C153.685 37.5963 153.337 37.4868 153.039 37.4868C152.37 37.4868 151.971 38.0522 151.971 38.9994V184.046C151.971 185.635 153.134 187.647 154.512 188.439L368.652 312.164C368.889 312.299 369.118 312.368 369.334 312.368Z" fill="#FAFAFA"/>
<path d="M153.038 37.9548C152.517 37.9548 152.439 38.6091 152.439 38.9994V184.047C152.439 185.489 153.496 187.315 154.747 188.036L368.885 311.757C369.05 311.853 369.201 311.9 369.334 311.9C369.827 311.9 370.258 311.129 370.258 310.25V165.878C370.258 164.435 369.202 162.607 367.953 161.885L153.809 38.2085C153.447 37.9988 153.19 37.9548 153.038 37.9548ZM153.039 37.0188C153.411 37.0188 153.833 37.1405 154.277 37.3979L368.421 161.073C369.953 161.958 371.194 164.109 371.194 165.878V310.25C371.194 311.649 370.417 312.836 369.334 312.836C369.048 312.836 368.739 312.753 368.418 312.569L154.279 188.846C152.746 187.965 151.503 185.816 151.503 184.047V38.9994C151.504 37.7442 152.128 37.0188 153.039 37.0188Z" fill="#E0E0E0"/>
<path d="M373.574 310.65C373.273 310.809 371.117 312.04 370.171 312.578C370.809 312.124 371.145 311.344 371.191 310.249V174.951L374.742 172.874V308.243C374.743 309.315 374.28 310.275 373.574 310.65Z" fill="#F0F0F0"/>
<path d="M151.506 38.9778C151.517 37.2256 152.752 36.5171 154.277 37.3978L368.421 161.073C369.953 161.958 371.194 164.109 371.194 165.878L371.191 174.951L151.506 48.0813V38.9778Z" fill="#006EFF"/>
<g opacity="0.4">
<path d="M154.278 37.396L368.418 161.073C369.177 161.518 369.874 162.269 370.372 163.132L373.896 161.09C373.399 160.236 372.719 159.493 371.968 159.067L157.82 35.3901C157.026 34.9277 156.32 34.9193 155.805 35.2245C155.308 35.5296 153.004 36.8381 152.42 37.1526C152.909 36.9167 153.563 36.986 154.278 37.396Z" fill="white"/>
</g>
<path opacity="0.15" d="M374.743 172.882V163.865C374.743 162.966 374.411 161.972 373.896 161.09L370.363 163.123C370.878 163.996 371.191 164.981 371.191 165.88V174.95L374.743 172.882Z" fill="black"/>
<path d="M371.192 174.951L371.195 191.287L151.506 64.4454V48.0814L371.192 174.951Z" fill="#EBEBEB"/>
<path d="M362.045 173.737L347.836 165.574V173.717L362.049 181.923L362.045 173.737Z" fill="#E0E0E0"/>
<path d="M344.328 163.508L344.327 166.727L337.241 162.635V159.416L344.328 163.508Z" fill="#E0E0E0"/>
<path d="M344.328 168.478L344.327 171.697L337.241 167.605V164.387L344.328 168.478Z" fill="#E0E0E0"/>
<path d="M333.698 157.369L333.697 160.588L326.611 156.495V153.277L333.698 157.369Z" fill="#E0E0E0"/>
<path d="M333.698 162.34L333.697 165.559L326.611 161.467V158.248L333.698 162.34Z" fill="#E0E0E0"/>
<path d="M323.068 151.23L323.067 154.449L315.98 150.357V147.138L323.068 151.23Z" fill="#E0E0E0"/>
<path d="M323.068 156.201L323.067 159.419L315.98 155.327V152.109L323.068 156.201Z" fill="#E0E0E0"/>
<path d="M291.18 132.822L291.179 136.041L284.092 131.949V128.731L291.18 132.822Z" fill="#E0E0E0"/>
<path d="M291.18 137.793L291.179 141.012L284.092 136.92V133.701L291.18 137.793Z" fill="#E0E0E0"/>
<path d="M280.55 126.684L280.549 129.903L273.462 125.811V122.592L280.55 126.684Z" fill="#E0E0E0"/>
<path d="M280.55 131.654L280.549 134.873L273.462 130.781V127.563L280.55 131.654Z" fill="#E0E0E0"/>
<path d="M269.92 120.545L269.919 123.764L262.832 119.672V116.453L269.92 120.545Z" fill="#E0E0E0"/>
<path d="M269.92 125.516L269.919 128.735L262.832 124.642V121.424L269.92 125.516Z" fill="#E0E0E0"/>
<path d="M312.44 145.096L294.722 134.867V143.05L312.437 153.277L312.44 145.096Z" fill="#E0E0E0"/>
<path d="M259.284 114.409L245.077 106.246V114.389L259.289 122.595L259.284 114.409Z" fill="#E0E0E0"/>
<path d="M241.568 104.181L241.567 107.399L234.48 103.307V100.088L241.568 104.181Z" fill="#E0E0E0"/>
<path d="M241.568 109.151L241.567 112.37L234.48 108.277V105.059L241.568 109.151Z" fill="#E0E0E0"/>
<path d="M230.938 98.0413L230.936 101.261L223.85 97.169V93.9501L230.938 98.0413Z" fill="#E0E0E0"/>
<path d="M230.938 103.012L230.936 106.231L223.85 102.139V98.9202L230.938 103.012Z" fill="#E0E0E0"/>
<path d="M220.308 91.903L220.306 95.1219L213.22 91.0298V87.8109L220.308 91.903Z" fill="#E0E0E0"/>
<path d="M220.308 96.8732L220.306 100.093L213.22 95.9999V92.7819L220.308 96.8732Z" fill="#E0E0E0"/>
<path d="M188.419 73.4919L188.417 76.7108L181.33 72.6186V69.3997L188.419 73.4919Z" fill="#E0E0E0"/>
<path d="M188.419 78.462L188.417 81.6809L181.33 77.5888V74.3708L188.419 78.462Z" fill="#E0E0E0"/>
<path d="M177.789 67.3527L177.787 70.5716L170.7 66.4794V63.2614L177.789 67.3527Z" fill="#E0E0E0"/>
<path d="M177.789 72.3238L177.787 75.5427L170.7 71.4505V68.2316L177.789 72.3238Z" fill="#E0E0E0"/>
<path d="M167.158 61.2144L167.156 64.4333L160.07 60.3411V57.1222L167.158 61.2144Z" fill="#E0E0E0"/>
<path d="M167.158 66.1845L167.156 69.4034L160.07 65.3112V62.0933L167.158 66.1845Z" fill="#E0E0E0"/>
<path d="M209.677 85.7685L191.96 75.5399V83.7224L209.673 93.95L209.677 85.7685Z" fill="#E0E0E0"/>
<path d="M371.192 174.951L374.743 172.874V189.244L371.195 191.287L371.192 174.951Z" fill="#E0E0E0"/>
<path d="M208.198 74.3773V74.9792C208.198 75.9423 207.522 76.3336 206.687 75.8515L163.645 51.0007C162.81 50.5187 162.134 49.3478 162.133 48.3837V47.7809C162.133 46.8178 162.809 46.4265 163.644 46.9085L206.687 71.7603C207.521 72.2423 208.198 73.4142 208.198 74.3773Z" fill="#F5F5F5"/>
<path d="M162.134 48.3837V47.7809C162.134 46.8178 162.81 46.4265 163.645 46.9085L169.22 50.1284L169.221 54.2206L163.645 51.0017C162.811 50.5187 162.134 49.3478 162.134 48.3837Z" fill="#455A64"/>
<path d="M367.651 193.325L155.044 70.5969V78.7597L349.94 191.288L349.943 297.669L367.651 307.893V193.325Z" fill="#F0F0F0"/>
<path d="M349.94 191.288L332.237 181.067V189.23L349.94 199.468V191.288Z" fill="#006EFF"/>
<path d="M349.94 256.744L332.237 246.524V254.687L349.94 264.924V256.744Z" fill="#006EFF"/>
<path d="M349.94 264.927L332.237 254.707V262.87L349.94 273.107V264.927Z" fill="#006EFF"/>
<path opacity="0.8" d="M349.94 264.927L332.237 254.707V262.87L349.94 273.107V264.927Z" fill="white"/>
<path d="M243.648 195.37L225.946 185.15V193.313L243.648 203.55V195.37Z" fill="#006EFF"/>
<path opacity="0.3" d="M243.648 195.37L225.946 185.15V193.313L243.648 203.55V195.37Z" fill="black"/>
<path d="M243.648 203.555L225.946 193.334V201.496L243.648 211.734V203.555Z" fill="#006EFF"/>
<path opacity="0.4" d="M243.648 203.555L225.946 193.334V201.496L243.648 211.734V203.555Z" fill="black"/>
<path d="M243.648 211.738L225.946 201.518V209.681L243.648 219.918V211.738Z" fill="#006EFF"/>
<path opacity="0.5" d="M243.648 211.738L225.946 201.518V209.681L243.648 219.918V211.738Z" fill="black"/>
<path d="M243.648 219.922L225.946 209.701V217.864L243.648 228.101V219.922Z" fill="#006EFF"/>
<path opacity="0.3" d="M243.648 219.922L225.946 209.701V217.864L243.648 228.101V219.922Z" fill="black"/>
<path d="M261.35 140.135L243.648 129.914V170.829L261.35 181.067V140.135Z" fill="#006EFF"/>
<path d="M261.35 189.237L243.648 179.016V236.297L261.35 246.535V189.237Z" fill="#006EFF"/>
<path d="M332.237 230.15L314.535 219.93V228.092L332.237 238.33V230.15Z" fill="#006EFF"/>
<path opacity="0.3" d="M332.237 230.15L314.535 219.93V228.092L332.237 238.33V230.15Z" fill="black"/>
<path d="M296.783 168.776L279.082 158.555V166.717L296.783 176.955V168.776Z" fill="#006EFF"/>
<path opacity="0.6" d="M296.783 168.776L279.082 158.555V166.717L296.783 176.955V168.776Z" fill="white"/>
<path d="M208.194 166.73L190.492 156.509V164.672L208.194 174.909V166.73Z" fill="#006EFF"/>
<path opacity="0.8" d="M208.194 166.73L190.492 156.509V164.672L208.194 174.909V166.73Z" fill="white"/>
<path d="M208.194 183.103L190.492 172.882V181.045L208.194 191.283V183.103Z" fill="#006EFF"/>
<path d="M367.869 192.955L368.087 193.082L368.089 308.654L154.829 185.526L154.611 185.4L154.609 69.8284L367.869 192.955ZM155.484 176.739L172.322 186.461V179.282L155.484 169.561V176.739ZM367.214 201.765L350.372 192.041V199.219L367.214 208.943V201.765ZM261.782 190.006V197.184L278.628 206.91V199.732L261.782 190.006ZM278.628 198.726V191.548L261.782 181.822V189L278.628 198.726ZM260.91 189.503L244.065 179.777V186.955L260.91 196.68V189.503ZM260.91 188.495V181.317L244.065 171.591V178.769L260.91 188.495ZM260.91 180.31V173.131L244.065 163.405V170.584L260.91 180.31ZM260.91 172.125V164.947L244.065 155.221V162.399L260.91 172.125ZM261.782 172.628L278.628 182.354V175.176L261.782 165.45V172.628ZM261.782 173.635V180.814L278.628 190.54V183.36L261.782 173.635ZM279.501 191.043L296.346 200.768V193.589L279.501 183.864V191.043ZM279.501 192.05V199.229L296.346 208.954V201.775L279.501 192.05ZM279.501 200.236V207.414L296.346 217.139V209.961L279.501 200.236ZM279.501 208.421V215.599L296.346 225.325V218.146L279.501 208.421ZM278.628 207.917L261.782 198.191V205.37L278.628 215.096V207.917ZM261.782 206.377V213.555L278.628 223.281V216.103L261.782 206.377ZM260.91 205.873L244.065 196.147V203.325L260.91 213.05V205.873ZM260.91 204.866V197.688L244.065 187.963V195.141L260.91 204.866ZM243.192 187.458L226.347 177.733V184.911L243.192 194.637V187.458ZM243.192 186.452V179.274L226.347 169.549V176.727L243.192 186.452ZM243.192 178.267V171.089L226.347 161.363V168.541L243.192 178.267ZM243.192 170.081V162.903L226.347 153.178V160.356L243.192 170.081ZM243.192 161.895V154.717L226.347 144.992V152.17L243.192 161.895ZM243.192 153.711V146.533L226.347 136.808V143.986L243.192 153.711ZM244.065 154.213L260.91 163.939V156.761L244.065 147.036V154.213ZM261.782 164.443L278.628 174.169V166.991L261.782 157.265V164.443ZM279.501 174.673L296.346 184.399V177.22L279.501 167.495V174.673ZM279.501 175.68V182.858L296.346 192.583V185.405L279.501 175.68ZM297.217 193.087L314.064 202.813V195.635L297.217 185.909V193.087ZM297.217 194.094V201.273L314.064 210.999V203.82L297.217 194.094ZM297.217 202.28V209.459L314.064 219.185V212.006L297.217 202.28ZM297.217 210.465V217.643L314.064 227.369V220.191L297.217 210.465ZM297.217 218.65V225.829L314.064 235.555V228.376L297.217 218.65ZM297.217 226.836V234.014L314.064 243.74V236.562L297.217 226.836ZM296.346 226.332L279.501 216.607V223.785L296.346 233.511V226.332ZM279.501 224.792V231.97L296.346 241.695V234.517L279.501 224.792ZM278.628 224.288L261.782 214.562V221.74L278.628 231.466V224.288ZM260.91 214.058L244.065 204.333V211.512L260.91 221.238V214.058ZM243.192 203.829L226.347 194.104V201.282L243.192 211.008V203.829ZM243.192 202.823V195.645L226.347 185.92V193.098L243.192 202.823ZM225.476 185.415L208.63 175.689V182.867L225.476 192.593V185.415ZM225.476 184.408V177.23L208.63 167.504V174.682L225.476 184.408ZM225.476 176.223V169.044L208.63 159.318V166.497L225.476 176.223ZM225.476 168.037V160.859L208.63 151.133V158.311L225.476 168.037ZM225.476 159.852V152.674L208.63 142.948V150.126L225.476 159.852ZM225.476 151.667V144.488L208.63 134.762V141.941L225.476 151.667ZM225.476 143.481V136.303L208.63 126.577V133.755L225.476 143.481ZM225.476 135.296V128.118L208.63 118.392V125.57L225.476 135.296ZM226.347 135.8L243.192 145.525V138.347L226.347 128.622V135.8ZM244.065 146.028L260.91 155.753V148.575L244.065 138.849V146.028ZM261.782 156.258L278.628 165.984V158.805L261.782 149.079V156.258ZM279.501 166.487L296.346 176.213V169.035L279.501 159.309V166.487ZM297.217 176.716L314.064 186.442V179.264L297.217 169.538V176.716ZM297.217 177.724V184.902L314.064 194.628V187.45L297.217 177.724ZM314.936 195.132L331.781 204.858V197.679L314.936 187.954V195.132ZM314.936 196.139V203.317L331.781 213.043V205.865L314.936 196.139ZM314.936 204.323V211.502L331.781 221.227V214.048L314.936 204.323ZM314.936 212.509V219.689L331.781 229.414V222.234L314.936 212.509ZM314.936 220.695V227.873L331.781 237.599V230.421L314.936 220.695ZM314.936 228.879V236.058L331.781 245.784V238.605L314.936 228.879ZM314.936 237.065V244.244L331.781 253.969V246.79L314.936 237.065ZM314.936 245.25V252.429L331.781 262.154V254.975L314.936 245.25ZM314.064 244.746L297.217 235.02V242.199L314.064 251.925V244.746ZM297.217 243.206V250.385L314.064 260.111V252.932L297.217 243.206ZM296.346 242.703L279.501 232.978V240.156L296.346 249.882V242.703ZM278.628 232.473L261.782 222.747V229.926L278.628 239.652V232.473ZM260.91 222.244L244.065 212.518V219.696L260.91 229.422V222.244ZM243.192 212.015L226.347 202.289V209.467L243.192 219.193V212.015ZM225.476 201.786L208.63 192.06V199.238L225.476 208.964V201.786ZM225.476 200.779V193.6L208.63 183.874V191.053L225.476 200.779ZM207.757 183.371L190.912 173.646V180.824L207.757 190.549V183.371ZM207.757 182.364V175.185L190.912 165.46V172.639L207.757 182.364ZM207.757 174.178V167L190.912 157.275V164.453L207.757 174.178ZM207.757 165.993V158.815L190.912 149.09V156.268L207.757 165.993ZM207.757 157.808V150.63L190.912 140.904V148.083L207.757 157.808ZM207.757 149.622V142.444L190.912 132.719V139.897L207.757 149.622ZM207.757 141.437V134.259L190.912 124.534V131.712L207.757 141.437ZM207.757 133.252V126.074L190.912 116.348V123.526L207.757 133.252ZM207.757 125.066V117.888L190.912 108.163V115.341L207.757 125.066ZM207.757 116.881V109.703L190.912 99.9779V107.156L207.757 116.881ZM208.63 117.385L225.476 127.111V119.932L208.63 110.206V117.385ZM226.347 127.614L243.192 137.339V130.161L226.347 120.436V127.614ZM244.065 137.843L260.91 147.568V140.39L244.065 130.664V137.843ZM261.782 148.072L278.628 157.798V150.62L261.782 140.894V148.072ZM279.501 158.302L296.346 168.027V160.849L279.501 151.124V158.302ZM297.217 168.531L314.064 178.256V171.078L297.217 161.352V168.531ZM314.936 178.76L331.781 188.486V181.308L314.936 171.582V178.76ZM314.936 179.768V186.946L331.781 196.671V189.493L314.936 179.768ZM332.653 197.175L349.5 206.901V199.723L332.653 189.997V197.175ZM332.653 198.182V205.36L349.5 215.086V207.908L332.653 198.182ZM332.653 206.367V213.546L349.5 223.272V216.093L332.653 206.367ZM332.653 214.553V221.732L349.5 231.458V224.279L332.653 214.553ZM332.653 222.738V229.917L349.5 239.643V232.464L332.653 222.738ZM332.653 230.923V238.102L349.5 247.827V240.649L332.653 230.923ZM332.653 239.109V246.288L349.5 256.014V248.835L332.653 239.109ZM332.653 247.294V254.472L349.5 264.198V257.02L332.653 247.294ZM332.653 255.479V262.658L349.5 272.384V265.205L332.653 255.479ZM332.653 263.665V270.844L349.5 280.57V273.391L332.653 263.665ZM331.781 263.161L314.936 253.436V260.615L331.781 270.341V263.161ZM314.936 261.621V268.799L331.781 278.525V271.346L314.936 261.621ZM314.064 261.118L297.217 251.392V258.57L314.064 268.296V261.118ZM296.346 250.888L279.501 241.162V248.34L296.346 258.065V250.888ZM278.628 240.659L261.782 230.933V238.111L278.628 247.837V240.659ZM260.91 230.429L244.065 220.703V227.881L260.91 237.606V230.429ZM243.192 220.201L226.347 210.475V217.653L243.192 227.379V220.201ZM225.476 209.971L208.63 200.245V207.423L225.476 217.149V209.971ZM207.757 199.741L190.912 190.016V197.195L207.757 206.921V199.741ZM207.757 198.734V191.556L190.912 181.831V189.009L207.757 198.734ZM190.04 181.327L173.194 171.602V178.78L190.04 188.506V181.327ZM190.04 180.32V173.142L173.194 163.416V170.594L190.04 180.32ZM190.04 172.135V164.957L173.194 155.231V162.409L190.04 172.135ZM190.04 163.949V156.771L173.194 147.045V154.223L190.04 163.949ZM190.04 155.763V148.585L173.194 138.859V146.037L190.04 155.763ZM190.04 147.578V140.4L173.194 130.674V137.852L190.04 147.578ZM190.04 139.393V132.215L173.194 122.489V129.667L190.04 139.393ZM190.04 131.208V124.029L173.194 114.303V121.482L190.04 131.208ZM190.04 123.022V115.844L173.194 106.118V113.296L190.04 123.022ZM190.04 114.837V107.659L173.194 97.9327V105.111L190.04 114.837ZM190.04 106.652V99.4734L173.194 89.7474V96.9256L190.04 106.652ZM190.04 98.4662V91.2918L173.194 81.5658V88.7403L190.04 98.4662ZM190.912 98.9698L207.757 108.696V101.521L190.912 91.7954V98.9698ZM208.63 109.199L225.476 118.925V111.751L208.63 102.025V109.199ZM226.347 119.429L243.192 129.154V121.979L226.347 112.254V119.429ZM244.065 129.657L260.91 139.383V132.209L244.065 122.483V129.657ZM261.782 139.887L278.628 149.613V142.44L261.782 132.714V139.887ZM279.501 150.117L296.346 159.842V152.668L279.501 142.943V150.117ZM297.217 160.345L314.064 170.071V162.898L297.217 153.172V160.345ZM314.936 170.575L331.781 180.3V173.126L314.936 163.4V170.575ZM332.653 180.804L349.5 190.53V183.357L332.653 173.631V180.804ZM332.653 181.811V188.99L349.5 198.716V191.537L332.653 181.811ZM367.214 209.95L350.372 200.226V207.404L367.214 217.129V209.95ZM367.214 218.136L350.372 208.412V215.59L367.214 225.314V218.136ZM367.214 226.321L350.372 216.597V223.775L367.215 233.499L367.214 226.321ZM367.214 234.506L350.371 224.782V231.961L367.214 241.685V234.506ZM367.215 242.692L350.372 232.968V240.147L367.215 249.871V242.692ZM367.215 250.878L350.372 241.154V248.332L367.215 258.056V250.878ZM367.215 259.062L350.372 249.338V256.517L367.215 266.242V259.062ZM367.215 267.249L350.372 257.524V264.703L367.215 274.428V267.249ZM367.215 275.433L350.372 265.708V272.887L367.215 282.612V275.433ZM367.215 283.619L350.372 273.894V281.073L367.216 290.798L367.215 283.619ZM367.215 291.805L350.371 282.079V289.258L367.215 298.983V291.805ZM349.5 281.576L332.653 271.85V279.028L349.5 288.754V281.576ZM332.653 280.035V287.187L349.5 296.913V289.76L332.653 280.035ZM331.781 279.532L314.936 269.807V276.959L331.781 286.685V279.532ZM314.064 269.302L297.217 259.576V266.728L314.064 276.454V269.302ZM296.346 259.074L279.501 249.348V256.5L296.346 266.226V259.074ZM278.628 248.844L261.782 239.118V246.27L278.628 255.996V248.844ZM260.91 238.614L244.065 228.889V236.04L260.91 245.765V238.614ZM243.192 228.385L226.347 218.66V225.811L243.192 235.537V228.385ZM225.476 218.156L208.63 208.43V215.581L225.476 225.307V218.156ZM207.757 207.927L190.912 198.202V205.352L207.757 215.078V207.927ZM190.04 197.698L173.194 187.972V195.122L190.04 204.848V197.698ZM190.04 196.69V189.512L173.194 179.786V186.964L190.04 196.69ZM155.484 168.554L172.322 178.275V171.097L155.484 161.376V168.554ZM155.484 160.369L172.322 170.091V162.913L155.484 153.191V160.369ZM155.484 152.183L172.322 161.905V154.727L155.484 145.005V152.183ZM155.483 143.998L172.321 153.72V146.542L155.483 136.82V143.998ZM155.483 135.812L172.321 145.534V138.356L155.483 128.634V135.812ZM155.483 127.627L172.321 137.35V130.171L155.482 120.449L155.483 127.627ZM155.483 119.441L172.322 129.163V121.985L155.483 112.263V119.441ZM155.483 111.256L172.322 120.978V113.8L155.483 104.078V111.256ZM155.483 103.07L172.322 112.793V105.614L155.483 95.8922V103.07ZM155.483 94.8851L172.322 104.607V97.4291L155.483 87.7069V94.8851ZM155.482 86.6998L172.321 96.422V89.2448L155.482 79.5225V86.6998ZM155.482 78.5145L172.321 88.2367V81.0622L155.482 71.34V78.5145ZM350.372 183.86V191.034L367.214 200.758V193.584L350.372 183.86ZM367.215 299.99L350.371 290.265V297.418L367.215 307.143V299.99ZM172.321 194.619V187.469L155.483 177.747V184.897L172.321 194.619Z" fill="#E0E0E0"/>
<path d="M225.946 119.668L155.044 78.7653V119.692L225.946 160.584V119.668Z" fill="#FAFAFA" stroke="#E0E0E0" stroke-miterlimit="10"/>
<path d="M222.361 150.372L212.779 124.206L202.184 130.541L191.532 119.69L180.908 126.693L170.285 100.535L159.661 105.983" stroke="#455A64" stroke-width="0.75" stroke-miterlimit="10" stroke-linecap="round" stroke-linejoin="round"/>
<path d="M212.779 122.968C213.369 123.309 213.847 124.139 213.847 124.824C213.847 125.508 213.369 125.785 212.779 125.443C212.189 125.1 211.711 124.269 211.711 123.587C211.711 122.904 212.189 122.627 212.779 122.968Z" fill="#006EFF"/>
<path d="M202.155 129.303C202.745 129.643 203.223 130.474 203.223 131.159C203.223 131.843 202.745 132.12 202.155 131.778C201.566 131.435 201.087 130.605 201.087 129.921C201.087 129.239 201.566 128.962 202.155 129.303Z" fill="#006EFF"/>
<path d="M191.532 118.455C192.122 118.796 192.6 119.626 192.6 120.312C192.6 120.996 192.122 121.273 191.532 120.93C190.942 120.588 190.464 119.757 190.464 119.074C190.464 118.392 190.942 118.115 191.532 118.455Z" fill="#006EFF"/>
<path d="M180.908 125.451C181.498 125.792 181.976 126.622 181.976 127.307C181.976 127.991 181.498 128.269 180.908 127.926C180.319 127.583 179.84 126.753 179.84 126.07C179.84 125.388 180.319 125.11 180.908 125.451Z" fill="#006EFF"/>
<path d="M170.285 99.2965C170.874 99.6372 171.353 100.467 171.353 101.153C171.353 101.837 170.874 102.114 170.285 101.771C169.695 101.429 169.217 100.598 169.217 99.9152C169.217 99.2328 169.695 98.9558 170.285 99.2965Z" fill="#006EFF"/>
<path d="M159.661 104.746C160.251 105.087 160.729 105.917 160.729 106.602C160.729 107.286 160.251 107.563 159.661 107.221C159.071 106.878 158.593 106.047 158.593 105.365C158.593 104.682 159.071 104.405 159.661 104.746Z" fill="#006EFF"/>
<path d="M125.548 229.503L144.4 240.386L125.546 251.273L106.693 240.387L125.548 229.503Z" fill="#455A64"/>
<path d="M106.691 240.363L106.692 283.657L125.545 294.541L125.547 251.275L106.691 240.363Z" fill="#37474F"/>
<path d="M125.547 251.275L125.545 294.541L144.399 283.656L144.4 240.366L125.547 251.275Z" fill="#263238"/>
<path d="M150.352 262.596L169.204 273.48L150.35 284.366L131.497 273.481L150.352 262.596Z" fill="#006EFF"/>
<path opacity="0.3" d="M150.352 262.596L169.204 273.48L150.35 284.366L131.497 273.481L150.352 262.596Z" fill="white"/>
<path d="M131.495 273.456L131.496 297.978L150.349 308.862L150.351 284.367L131.495 273.456Z" fill="#006EFF"/>
<path d="M150.351 284.367L150.349 308.862L169.203 297.976L169.204 273.459L150.351 284.367Z" fill="#006EFF"/>
<path opacity="0.1" d="M150.351 284.367L150.349 308.862L169.203 297.976L169.204 273.459L150.351 284.367Z" fill="black"/>
<path d="M175.156 266.734L194.008 277.619L175.154 288.504L156.301 277.62L175.156 266.734Z" fill="#006EFF"/>
<path opacity="0.88" d="M175.156 266.734L194.008 277.619L175.154 288.504L156.301 277.62L175.156 266.734Z" fill="white"/>
<path d="M156.298 277.595L156.3 312.297L175.153 323.183L175.154 288.506L156.298 277.595Z" fill="#006EFF"/>
<path opacity="0.75" d="M156.298 277.595L156.3 312.297L175.153 323.183L175.154 288.506L156.298 277.595Z" fill="white"/>
<path d="M175.154 288.506L175.153 323.183L194.007 312.296L194.008 277.597L175.154 288.506Z" fill="#006EFF"/>
<path opacity="0.6" d="M175.154 288.506L175.153 323.183L194.007 312.296L194.008 277.597L175.154 288.506Z" fill="white"/>
<path d="M199.958 303.496L218.81 314.38L199.957 325.267L181.104 314.381L199.958 303.496Z" fill="#006EFF"/>
<path opacity="0.3" d="M199.958 303.496L218.81 314.38L199.957 325.267L181.104 314.381L199.958 303.496Z" fill="black"/>
<path d="M181.102 314.357L181.103 326.618L199.956 337.503L199.958 325.268L181.102 314.357Z" fill="#006EFF"/>
<path opacity="0.4" d="M181.102 314.357L181.103 326.618L199.956 337.503L199.958 325.268L181.102 314.357Z" fill="black"/>
<path d="M199.958 325.268L199.956 337.503L218.81 326.617L218.812 314.359L199.958 325.268Z" fill="#006EFF"/>
<path opacity="0.55" d="M199.958 325.268L199.956 337.503L218.81 326.617L218.812 314.359L199.958 325.268Z" fill="black"/>
<path d="M302.653 379.644V386.78L309.701 367.624V360.498C309.701 360.498 309.701 360.498 309.692 360.506L302.653 379.644Z" fill="#263238"/>
<path d="M302.65 379.648V386.78L273.577 376.696V369.564L302.65 379.648Z" fill="#37474F"/>
<path d="M309.701 360.495L302.649 379.649L273.576 369.564C281.558 362.598 295.434 359.115 309.701 360.495Z" fill="#455A64"/>
<path d="M340.076 380.971C340.084 381.041 340.084 381.119 340.084 381.189V380.971H340.076Z" fill="#006EFF"/>
<path d="M305.549 388.647L309.867 408.954C327.488 407.236 340.223 398.32 340.075 388.132L340.083 388.15V381.189C340.083 391.299 327.382 400.118 309.867 401.828L306.9 387.871L305.549 388.647Z" fill="#006EFF"/>
<path opacity="0.4" d="M305.549 388.647L309.867 408.954C327.488 407.236 340.223 398.32 340.075 388.132L340.083 388.15V381.189C340.083 391.299 327.382 400.118 309.867 401.828L306.9 387.871L305.549 388.647Z" fill="black"/>
<path d="M306.559 402.063V409.195C298.864 409.558 291.829 408.594 285.103 406.261C276.792 403.377 270.926 398.8 268.58 393.37C267.866 391.719 267.506 390.049 267.488 388.39C267.481 387.715 267.487 381.02 267.487 381.02C267.487 381.02 269.5 380.862 271.859 378.346L277.303 380.234L302.238 388.885L306.559 402.063Z" fill="#006EFF"/>
<path opacity="0.6" d="M306.559 402.063V409.195C298.864 409.558 291.829 408.594 285.103 406.261C276.792 403.377 270.926 398.8 268.58 393.37C267.866 391.719 267.506 390.049 267.488 388.39C267.481 387.715 267.487 381.02 267.487 381.02C267.487 381.02 269.5 380.862 271.859 378.346L277.303 380.234L302.238 388.885L306.559 402.063Z" fill="white"/>
<path d="M328.256 372.817L306.595 385.322V378.191L328.256 365.685V372.817Z" fill="#006EFF"/>
<path opacity="0.1" d="M328.256 372.817L306.595 385.322V378.191L328.256 365.685V372.817Z" fill="black"/>
<path d="M339.814 378.616C342.185 389.763 328.856 399.972 309.867 401.826L305.547 381.516L330.609 367.047C335.842 370.325 338.858 374.118 339.814 378.616Z" fill="#006EFF"/>
<path opacity="0.3" d="M339.814 378.616C342.185 389.763 328.856 399.972 309.867 401.826L305.547 381.516L330.609 367.047C335.842 370.325 338.858 374.118 339.814 378.616Z" fill="black"/>
<path d="M306.432 401.468L306.559 402.063C298.864 402.426 291.829 401.463 285.103 399.128C276.792 396.244 270.926 391.667 268.58 386.238C266.371 381.12 267.538 375.822 271.859 371.214L277.303 373.102L302.238 381.752L306.432 401.468Z" fill="#006EFF"/>
<path opacity="0.75" d="M306.432 401.468L306.559 402.063C298.864 402.426 291.829 401.463 285.103 399.128C276.792 396.244 270.926 391.667 268.58 386.238C266.371 381.12 267.538 375.822 271.859 371.214L277.303 373.102L302.238 381.752L306.432 401.468Z" fill="white"/>
<path d="M328.256 365.685L306.596 378.191L312.965 360.892C318.99 361.763 323.704 363.242 328.256 365.685Z" fill="#006EFF"/>
<path d="M305.548 388.65V381.516L309.867 401.826V408.958L305.548 388.65Z" fill="#006EFF"/>
<path opacity="0.55" d="M305.548 388.65V381.516L309.867 401.826V408.958L305.548 388.65Z" fill="black"/>
<path d="M277.916 349.794L282.635 352.518L277.916 355.243L273.198 352.518L277.916 349.794Z" fill="#006EFF"/>
<path opacity="0.3" d="M277.916 349.794L282.635 352.518L277.916 355.243L273.198 352.518L277.916 349.794Z" fill="black"/>
<path d="M273.197 352.513V355.247L277.916 357.971V355.244L273.197 352.513Z" fill="#006EFF"/>
<path opacity="0.4" d="M273.197 352.513V355.247L277.916 357.971V355.244L273.197 352.513Z" fill="black"/>
<path d="M277.916 355.244V357.971L282.635 355.247L282.635 352.513L277.916 355.244Z" fill="#006EFF"/>
<path opacity="0.55" d="M277.916 355.244V357.971L282.635 355.247L282.635 352.513L277.916 355.244Z" fill="black"/>
<path d="M270.713 347.68L253.229 337.586C252.186 336.984 250.548 336.953 249.568 337.519C248.59 338.084 248.642 339.03 249.685 339.632L267.168 349.726C268.211 350.328 269.85 350.359 270.829 349.794C271.808 349.229 271.755 348.283 270.713 347.68Z" fill="#E0E0E0"/>
<path d="M267.286 355.932L272.004 358.656L267.286 361.38L262.567 358.657L267.286 355.932Z" fill="#006EFF"/>
<path opacity="0.88" d="M267.286 355.932L272.004 358.656L267.286 361.38L262.567 358.657L267.286 355.932Z" fill="white"/>
<path d="M262.567 358.65V361.384L267.285 364.109L267.286 361.381L262.567 358.65Z" fill="#006EFF"/>
<path opacity="0.75" d="M262.567 358.65V361.384L267.285 364.109L267.286 361.381L262.567 358.65Z" fill="white"/>
<path d="M267.286 361.381L267.285 364.109L272.004 361.384V358.651L267.286 361.381Z" fill="#006EFF"/>
<path opacity="0.6" d="M267.286 361.381L267.285 364.109L272.004 361.384V358.651L267.286 361.381Z" fill="white"/>
<path d="M260.082 353.818L242.599 343.724C241.556 343.123 239.917 343.092 238.938 343.657C237.96 344.222 238.012 345.168 239.055 345.771L256.539 355.864C257.582 356.466 259.221 356.497 260.2 355.932C261.177 355.366 261.124 354.42 260.082 353.818Z" fill="#E0E0E0"/>
<path d="M256.656 362.069L261.374 364.794L256.655 367.519L251.937 364.794L256.656 362.069Z" fill="#006EFF"/>
<path opacity="0.3" d="M256.656 362.069L261.374 364.794L256.655 367.519L251.937 364.794L256.656 362.069Z" fill="white"/>
<path d="M251.936 364.787L251.937 367.521L256.655 370.246V367.519L251.936 364.787Z" fill="#006EFF"/>
<path d="M256.655 367.519V370.246L261.373 367.521L261.374 364.788L256.655 367.519Z" fill="#006EFF"/>
<path opacity="0.1" d="M256.655 367.519V370.246L261.373 367.521L261.374 364.788L256.655 367.519Z" fill="black"/>
<path d="M249.451 359.956L231.967 349.862C230.924 349.26 229.285 349.229 228.306 349.794C227.328 350.359 227.38 351.305 228.423 351.908L245.906 362.002C246.949 362.604 248.588 362.634 249.567 362.069C250.547 361.504 250.494 360.558 249.451 359.956Z" fill="#E0E0E0"/>
<path d="M246.025 368.207L250.744 370.931L246.025 373.656L241.305 370.931L246.025 368.207Z" fill="#455A64"/>
<path d="M241.305 370.926V373.66L246.024 376.383L246.025 373.656L241.305 370.926Z" fill="#37474F"/>
<path d="M246.025 373.656L246.024 376.383L250.743 373.659L250.744 370.926L246.025 373.656Z" fill="#263238"/>
<path d="M238.82 366.093L221.338 355.999C220.295 355.397 218.656 355.366 217.677 355.932C216.699 356.497 216.75 357.443 217.794 358.045L235.278 368.139C236.32 368.741 237.959 368.772 238.938 368.207C239.916 367.642 239.863 366.696 238.82 366.093Z" fill="#E0E0E0"/>
<path d="M98.0629 220.407C91.5745 220.372 88.496 222.232 86.1607 228.445C83.8254 234.658 77.6281 248.893 77.5083 253.126C77.3838 257.517 91.5174 270.824 91.011 270.595C90.8557 270.525 95.3185 262.529 95.3185 262.529L87.369 252.786L91.9265 239.558L98.0629 220.407Z" fill="#FFA8A7"/>
<path d="M90.0329 365.837C89.636 366.217 89.5602 366.584 89.5733 367.967C89.5864 369.353 89.0014 370.897 89.7119 372.188C90.2435 373.153 92.9532 373.818 94.331 373.103C95.4776 372.507 96.6205 371.183 97.5087 370.245C98.3979 369.307 99.2553 368.327 100.291 367.555C101.46 366.685 102.817 366.106 104.035 365.308C105.944 364.058 107.252 361.984 107.428 359.702C107.481 359.023 107.369 358.135 106.994 357.567C106.495 356.81 105.446 356.624 104.551 356.768C103.231 356.979 98.7611 359.477 97.7268 360.192C96.4295 361.089 90.4429 365.446 90.0329 365.837Z" fill="#263238"/>
<path d="M96.6055 360.105C96.6476 361.099 100.836 358.774 102.552 359.001C102.57 359.004 102.584 359.016 102.6 359.023C104.192 359.79 102.87 362.024 101.386 363.168C99.9011 364.312 95.0611 367.869 95.0611 367.869L94.0699 362.128L96.6055 360.105Z" fill="#FFA8A7"/>
<path d="M114.759 376.275C113.983 376.272 113.637 378.815 113.495 380.777C113.384 382.293 112.81 384.766 113.346 385.88C113.882 386.994 115.926 387.69 119.081 387.626C121.124 387.584 124.326 388.93 126.523 390.118C128.791 391.345 131.235 391.318 133.613 391.007C136.416 390.641 139.303 388.976 139.741 387.807C140.179 386.638 139.589 386.088 132.937 383.355C132.876 383.329 125.921 380.296 122.674 376.806L114.759 376.275Z" fill="#263238"/>
<path d="M132.937 383.357C133.858 383.735 134.652 384.068 135.354 384.37C135.534 384.999 135.293 385.995 132.354 386.485C127.874 387.232 114.711 377.324 114.711 377.324C114.711 377.324 116.598 377.844 116.952 376.764L122.674 376.807C125.92 380.298 132.876 383.331 132.937 383.357Z" fill="#FFA8A7"/>
<path d="M87.369 333.281C87.369 325.277 88.6551 320.297 88.6551 320.297C88.6551 320.297 87.8745 303.583 87.7846 293.077C87.6068 272.3 88.0046 269.249 92.6003 260.285C92.6003 260.285 119.435 257.144 120.565 270.222C121.973 286.509 123.61 313.761 123.567 321.517C123.535 327.292 122.881 333.551 122.563 346.647C122.359 355.033 121.474 366.884 122.674 376.808C121.156 379.35 117.051 379.306 114.711 377.325C114.038 367.608 109.215 349.003 108.467 342.51C107.693 335.788 109.04 328.482 109.04 328.482C109.04 328.482 105.485 300.742 104.861 296.52C104.861 296.52 103.247 304.295 103.304 310.07C103.323 311.911 102.667 318.09 101.613 328.482C100.971 334.811 96.4922 359.538 95.5225 367.488C93.2761 369.657 90.3736 368.162 90.2425 367.217C89.4919 357.515 87.369 339.334 87.369 333.281Z" fill="#FFA8A7"/>
<path opacity="0.15" d="M104.861 296.519L102.489 283.048C102.489 283.048 96.9893 282.607 91.9264 277.502C91.9264 277.502 93.3473 282.89 100.321 284.723L103.097 296.911L103.567 308.024L104.861 296.519Z" fill="black"/>
<path d="M111.594 215.887L110.475 228.097L99.7495 227.447L100.571 213.906L111.594 215.887Z" fill="#FFA8A7"/>
<path d="M90.0638 263.564C91.1083 260.984 91.6943 259.25 94.7017 254.291C90.1171 239.524 88.6495 234.551 89.5396 228.238C90.1059 224.221 93.2621 220.206 97.1736 220.416C97.1736 220.416 99.2871 220.42 100.176 220.416C100.352 223.215 108.129 223.352 111.08 221.426L113.795 221.498C115.717 222.178 122.252 231.751 122.973 238.106C123.558 243.27 119.513 247.745 119.513 247.745C119.357 249.798 119.897 254.292 119.897 254.292C119.897 254.292 119.877 266.787 119.897 272.999C119.897 272.999 118.381 277.79 102.642 276.291C88.642 274.958 88.2994 270.175 88.2994 270.175C88.2994 270.175 88.7066 266.918 90.0638 263.564Z" fill="#006EFF"/>
<g opacity="0.3">
<path d="M90.0638 263.564C91.1083 260.984 91.6943 259.25 94.7017 254.291C90.1171 239.524 88.6495 234.551 89.5396 228.238C90.1059 224.221 93.2621 220.206 97.1736 220.416C97.1736 220.416 99.2871 220.42 100.176 220.416C100.352 223.215 108.129 223.352 111.08 221.426L113.795 221.498C115.717 222.178 122.252 231.751 122.973 238.106C123.558 243.27 119.513 247.745 119.513 247.745C119.357 249.798 119.897 254.292 119.897 254.292C119.897 254.292 119.877 266.787 119.897 272.999C119.897 272.999 118.381 277.79 102.642 276.291C88.642 274.958 88.2994 270.175 88.2994 270.175C88.2994 270.175 88.7066 266.918 90.0638 263.564Z" fill="black"/>
</g>
<path d="M109.967 187.322C109.967 187.322 115.03 186.434 118.592 190.447C124.081 196.628 118.062 201.176 118.062 201.176L109.967 187.322Z" fill="#263238"/>
<path d="M119.513 202.47C119.513 202.47 121.897 206.054 121.588 206.434C121.279 206.815 119.772 207.223 119.772 207.223L119.513 202.47Z" fill="#F28F8F"/>
<path d="M112.226 191.113C114.538 192.3 118.533 194.493 119.582 202.994C120.659 211.72 118.723 214.76 117.536 215.907C116.734 216.681 112.59 216.972 110.426 216.307C107.719 215.474 101.85 212.593 99.0906 208.095C95.8445 202.803 95.1575 195.74 98.8818 192.96C104.122 189.048 110.27 190.109 112.226 191.113Z" fill="#FFA8A7"/>
<path d="M113.382 201.152C118.217 198.69 116.985 192.27 116.985 192.27C116.985 192.27 110.075 182.4 97.3318 188.784C92.9233 190.993 90.2772 196.01 90.3848 201.883C90.3848 209.522 96.5774 215.714 104.216 215.714C108.67 215.714 112.28 212.104 112.28 207.651V207.117L111.872 207.249C111.173 207.427 109.664 207.583 108.108 206.243C105.987 204.416 105.731 200.831 108.419 199.927C111.087 199.028 112.507 202.132 112.507 202.132L112.51 202.128L113.55 204.982C114.604 204.598 115.147 203.433 114.763 202.379C114.529 201.738 113.994 201.321 113.382 201.152Z" fill="#263238"/>
<path d="M142.624 203.123L165.633 214.647L154.813 245.826L133.329 234.256L142.624 203.123Z" fill="#006EFF"/>
<path d="M143.722 206.139L163.024 215.808L153.437 242.618L135.412 232.911L143.722 206.139Z" fill="#F5F5F5"/>
<path opacity="0.15" d="M147.807 208.947C147.807 208.947 147.966 208.52 148.161 207.993C148.357 207.466 149.955 207.752 151.73 208.632L155.129 210.315C156.904 211.194 158.184 212.334 157.988 212.861L157.634 213.815L147.807 208.947Z" fill="black"/>
<path d="M148.114 205.149C148.234 204.819 148.929 204.861 149.664 205.242L150.995 205.932C150.995 205.932 151.773 203.872 154.832 205.238C157.891 206.604 157.237 208.988 157.237 208.988C157.237 208.988 157.869 209.323 158.65 209.737C159.431 210.151 159.992 210.756 159.903 211.09L159.743 211.696L147.891 205.761C147.891 205.761 147.993 205.477 148.114 205.149Z" fill="#37474F"/>
<path d="M149.405 206.503C150.507 207.023 150.941 207.274 150.641 208.087C150.297 209.014 149.973 209.682 149.973 209.682L155.216 212.314C155.216 212.314 155.63 211.134 155.811 210.68C155.993 210.224 156.37 210.002 157.204 210.42L157.506 210.09L149.24 206.048L149.405 206.503Z" fill="#263238"/>
<path d="M147.585 208.999C147.585 208.999 147.744 208.573 147.939 208.046C148.135 207.519 149.734 207.804 151.508 208.684L154.907 210.368C156.683 211.247 157.962 212.387 157.767 212.914L157.412 213.868L147.585 208.999Z" fill="#37474F"/>
<path d="M113.795 221.497C117.418 221.437 119.609 221.758 124.554 229.096C129.498 236.434 138.665 249.946 139.74 251.697C141.236 254.132 141.573 257.868 140.355 260.148C139.218 262.277 137.219 263.016 131.522 256.963C127.303 252.479 118.437 240.573 118.437 240.573C118.437 240.573 111.537 227.71 113.795 221.497Z" fill="#FFA8A7"/>
<path d="M138.11 261.69C141.096 262.612 152.05 249.571 155.097 245.649C158.473 241.305 161.186 238.855 163.652 236.969C167.873 233.742 167.17 228.902 165.231 224.487C164.56 222.959 162.388 223.997 162.388 223.997L161.651 226.119L160.376 229.794C159.485 230.648 158.974 230.931 158.909 230.682C158.788 230.213 159.534 228.235 159.48 226.188C159.417 223.726 157.719 225.373 157.218 226.245C156.717 227.118 156.139 228.532 155.465 230.345C154.641 232.564 155.033 234.79 154.011 236.31C152.988 237.83 138.109 250.19 138.109 250.19V261.69H138.11Z" fill="#FFA8A7"/>
<path d="M94.7026 254.291C94.7026 254.291 105.2 260.491 119.897 254.291C119.897 254.291 121.942 265.786 122.563 277.583C123.086 287.52 124.239 308.854 124.239 308.854C124.239 308.854 119.898 313.913 104.418 312.887C89.5406 311.9 86.9132 308.023 86.9132 308.023C86.9132 308.023 86.8786 288.862 86.8009 280.485C86.7007 269.773 88.203 263.919 94.7026 254.291Z" fill="#006EFF"/>
<path opacity="0.5" d="M94.7026 254.291C94.7026 254.291 105.2 260.491 119.897 254.291C119.897 254.291 121.942 265.786 122.563 277.583C123.086 287.52 124.239 308.854 124.239 308.854C124.239 308.854 119.898 313.913 104.418 312.887C89.5406 311.9 86.9132 308.023 86.9132 308.023C86.9132 308.023 86.8786 288.862 86.8009 280.485C86.7007 269.773 88.203 263.919 94.7026 254.291Z" fill="black"/>
<path d="M89.8242 197.767L87.37 195.519C88.1721 194.644 89.5312 194.584 90.4064 195.386C91.0373 195.964 91.2366 196.83 91.0036 197.597C91.3087 197.57 91.6157 197.55 91.9265 197.55V217.286C91.9265 222.948 87.3372 227.537 81.6754 227.537V207.801C81.6754 202.861 85.1713 198.738 89.8242 197.767Z" fill="#263238"/>
</svg>
