<svg width="24" height="25" viewBox="0 0 24 25" fill="none" xmlns="http://www.w3.org/2000/svg">
<g id="mdi:linkedin">
<path id="Vector" d="M19 3.01025C19.5304 3.01025 20.0391 3.22097 20.4142 3.59604C20.7893 3.97111 21 4.47982 21 5.01025V19.0103C21 19.5407 20.7893 20.0494 20.4142 20.4245C20.0391 20.7995 19.5304 21.0103 19 21.0103H5C4.46957 21.0103 3.96086 20.7995 3.58579 20.4245C3.21071 20.0494 3 19.5407 3 19.0103V5.01025C3 4.47982 3.21071 3.97111 3.58579 3.59604C3.96086 3.22097 4.46957 3.01025 5 3.01025H19ZM18.5 18.5103V13.2103C18.5 12.3456 18.1565 11.5165 17.5452 10.9051C16.9338 10.2937 16.1046 9.95025 15.24 9.95025C14.39 9.95025 13.4 10.4703 12.92 11.2503V10.1403H10.13V18.5103H12.92V13.5803C12.92 12.8103 13.54 12.1803 14.31 12.1803C14.6813 12.1803 15.0374 12.3278 15.2999 12.5903C15.5625 12.8529 15.71 13.209 15.71 13.5803V18.5103H18.5ZM6.88 8.57025C7.32556 8.57025 7.75288 8.39325 8.06794 8.07819C8.383 7.76313 8.56 7.33582 8.56 6.89025C8.56 5.96025 7.81 5.20025 6.88 5.20025C6.43178 5.20025 6.00193 5.37831 5.68499 5.69524C5.36805 6.01218 5.19 6.44204 5.19 6.89025C5.19 7.82025 5.95 8.57025 6.88 8.57025ZM8.27 18.5103V10.1403H5.5V18.5103H8.27Z" fill="#2860F2"/>
</g>
</svg>
