<svg width="30" height="31" viewBox="0 0 30 31" fill="none" xmlns="http://www.w3.org/2000/svg">
<g id="material-symbols:mail">
<path id="Vector" d="M5 25.5601C4.3125 25.5601 3.72417 25.3155 3.235 24.8263C2.74583 24.3371 2.50083 23.7484 2.5 23.0601V8.06006C2.5 7.37256 2.745 6.78422 3.235 6.29506C3.725 5.80589 4.31333 5.56089 5 5.56006H25C25.6875 5.56006 26.2763 5.80506 26.7663 6.29506C27.2563 6.78506 27.5008 7.37339 27.5 8.06006V23.0601C27.5 23.7476 27.2554 24.3363 26.7663 24.8263C26.2771 25.3163 25.6883 25.5609 25 25.5601H5ZM15 16.8101L25 10.5601V8.06006L15 14.3101L5 8.06006V10.5601L15 16.8101Z" fill="black"/>
</g>
</svg>
